<svg width="24" height="24" viewBox="0 0 24 24" fill="none" xmlns="http://www.w3.org/2000/svg">
<g clip-path="url(#clip0_133_3544)">
<path d="M6.74935 5.7474L8.66602 3.83073M8.66602 3.83073L6.74935 1.91406M8.66602 3.83073H6.74935C4.63226 3.83073 2.91602 5.54697 2.91602 7.66406M18.2493 17.2474L16.3327 19.1641M16.3327 19.1641L18.2493 21.0807M16.3327 19.1641H18.2493C20.3664 19.1641 22.0827 17.4478 22.0827 15.3307M13.8575 12.8555C14.6071 13.2136 15.4465 13.4141 16.3327 13.4141C19.5083 13.4141 22.0827 10.8397 22.0827 7.66406C22.0827 4.48843 19.5083 1.91406 16.3327 1.91406C13.157 1.91406 10.5827 4.48843 10.5827 7.66406C10.5827 8.55025 10.7832 9.38961 11.1412 10.1393M14.416 15.3307C14.416 18.5064 11.8417 21.0807 8.66602 21.0807C5.49038 21.0807 2.91602 18.5064 2.91602 15.3307C2.91602 12.1551 5.49038 9.58073 8.66602 9.58073C11.8417 9.58073 14.416 12.1551 14.416 15.3307Z" stroke="white" stroke-width="2" stroke-linecap="round" stroke-linejoin="round"/>
</g>
<defs>
<clipPath id="clip0_133_3544">
<rect width="23" height="23" fill="white" transform="translate(1)"/>
</clipPath>
</defs>
</svg>
