<svg width="23" height="23" viewBox="0 0 23 23" fill="none" xmlns="http://www.w3.org/2000/svg">
<g clip-path="url(#clip0_133_701)">
<path d="M5.74935 5.7474L7.66602 3.83073M7.66602 3.83073L5.74935 1.91406M7.66602 3.83073H5.74935C3.63226 3.83073 1.91602 5.54697 1.91602 7.66406M17.2493 17.2474L15.3327 19.1641M15.3327 19.1641L17.2493 21.0807M15.3327 19.1641H17.2493C19.3664 19.1641 21.0827 17.4478 21.0827 15.3307M12.8575 12.8555C13.6071 13.2136 14.4465 13.4141 15.3327 13.4141C18.5083 13.4141 21.0827 10.8397 21.0827 7.66406C21.0827 4.48843 18.5083 1.91406 15.3327 1.91406C12.157 1.91406 9.58268 4.48843 9.58268 7.66406C9.58268 8.55025 9.78316 9.38961 10.1412 10.1393M13.416 15.3307C13.416 18.5064 10.8417 21.0807 7.66602 21.0807C4.49038 21.0807 1.91602 18.5064 1.91602 15.3307C1.91602 12.1551 4.49038 9.58073 7.66602 9.58073C10.8417 9.58073 13.416 12.1551 13.416 15.3307Z" stroke="#404045" stroke-width="2" stroke-linecap="round" stroke-linejoin="round"/>
</g>
<defs>
<clipPath id="clip0_133_701">
<rect width="23" height="23" fill="white"/>
</clipPath>
</defs>
</svg>
