<svg width="23" height="23" viewBox="0 0 23 23" fill="none" xmlns="http://www.w3.org/2000/svg">
<path fill-rule="evenodd" clip-rule="evenodd" d="M19.4679 6.01924C17.6697 3.46102 14.6118 1.8707 11.2621 2.00826C6.51223 2.20754 2.73178 5.23871 2.30547 9.87199C2.29746 9.96184 2.3075 10.0524 2.33502 10.1383C2.36255 10.2243 2.407 10.3041 2.46588 10.3731C2.52477 10.4421 2.59697 10.499 2.6782 10.5404C2.75942 10.5818 2.8482 10.607 2.93936 10.6145C3.12347 10.6312 3.30679 10.5751 3.44893 10.4587C3.59118 10.3423 3.68076 10.175 3.69813 9.99353C4.0536 6.04338 7.25995 3.53975 11.3084 3.36605C15.3558 3.19235 18.9069 5.98144 19.6094 9.88611C19.6535 10.1264 19.8249 10.3263 20.0595 10.4094C20.2943 10.4926 20.5567 10.4468 20.7479 10.2897C20.7643 10.2761 20.7801 10.2618 20.7951 10.2469C20.9287 10.117 21.0081 9.93448 20.9993 9.73576L20.8398 6.12255C20.8232 5.74824 20.4999 5.45812 20.1175 5.47446C19.7921 5.48847 19.5289 5.71989 19.4679 6.01924ZM3.53218 16.9808C5.33041 19.539 8.38818 21.1293 11.738 20.9917C16.4879 20.7925 20.2683 17.7614 20.6945 13.128C20.7026 13.0382 20.6926 12.9478 20.6651 12.8617C20.6375 12.7757 20.5931 12.6959 20.5342 12.6269C20.4752 12.5579 20.4031 12.5011 20.3219 12.4597C20.2406 12.4182 20.1519 12.393 20.0606 12.3855C19.8765 12.3688 19.6933 12.4249 19.5511 12.5413C19.4088 12.6577 19.3192 12.825 19.302 13.0065C18.9464 16.9566 15.74 19.4603 11.6917 19.6339C7.64419 19.8078 4.0932 17.0186 3.39072 13.1139C3.34661 12.8736 3.17525 12.6739 2.94048 12.5907C2.70584 12.5074 2.44332 12.5532 2.25222 12.7103C2.23575 12.7239 2.21995 12.7382 2.20495 12.753C2.07138 12.883 1.99196 13.0655 2.00065 13.2642L2.16028 16.8774C2.17686 17.2519 2.50007 17.5419 2.8825 17.5255C3.20796 17.5115 3.47115 17.2801 3.53218 16.9808Z" fill="#404045"/>
<path fill-rule="evenodd" clip-rule="evenodd" d="M2.30469 9.87193C2.731 5.23865 6.51145 2.20748 11.2613 2.0082C14.4813 1.87597 17.4317 3.34041 19.2527 5.72645C19.326 5.82255 19.3975 5.92014 19.4671 6.01919C19.4904 5.90484 19.5433 5.8004 19.6178 5.71421C19.7383 5.57476 19.9156 5.48306 20.1167 5.4744C20.4991 5.45806 20.8225 5.74819 20.839 6.1225L20.9986 9.73571C21.0074 9.93443 20.9279 10.1169 20.7944 10.2468C20.7794 10.2617 20.7636 10.276 20.7471 10.2896C20.5559 10.4467 20.2935 10.4926 20.0587 10.4094C19.8241 10.3262 19.6527 10.1264 19.6086 9.88605C18.9061 5.98138 15.355 3.19229 11.3077 3.36599C7.25917 3.53969 4.05282 6.04332 3.69735 9.99347C3.67998 10.175 3.59041 10.3422 3.44815 10.4586C3.30601 10.5751 3.12269 10.6311 2.93858 10.6144C2.84743 10.607 2.75864 10.5817 2.67742 10.5404C2.59619 10.4989 2.52399 10.4421 2.46511 10.373C2.40622 10.3041 2.36177 10.2242 2.33424 10.1383C2.30672 10.0523 2.29668 9.96178 2.30469 9.87193ZM2.91289 10.9133C2.78315 10.9026 2.65687 10.8666 2.54127 10.8077C2.42536 10.7485 2.32156 10.667 2.23683 10.5677C2.23678 10.5676 2.23689 10.5677 2.23683 10.5677C2.15216 10.4685 2.08818 10.3536 2.04853 10.2297C2.00881 10.1057 1.99431 9.975 2.00587 9.84529C2.44845 5.03529 6.37769 1.91283 11.2487 1.70847C14.5348 1.57352 17.5507 3.0517 19.4344 5.4708C19.6055 5.29715 19.8413 5.18598 20.1038 5.17468C20.6456 5.15152 21.1146 5.56361 21.1388 6.10922L21.2983 9.72243C21.2983 9.72242 21.2983 9.72245 21.2983 9.72243C21.311 10.0107 21.1956 10.2745 21.0047 10.4608C20.9836 10.4816 20.9613 10.5018 20.9378 10.5212C20.6649 10.7454 20.2919 10.8103 19.9585 10.6921C19.6245 10.5737 19.3774 10.2879 19.3135 9.94021L19.3133 9.93917C18.6383 6.18695 15.2228 3.49824 11.3205 3.66572C7.38881 3.83441 4.33534 6.25104 3.99615 10.0204L3.99599 10.0221C3.97093 10.2838 3.84181 10.5241 3.63825 10.6907C3.4352 10.857 3.17433 10.9367 2.91289 10.9133ZM11.7372 20.9917C8.5171 21.1239 5.56684 19.6595 3.74588 17.2734C3.67254 17.1773 3.60103 17.0797 3.53141 16.9807C3.50809 17.095 3.45528 17.1995 3.38077 17.2857C3.26022 17.4251 3.08287 17.5168 2.88172 17.5255C2.49929 17.5418 2.17608 17.2518 2.1595 16.8774L1.99987 13.2642C1.99118 13.0655 2.0706 12.883 2.20417 12.753C2.21918 12.7382 2.23497 12.7238 2.25144 12.7103C2.44254 12.5531 2.70506 12.5073 2.93971 12.5906C3.17447 12.6738 3.34583 12.8735 3.38994 13.1138C4.09242 17.0185 7.64341 19.8077 11.6909 19.6339C15.7393 19.4602 18.9456 16.9566 19.3012 13.0064C19.3184 12.8249 19.408 12.6577 19.5503 12.5412C19.6925 12.4248 19.8757 12.3688 20.0598 12.3855C20.1511 12.3929 20.2398 12.4181 20.3211 12.4596C20.4023 12.501 20.4744 12.5578 20.5334 12.6269C20.5923 12.6958 20.6368 12.7757 20.6643 12.8616C20.6918 12.9477 20.7019 13.0381 20.6937 13.128C20.2675 17.7613 16.4871 20.7924 11.7372 20.9917ZM20.4573 12.1923C20.3416 12.1333 20.2155 12.0973 20.0856 12.0866C19.8241 12.0632 19.5634 12.1429 19.3603 12.3091C19.1567 12.4757 19.0274 12.7161 19.0025 12.978L19.0024 12.9795C18.6631 16.7488 15.6096 19.1655 11.678 19.3342C7.7756 19.5017 4.36026 16.8129 3.6852 13.0607L3.68501 13.0597C3.62118 12.7119 3.37406 12.4263 3.04006 12.3079C2.70675 12.1896 2.33375 12.2542 2.06091 12.4785C2.03728 12.498 2.0149 12.5183 1.99425 12.5387C1.80317 12.725 1.68755 12.9889 1.70015 13.2773L1.85979 16.8906C1.88396 17.4363 2.35274 17.8484 2.89453 17.8252C3.15704 17.8139 3.39305 17.7027 3.56416 17.5291C5.44779 19.9482 8.46336 21.4264 11.7496 21.2914C16.6206 21.0871 20.55 17.9656 20.9925 13.1554C21.0042 13.0254 20.9897 12.8943 20.95 12.7702C20.9104 12.6463 20.8463 12.5313 20.7616 12.432C20.6769 12.333 20.5736 12.2515 20.4573 12.1923Z" fill="#404045"/>
</svg>
