<svg width="56" height="56" viewBox="0 0 56 56" fill="none" xmlns="http://www.w3.org/2000/svg">
<circle cx="28" cy="28" r="28" fill="#1E1E1F"/>
<path d="M36.959 26.1245C37.289 23.8784 35.6093 22.6711 33.3125 21.8656L34.0576 18.8231L32.2383 18.3616L31.513 21.324C31.0347 21.2026 30.5436 21.0882 30.0554 20.9747L30.786 17.9927L28.968 17.5312L28.2224 20.5728C27.8267 20.4811 27.438 20.3904 27.0608 20.2949L27.0629 20.2853L24.5542 19.6475L24.0703 21.6256C24.0703 21.6256 25.42 21.9406 25.3915 21.96C26.1282 22.1472 26.2614 22.6437 26.2393 23.0372L25.3905 26.5034C25.4413 26.5165 25.5071 26.5355 25.5797 26.5652C25.519 26.5498 25.4544 26.5331 25.3874 26.5167L24.1977 31.3723C24.1077 31.6002 23.8792 31.9422 23.3641 31.8123C23.3823 31.8392 22.0419 31.4764 22.0419 31.4764L21.1387 33.5964L23.5061 34.1972C23.9465 34.3097 24.3781 34.4273 24.8031 34.538L24.0503 37.6154L25.8674 38.0769L26.6129 35.0321C27.1094 35.1693 27.5911 35.2959 28.0627 35.4152L27.3197 38.4456L29.139 38.9071L29.8918 35.8354C32.9939 36.4331 35.3265 36.1921 36.3083 33.3355C37.0994 31.0357 36.2689 29.7091 34.6369 28.844C35.8256 28.5649 36.7209 27.769 36.9597 26.1248L36.9591 26.1244L36.959 26.1245ZM32.8025 32.0583C32.2403 34.3582 28.4367 33.1149 27.2035 32.8032L28.2025 28.7261C29.4356 29.0395 33.3901 29.6597 32.8026 32.0583H32.8025ZM33.3651 26.0912C32.8523 28.1832 29.6865 27.1204 28.6595 26.8598L29.5653 23.1621C30.5922 23.4227 33.8994 23.9091 33.3653 26.0912H33.3651Z" fill="white"/>
</svg>
