<svg width="23" height="23" viewBox="0 0 23 23" fill="none" xmlns="http://www.w3.org/2000/svg">
<path d="M11.5013 16.2917C11.5013 18.938 13.6466 21.0833 16.293 21.0833C18.9393 21.0833 21.0846 18.938 21.0846 16.2917C21.0846 13.6453 18.9393 11.5 16.293 11.5C13.6466 11.5 11.5013 13.6453 11.5013 16.2917ZM11.5013 16.2917C11.5013 15.2128 11.8579 14.2171 12.4596 13.4162V4.79167M11.5013 16.2917C11.5013 17.0826 11.6929 17.8288 12.0323 18.4864C11.225 19.1684 9.36024 19.6458 7.1888 19.6458C4.2778 19.6458 1.91797 18.7877 1.91797 17.7292V4.79167M12.4596 4.79167C12.4596 5.85021 10.0998 6.70833 7.1888 6.70833C4.2778 6.70833 1.91797 5.85021 1.91797 4.79167M12.4596 4.79167C12.4596 3.73312 10.0998 2.875 7.1888 2.875C4.2778 2.875 1.91797 3.73312 1.91797 4.79167M1.91797 13.4167C1.91797 14.4752 4.2778 15.3333 7.1888 15.3333C9.2866 15.3333 11.0982 14.8877 11.9466 14.2425M12.4596 9.10417C12.4596 10.1627 10.0998 11.0208 7.1888 11.0208C4.2778 11.0208 1.91797 10.1627 1.91797 9.10417" stroke="#404045" stroke-width="1.8" stroke-linecap="round" stroke-linejoin="round"/>
</svg>
