<svg width="23" height="23" viewBox="0 0 23 23" fill="none" xmlns="http://www.w3.org/2000/svg">
<path d="M12.9671 8.00382C12.4185 8.39491 11.7472 8.62496 11.0221 8.62496C9.16968 8.62496 7.66797 7.12325 7.66797 5.27079C7.66797 3.41834 9.16968 1.91663 11.0221 1.91663C12.2229 1.91663 13.2763 2.54761 13.8689 3.4961M5.7513 19.2501H8.25283C8.57899 19.2501 8.90315 19.289 9.21933 19.3666L11.8625 20.0089C12.436 20.1486 13.0335 20.1622 13.613 20.0496L16.5354 19.4811C17.3074 19.3307 18.0176 18.961 18.5741 18.4196L20.6418 16.4083C21.2323 15.8348 21.2323 14.9044 20.6418 14.33C20.1102 13.8128 19.2683 13.7546 18.6669 14.1932L16.2571 15.9513C15.912 16.2035 15.4921 16.3394 15.0602 16.3394H12.7332L14.2144 16.3393C15.0492 16.3393 15.7255 15.6815 15.7255 14.8694V14.5754C15.7255 13.9011 15.2537 13.3131 14.5815 13.1501L12.2954 12.5941C11.9233 12.5039 11.5423 12.4583 11.1593 12.4583C10.2347 12.4583 8.56103 13.2238 8.56103 13.2238L5.7513 14.3988M19.168 6.22913C19.168 8.08158 17.6663 9.58329 15.8138 9.58329C13.9613 9.58329 12.4596 8.08158 12.4596 6.22913C12.4596 4.37667 13.9613 2.87496 15.8138 2.87496C17.6663 2.87496 19.168 4.37667 19.168 6.22913ZM1.91797 13.9916L1.91797 19.55C1.91797 20.0867 1.91797 20.355 2.02242 20.56C2.1143 20.7404 2.26091 20.887 2.44123 20.9788C2.64623 21.0833 2.91458 21.0833 3.4513 21.0833H4.21797C4.75469 21.0833 5.02304 21.0833 5.22804 20.9788C5.40836 20.887 5.55497 20.7404 5.64685 20.56C5.7513 20.355 5.7513 20.0867 5.7513 19.55V13.9916C5.7513 13.4549 5.7513 13.1866 5.64685 12.9816C5.55497 12.8012 5.40837 12.6546 5.22804 12.5627C5.02304 12.4583 4.75469 12.4583 4.21797 12.4583L3.4513 12.4583C2.91459 12.4583 2.64623 12.4583 2.44123 12.5627C2.26091 12.6546 2.1143 12.8012 2.02242 12.9816C1.91797 13.1866 1.91797 13.4549 1.91797 13.9916Z" stroke="white" stroke-width="1.5" stroke-linecap="round" stroke-linejoin="round"/>
</svg>
