<svg width="90" height="97" viewBox="0 0 90 97" fill="none" xmlns="http://www.w3.org/2000/svg">
<g filter="url(#filter0_b_4358_51876)">
<path d="M0 32.9974C0 27.3686 0 24.5542 0.86607 22.3156C2.17234 18.9391 4.84164 16.2698 8.21815 14.9635C10.4568 14.0974 13.2712 14.0974 18.9 14.0974H71.1C76.7288 14.0974 79.5432 14.0974 81.7819 14.9635C85.1584 16.2698 87.8277 18.9391 89.1339 22.3156C90 24.5542 90 27.3686 90 32.9974V60.7045H0V32.9974Z" fill="url(#paint0_linear_4358_51876)"/>
</g>
<g filter="url(#filter1_b_4358_51876)">
<rect x="12.8574" y="0.0283203" width="19.2857" height="25.7143" rx="9.64286" fill="#FFBCB5" fill-opacity="0.6"/>
<rect x="13.1634" y="0.334268" width="18.6738" height="25.1024" rx="9.33691" stroke="url(#paint1_linear_4358_51876)" stroke-width="0.611895"/>
</g>
<g filter="url(#filter2_b_4358_51876)">
<rect x="57.8574" y="0.0283203" width="19.2857" height="25.7143" rx="9.64286" fill="#FFBCB5" fill-opacity="0.6"/>
<rect x="58.1634" y="0.334268" width="18.6738" height="25.1024" rx="9.33691" stroke="url(#paint2_linear_4358_51876)" stroke-width="0.611895"/>
</g>
<g filter="url(#filter3_b_4358_51876)">
<path d="M0 53.4596C0 46.0079 0 42.2821 1.45019 39.4359C2.72581 36.9324 4.76125 34.897 7.2648 33.6213C10.111 32.1711 13.8368 32.1711 21.2884 32.1711H68.7116C76.1632 32.1711 79.889 32.1711 82.7352 33.6213C85.2387 34.897 87.2742 36.9324 88.5498 39.4359C90 42.2821 90 46.0079 90 53.4596V64.5242C90 75.7017 90 81.2904 87.8247 85.5597C85.9113 89.315 82.8581 92.3681 79.1028 94.2816C74.8336 96.4569 69.2448 96.4569 58.0674 96.4569H31.9326C20.7552 96.4569 15.1664 96.4569 10.8972 94.2816C7.14188 92.3681 4.08871 89.315 2.17528 85.5597C0 81.2904 0 75.7017 0 64.5242V53.4596Z" fill="#FFBCB5" fill-opacity="0.6"/>
<path d="M0.305948 53.4596C0.305948 49.7287 0.306186 46.9489 0.486205 44.7456C0.665933 42.5458 1.02333 40.9476 1.72279 39.5748C2.96908 37.1289 4.95772 35.1402 7.4037 33.8939C8.77646 33.1945 10.3747 32.8371 12.5745 32.6573C14.7778 32.4773 17.5576 32.4771 21.2884 32.4771H68.7116C72.4425 32.4771 75.2222 32.4773 77.4255 32.6573C79.6253 32.8371 81.2235 33.1945 82.5963 33.8939C85.0423 35.1402 87.0309 37.1289 88.2772 39.5748C88.9767 40.9476 89.3341 42.5458 89.5138 44.7456C89.6938 46.9489 89.6941 49.7287 89.6941 53.4596V64.5242C89.6941 70.118 89.6938 74.295 89.4232 77.6076C89.1528 80.9167 88.6141 83.3365 87.5521 85.4208C85.668 89.1185 82.6617 92.1249 78.9639 94.009C76.8796 95.071 74.4599 95.6096 71.1508 95.88C67.8381 96.1507 63.6611 96.1509 58.0674 96.1509H31.9326C26.3389 96.1509 22.1619 96.1507 18.8492 95.88C15.5401 95.6096 13.1204 95.071 11.0361 94.009C7.33835 92.1249 4.33198 89.1185 2.44788 85.4208C1.38588 83.3365 0.847206 80.9167 0.576842 77.6076C0.306186 74.2949 0.305948 70.118 0.305948 64.5242V53.4596Z" stroke="url(#paint3_linear_4358_51876)" stroke-width="0.611895"/>
</g>
<g filter="url(#filter4_b_4358_51876)">
<rect x="64.2861" y="51.4565" width="6.42857" height="38.5714" rx="3.21429" transform="rotate(90 64.2861 51.4565)" fill="url(#paint4_linear_4358_51876)" fill-opacity="0.9"/>
<rect x="64.0414" y="51.7013" width="5.93906" height="38.0819" rx="2.96953" transform="rotate(90 64.0414 51.7013)" stroke="url(#paint5_linear_4358_51876)" stroke-width="0.489516"/>
</g>
<g filter="url(#filter5_b_4358_51876)">
<rect x="64.2861" y="70.7424" width="6.42857" height="38.5714" rx="3.21429" transform="rotate(90 64.2861 70.7424)" fill="url(#paint6_linear_4358_51876)" fill-opacity="0.9"/>
<rect x="64.0414" y="70.9872" width="5.93906" height="38.0819" rx="2.96953" transform="rotate(90 64.0414 70.9872)" stroke="url(#paint7_linear_4358_51876)" stroke-width="0.489516"/>
</g>
<defs>
<filter id="filter0_b_4358_51876" x="-13.3053" y="0.792147" width="116.611" height="73.2177" filterUnits="userSpaceOnUse" color-interpolation-filters="sRGB">
<feFlood flood-opacity="0" result="BackgroundImageFix"/>
<feGaussianBlur in="BackgroundImageFix" stdDeviation="6.65263"/>
<feComposite in2="SourceAlpha" operator="in" result="effect1_backgroundBlur_4358_51876"/>
<feBlend mode="normal" in="SourceGraphic" in2="effect1_backgroundBlur_4358_51876" result="shape"/>
</filter>
<filter id="filter1_b_4358_51876" x="-0.447844" y="-13.2769" width="45.8967" height="52.3249" filterUnits="userSpaceOnUse" color-interpolation-filters="sRGB">
<feFlood flood-opacity="0" result="BackgroundImageFix"/>
<feGaussianBlur in="BackgroundImageFix" stdDeviation="6.65263"/>
<feComposite in2="SourceAlpha" operator="in" result="effect1_backgroundBlur_4358_51876"/>
<feBlend mode="normal" in="SourceGraphic" in2="effect1_backgroundBlur_4358_51876" result="shape"/>
</filter>
<filter id="filter2_b_4358_51876" x="44.5522" y="-13.2769" width="45.8967" height="52.3249" filterUnits="userSpaceOnUse" color-interpolation-filters="sRGB">
<feFlood flood-opacity="0" result="BackgroundImageFix"/>
<feGaussianBlur in="BackgroundImageFix" stdDeviation="6.65263"/>
<feComposite in2="SourceAlpha" operator="in" result="effect1_backgroundBlur_4358_51876"/>
<feBlend mode="normal" in="SourceGraphic" in2="effect1_backgroundBlur_4358_51876" result="shape"/>
</filter>
<filter id="filter3_b_4358_51876" x="-13.3053" y="18.8659" width="116.611" height="90.8963" filterUnits="userSpaceOnUse" color-interpolation-filters="sRGB">
<feFlood flood-opacity="0" result="BackgroundImageFix"/>
<feGaussianBlur in="BackgroundImageFix" stdDeviation="6.65263"/>
<feComposite in2="SourceAlpha" operator="in" result="effect1_backgroundBlur_4358_51876"/>
<feBlend mode="normal" in="SourceGraphic" in2="effect1_backgroundBlur_4358_51876" result="shape"/>
</filter>
<filter id="filter4_b_4358_51876" x="12.4096" y="38.1513" width="65.1818" height="33.039" filterUnits="userSpaceOnUse" color-interpolation-filters="sRGB">
<feFlood flood-opacity="0" result="BackgroundImageFix"/>
<feGaussianBlur in="BackgroundImageFix" stdDeviation="6.65263"/>
<feComposite in2="SourceAlpha" operator="in" result="effect1_backgroundBlur_4358_51876"/>
<feBlend mode="normal" in="SourceGraphic" in2="effect1_backgroundBlur_4358_51876" result="shape"/>
</filter>
<filter id="filter5_b_4358_51876" x="12.4096" y="57.4372" width="65.1818" height="33.0391" filterUnits="userSpaceOnUse" color-interpolation-filters="sRGB">
<feFlood flood-opacity="0" result="BackgroundImageFix"/>
<feGaussianBlur in="BackgroundImageFix" stdDeviation="6.65263"/>
<feComposite in2="SourceAlpha" operator="in" result="effect1_backgroundBlur_4358_51876"/>
<feBlend mode="normal" in="SourceGraphic" in2="effect1_backgroundBlur_4358_51876" result="shape"/>
</filter>
<linearGradient id="paint0_linear_4358_51876" x1="-9.40069" y1="37.4355" x2="18.5286" y2="64.4503" gradientUnits="userSpaceOnUse">
<stop stop-color="#F7771A"/>
<stop offset="1" stop-color="#F7771A"/>
</linearGradient>
<linearGradient id="paint1_linear_4358_51876" x1="11.8931" y1="1.86505" x2="31.9882" y2="24.883" gradientUnits="userSpaceOnUse">
<stop stop-color="white"/>
<stop offset="0.765625" stop-color="white" stop-opacity="0"/>
</linearGradient>
<linearGradient id="paint2_linear_4358_51876" x1="56.8931" y1="1.86505" x2="76.9882" y2="24.883" gradientUnits="userSpaceOnUse">
<stop stop-color="white"/>
<stop offset="0.765625" stop-color="white" stop-opacity="0"/>
</linearGradient>
<linearGradient id="paint3_linear_4358_51876" x1="-4.5" y1="36.763" x2="34.4133" y2="119.967" gradientUnits="userSpaceOnUse">
<stop stop-color="white"/>
<stop offset="0.765625" stop-color="white" stop-opacity="0"/>
</linearGradient>
<linearGradient id="paint4_linear_4358_51876" x1="75.534" y1="46.904" x2="67.256" y2="83.5637" gradientUnits="userSpaceOnUse">
<stop stop-color="white" stop-opacity="0"/>
<stop offset="0.979167" stop-color="white"/>
</linearGradient>
<linearGradient id="paint5_linear_4358_51876" x1="67.5004" y1="51.4565" x2="67.5004" y2="90.028" gradientUnits="userSpaceOnUse">
<stop stop-color="white" stop-opacity="0"/>
<stop offset="1" stop-color="white"/>
</linearGradient>
<linearGradient id="paint6_linear_4358_51876" x1="72.8043" y1="70.3288" x2="66.8914" y2="101.076" gradientUnits="userSpaceOnUse">
<stop stop-color="white" stop-opacity="0"/>
<stop offset="0.979167" stop-color="white"/>
</linearGradient>
<linearGradient id="paint7_linear_4358_51876" x1="67.5004" y1="70.7424" x2="67.5004" y2="109.314" gradientUnits="userSpaceOnUse">
<stop stop-color="white" stop-opacity="0"/>
<stop offset="1" stop-color="white"/>
</linearGradient>
</defs>
</svg>
