<svg width="96" height="96" viewBox="0 0 96 96" fill="none" xmlns="http://www.w3.org/2000/svg">
<path opacity="0.7" fill-rule="evenodd" clip-rule="evenodd" d="M17.3079 14.5521C16 17.1191 16 20.4794 16 27.2V68.8C16 75.5206 16 78.8809 17.3079 81.4479C18.1002 83.0028 19.2175 84.3576 20.5739 85.4262C20.0907 84.813 19.6661 84.1509 19.3079 83.4479C18 80.8809 18 77.5206 18 70.8V29.2C18 22.4794 18 19.1191 19.3079 16.5521C20.4584 14.2942 22.2942 12.4584 24.5521 11.3079C27.1191 10 30.4794 10 37.2 10H60.6981C62.6548 10 63.6332 10 64.5539 10.221C65.3701 10.417 66.1505 10.7402 66.8663 11.1789C67.6736 11.6736 68.3654 12.3654 69.749 13.749L67.749 11.749C66.3654 10.3654 65.6736 9.67361 64.8663 9.17888C64.1505 8.74025 63.3701 8.41701 62.5539 8.22104C61.6332 8 60.6548 8 58.6981 8H35.2C28.4794 8 25.1191 8 22.5521 9.30792C20.2942 10.4584 18.4584 12.2942 17.3079 14.5521Z" fill="#00CCA9"/>
<path opacity="0.7" d="M54 15.6569C54 12.5327 56.5327 10 59.6569 10C61.1571 10 62.596 10.596 63.6569 11.6569L76.3431 24.3431C77.404 25.404 78 26.8429 78 28.3431C78 31.4673 75.4673 34 72.3431 34H62C57.5817 34 54 30.4183 54 26V15.6569Z" fill="#00CCA9"/>
<g filter="url(#filter0_bi_4086_895)">
<path d="M16 27.2C16 20.4794 16 17.1191 17.3079 14.5521C18.4584 12.2942 20.2942 10.4584 22.5521 9.30792C25.1191 8 28.4794 8 35.2 8H58.6981C60.6548 8 61.6332 8 62.5539 8.22104C63.3701 8.41701 64.1505 8.74025 64.8663 9.17888C65.6736 9.67361 66.3654 10.3654 67.749 11.749L76.251 20.251C77.6346 21.6346 78.3264 22.3264 78.8211 23.1337C79.2598 23.8495 79.583 24.6299 79.779 25.4461C80 26.3668 80 27.3452 80 29.3019V68.8C80 75.5206 80 78.8809 78.6921 81.4479C77.5416 83.7058 75.7058 85.5416 73.4479 86.6921C70.8809 88 67.5206 88 60.8 88H35.2C28.4794 88 25.1191 88 22.5521 86.6921C20.2942 85.5416 18.4584 83.7058 17.3079 81.4479C16 78.8809 16 75.5206 16 68.8V27.2Z" fill="#00CCA9" fill-opacity="0.07"/>
<path d="M16.5 27.2C16.5 23.8314 16.5004 21.3351 16.6618 19.3591C16.8228 17.389 17.1414 15.9803 17.7534 14.7791C18.856 12.6152 20.6152 10.856 22.7791 9.75343C23.9803 9.14136 25.389 8.82279 27.3591 8.66183C29.3351 8.50039 31.8314 8.5 35.2 8.5H58.6981C60.6786 8.5 61.5874 8.50321 62.4371 8.70723C63.2024 8.89095 63.934 9.19398 64.605 9.6052C65.3502 10.0618 65.995 10.7021 67.3955 12.1026L75.8974 20.6045C77.2979 22.005 77.9382 22.6498 78.3948 23.395C78.806 24.066 79.1091 24.7976 79.2928 25.5629C79.4968 26.4126 79.5 27.3214 79.5 29.3019V68.8C79.5 72.1686 79.4996 74.6649 79.3382 76.6409C79.1772 78.611 78.8586 80.0197 78.2466 81.2209C77.144 83.3848 75.3848 85.144 73.2209 86.2466C72.0197 86.8586 70.611 87.1772 68.6409 87.3382C66.6649 87.4996 64.1686 87.5 60.8 87.5H35.2C31.8314 87.5 29.3351 87.4996 27.3591 87.3382C25.389 87.1772 23.9803 86.8586 22.7791 86.2466C20.6152 85.144 18.856 83.3848 17.7534 81.2209C17.1414 80.0197 16.8228 78.611 16.6618 76.6409C16.5004 74.6649 16.5 72.1686 16.5 68.8V27.2Z" stroke="url(#paint0_linear_4086_895)"/>
</g>
<path d="M56 13.6569C56 10.5327 58.5327 8 61.6569 8C63.1571 8 64.596 8.59599 65.6569 9.65685L78.3431 22.3431C79.404 23.404 80 24.8429 80 26.3431C80 29.4673 77.4673 32 74.3431 32H64C59.5817 32 56 28.4183 56 24V13.6569Z" fill="#00CCA9"/>
<defs>
<filter id="filter0_bi_4086_895" x="1" y="-7" width="94" height="110" filterUnits="userSpaceOnUse" color-interpolation-filters="sRGB">
<feFlood flood-opacity="0" result="BackgroundImageFix"/>
<feGaussianBlur in="BackgroundImageFix" stdDeviation="7.5"/>
<feComposite in2="SourceAlpha" operator="in" result="effect1_backgroundBlur_4086_895"/>
<feBlend mode="normal" in="SourceGraphic" in2="effect1_backgroundBlur_4086_895" result="shape"/>
<feColorMatrix in="SourceAlpha" type="matrix" values="0 0 0 0 0 0 0 0 0 0 0 0 0 0 0 0 0 0 127 0" result="hardAlpha"/>
<feOffset/>
<feGaussianBlur stdDeviation="7.5"/>
<feComposite in2="hardAlpha" operator="arithmetic" k2="-1" k3="1"/>
<feColorMatrix type="matrix" values="0 0 0 0 0 0 0 0 0 0.8 0 0 0 0 0.662745 0 0 0 0.1 0"/>
<feBlend mode="normal" in2="shape" result="effect2_innerShadow_4086_895"/>
</filter>
<linearGradient id="paint0_linear_4086_895" x1="20" y1="9.29032" x2="79.074" y2="89.0956" gradientUnits="userSpaceOnUse">
<stop stop-color="#00CCA9" stop-opacity="0.1"/>
<stop offset="1" stop-color="white" stop-opacity="0.1"/>
<stop offset="1" stop-color="#00CCA9" stop-opacity="0"/>
</linearGradient>
</defs>
</svg>
