<svg width="18" height="18" viewBox="0 0 18 18" fill="none" xmlns="http://www.w3.org/2000/svg">
<path d="M5.07178 5.07031H5.07892M12.9289 5.07031H12.9361M5.07178 12.9275H5.07892M9.71463 9.71317H9.72178M12.9289 12.9275H12.9361M12.5718 15.4275H15.4289V12.5703M10.4289 12.2132V15.4275M15.4289 10.4275H12.2146M11.5718 7.57031H14.2861C14.6861 7.57031 14.8861 7.57031 15.0389 7.49246C15.1733 7.42398 15.2826 7.31471 15.3511 7.18031C15.4289 7.02751 15.4289 6.82749 15.4289 6.42746V3.71317C15.4289 3.31313 15.4289 3.11311 15.3511 2.96032C15.2826 2.82592 15.1733 2.71665 15.0389 2.64816C14.8861 2.57031 14.6861 2.57031 14.2861 2.57031H11.5718C11.1717 2.57031 10.9717 2.57031 10.8189 2.64816C10.6845 2.71665 10.5753 2.82592 10.5068 2.96032C10.4289 3.11311 10.4289 3.31313 10.4289 3.71317V6.42746C10.4289 6.82749 10.4289 7.02751 10.5068 7.18031C10.5753 7.31471 10.6845 7.42398 10.8189 7.49246C10.9717 7.57031 11.1717 7.57031 11.5718 7.57031ZM3.71463 7.57031H6.42892C6.82896 7.57031 7.02898 7.57031 7.18177 7.49246C7.31617 7.42398 7.42544 7.31471 7.49392 7.18031C7.57178 7.02751 7.57178 6.82749 7.57178 6.42746V3.71317C7.57178 3.31313 7.57178 3.11311 7.49392 2.96032C7.42544 2.82592 7.31617 2.71665 7.18177 2.64816C7.02898 2.57031 6.82896 2.57031 6.42892 2.57031H3.71463C3.3146 2.57031 3.11458 2.57031 2.96178 2.64816C2.82738 2.71665 2.71811 2.82592 2.64963 2.96032C2.57178 3.11311 2.57178 3.31313 2.57178 3.71317V6.42746C2.57178 6.82749 2.57178 7.02751 2.64963 7.18031C2.71811 7.31471 2.82738 7.42398 2.96178 7.49246C3.11458 7.57031 3.3146 7.57031 3.71463 7.57031ZM3.71463 15.4275H6.42892C6.82896 15.4275 7.02898 15.4275 7.18177 15.3496C7.31617 15.2811 7.42544 15.1719 7.49392 15.0374C7.57178 14.8847 7.57178 14.6846 7.57178 14.2846V11.5703C7.57178 11.1703 7.57178 10.9703 7.49392 10.8175C7.42544 10.6831 7.31617 10.5738 7.18177 10.5053C7.02898 10.4275 6.82896 10.4275 6.42892 10.4275H3.71463C3.3146 10.4275 3.11458 10.4275 2.96178 10.5053C2.82738 10.5738 2.71811 10.6831 2.64963 10.8175C2.57178 10.9703 2.57178 11.1703 2.57178 11.5703V14.2846C2.57178 14.6846 2.57178 14.8847 2.64963 15.0374C2.71811 15.1719 2.82738 15.2811 2.96178 15.3496C3.11458 15.4275 3.3146 15.4275 3.71463 15.4275Z" stroke="white" stroke-width="2" stroke-linecap="round" stroke-linejoin="round"/>
</svg>
