<svg width="56" height="56" viewBox="0 0 56 56" fill="none" xmlns="http://www.w3.org/2000/svg">
<circle cx="28" cy="28" r="28" fill="#1E1E1F"/>
<path d="M23.4167 23.4167H23.425M32.5833 23.4167H32.5917M23.4167 32.5833H23.425M28.8333 28.8333H28.8417M32.5833 32.5833H32.5917M32.1667 35.5H35.5V32.1667M29.6667 31.75V35.5M35.5 29.6667H31.75M31 26.3333H34.1667C34.6334 26.3333 34.8667 26.3333 35.045 26.2425C35.2018 26.1626 35.3293 26.0351 35.4092 25.8783C35.5 25.7001 35.5 25.4667 35.5 25V21.8333C35.5 21.3666 35.5 21.1333 35.4092 20.955C35.3293 20.7982 35.2018 20.6707 35.045 20.5908C34.8667 20.5 34.6334 20.5 34.1667 20.5H31C30.5333 20.5 30.2999 20.5 30.1217 20.5908C29.9649 20.6707 29.8374 20.7982 29.7575 20.955C29.6667 21.1333 29.6667 21.3666 29.6667 21.8333V25C29.6667 25.4667 29.6667 25.7001 29.7575 25.8783C29.8374 26.0351 29.9649 26.1626 30.1217 26.2425C30.2999 26.3333 30.5333 26.3333 31 26.3333ZM21.8333 26.3333H25C25.4667 26.3333 25.7001 26.3333 25.8783 26.2425C26.0351 26.1626 26.1626 26.0351 26.2425 25.8783C26.3333 25.7001 26.3333 25.4667 26.3333 25V21.8333C26.3333 21.3666 26.3333 21.1333 26.2425 20.955C26.1626 20.7982 26.0351 20.6707 25.8783 20.5908C25.7001 20.5 25.4667 20.5 25 20.5H21.8333C21.3666 20.5 21.1333 20.5 20.955 20.5908C20.7982 20.6707 20.6707 20.7982 20.5908 20.955C20.5 21.1333 20.5 21.3666 20.5 21.8333V25C20.5 25.4667 20.5 25.7001 20.5908 25.8783C20.6707 26.0351 20.7982 26.1626 20.955 26.2425C21.1333 26.3333 21.3666 26.3333 21.8333 26.3333ZM21.8333 35.5H25C25.4667 35.5 25.7001 35.5 25.8783 35.4092C26.0351 35.3293 26.1626 35.2018 26.2425 35.045C26.3333 34.8667 26.3333 34.6334 26.3333 34.1667V31C26.3333 30.5333 26.3333 30.2999 26.2425 30.1217C26.1626 29.9649 26.0351 29.8374 25.8783 29.7575C25.7001 29.6667 25.4667 29.6667 25 29.6667H21.8333C21.3666 29.6667 21.1333 29.6667 20.955 29.7575C20.7982 29.8374 20.6707 29.9649 20.5908 30.1217C20.5 30.2999 20.5 30.5333 20.5 31V34.1667C20.5 34.6334 20.5 34.8667 20.5908 35.045C20.6707 35.2018 20.7982 35.3293 20.955 35.4092C21.1333 35.5 21.3666 35.5 21.8333 35.5Z" stroke="white" stroke-width="2" stroke-linecap="round" stroke-linejoin="round"/>
</svg>
