<svg width="22" height="22" viewBox="0 0 22 22" fill="none" xmlns="http://www.w3.org/2000/svg">
<path d="M11 2.2C6.13965 2.2 2.2 6.13965 2.2 11C2.2 15.8603 6.13965 19.8 11 19.8C15.8603 19.8 19.8 15.8603 19.8 11C19.8 6.13965 15.8603 2.2 11 2.2ZM0 11C0 4.9247 4.9247 0 11 0C17.0753 0 22 4.9247 22 11C22 17.0753 17.0753 22 11 22C4.9247 22 0 17.0753 0 11Z" fill="white"/>
<path d="M15.6675 6.33375C15.8119 6.47817 15.9132 6.65993 15.9601 6.85868C16.007 7.05742 15.9977 7.2653 15.9332 7.45905L13.9889 13.2929C13.9349 13.4549 13.8439 13.6021 13.7232 13.7229C13.6024 13.8437 13.4552 13.9346 13.2932 13.9886L7.45932 15.9329C7.2655 15.9975 7.05752 16.0069 6.85867 15.96C6.65982 15.9131 6.47797 15.8117 6.3335 15.6672C6.18904 15.5227 6.08766 15.3409 6.04073 15.142C5.9938 14.9432 6.00318 14.7352 6.06782 14.5414L8.01262 8.7081C8.06662 8.54608 8.1576 8.39885 8.27837 8.27809C8.39913 8.15733 8.54635 8.06635 8.70837 8.01235L14.5422 6.0681C14.736 6.00356 14.9438 5.99423 15.1426 6.04115C15.3413 6.08806 15.5231 6.18938 15.6675 6.33375ZM9.92552 9.92525L8.85082 13.1504L12.0755 12.0752L13.1507 8.85055L9.92607 9.9258L9.92552 9.92525Z" fill="white"/>
</svg>
