<svg width="24" height="24" viewBox="0 0 24 24" fill="none" xmlns="http://www.w3.org/2000/svg">
<g clip-path="url(#clip0_133_3530)">
<path d="M19.3529 11.7379L19.1891 12.0033L19.3554 12.2671L21.7413 16.0515C22.0337 16.6605 21.8402 17.3629 21.3217 17.7085C21.153 17.821 21.0007 17.8728 20.7715 17.8728H15.8887H15.6083L15.4621 18.1121L12.7364 22.5723C12.6155 22.7521 12.5029 22.8667 12.3275 22.9872C11.723 23.2736 11.0283 23.0829 10.6822 22.5719L7.95676 18.1121L7.81054 17.8728H7.53012H2.64736C2.01316 17.8728 1.49219 17.3519 1.49219 16.7177C1.49219 16.5569 1.55164 16.3247 1.65649 16.1674L1.66136 16.1601L1.66598 16.1526L4.06598 12.263L4.22798 12.0004L4.06598 11.7379L1.66598 7.8482L1.66136 7.84072L1.65649 7.83341C1.54398 7.66464 1.49219 7.51238 1.49219 7.28317C1.49219 6.64897 2.01316 6.128 2.64736 6.128H3.44162C3.20078 6.15606 2.98858 6.2632 2.86428 6.32595C2.85485 6.33071 2.84593 6.33521 2.83755 6.3394L2.82037 6.34799L2.80391 6.35787C2.17939 6.73258 1.88196 7.63037 2.40094 8.31278L5.10888 12.744C5.22683 12.9615 5.42423 13.0828 5.5858 13.1474C5.75916 13.2168 5.94831 13.2452 6.12322 13.2452C6.1262 13.2452 6.12938 13.2452 6.13275 13.2453C6.22316 13.2455 6.45171 13.2462 6.66653 13.0692C6.85419 12.9497 6.96223 12.7699 7.02194 12.6206C7.09129 12.4472 7.11977 12.2581 7.11977 12.0832C7.11977 12.0802 7.11978 12.077 7.11979 12.0736C7.12008 11.9825 7.12079 11.751 6.93952 11.5347L4.94665 8.27972H18.7168L16.8111 11.3684C16.6291 11.5849 16.6298 11.8169 16.6301 11.9081C16.6301 11.9115 16.6301 11.9147 16.6301 11.9177C16.6301 12.1001 16.6611 12.2746 16.7353 12.4414C16.8085 12.6061 16.9126 12.7382 17.0248 12.8505C17.2552 13.0809 17.5185 13.08 17.6171 13.0797C17.6205 13.0797 17.6237 13.0797 17.6267 13.0797C17.9159 13.0797 18.2941 12.9504 18.5595 12.685L18.601 12.6435L18.6318 12.5935L21.2801 8.29005L21.3543 8.16952V8.028C21.3543 8.02803 21.3543 8.02764 21.3543 8.02678C21.3544 8.02558 21.3545 8.02346 21.3548 8.02029C21.3554 8.0148 21.3566 8.00696 21.3586 7.996C21.3632 7.97177 21.3697 7.94493 21.3807 7.90099C21.3817 7.89689 21.3828 7.89256 21.384 7.88799C21.4028 7.81338 21.437 7.67756 21.437 7.53145C21.437 6.75875 20.7994 6.1211 20.0267 6.1211H7.81735L7.95886 5.88524L10.6899 1.33352C11.0486 0.735655 11.8081 0.584377 12.301 0.912987C12.4918 1.04014 12.6096 1.15707 12.7365 1.34581L15.4621 5.80596L15.6083 6.04524H15.8887H20.7715C20.9323 6.04524 21.1645 6.10469 21.3217 6.20954L21.3316 6.21614L21.3418 6.22226C21.9397 6.58098 22.091 7.34049 21.7624 7.83341L21.7575 7.84072L21.7529 7.8482L19.3529 11.7379ZM15.5611 17.407C15.8933 16.9066 15.676 16.3327 15.5084 15.9975L15.4338 15.8484L15.2848 15.7739C14.7678 15.5154 14.1462 15.6163 13.8175 16.1093L13.8127 16.1166L13.808 16.1241L11.8308 19.3285L9.77481 16.0389L9.77091 16.0326L9.76683 16.0265C9.59387 15.7671 9.31859 15.6261 9.06611 15.5756C8.83957 15.5303 8.5681 15.5452 8.3273 15.6736C8.21082 15.7178 8.12783 15.7956 8.07777 15.8606C8.01995 15.9358 7.98797 16.0162 7.97745 16.0427L7.97623 16.0457L7.9669 16.0694L7.96498 16.0743L7.94168 16.1093C7.84228 16.2584 7.73653 16.4516 7.69899 16.6768C7.65876 16.9182 7.70196 17.1677 7.85187 17.3981L10.4952 21.7761L10.5266 21.8282L10.5678 21.8694C10.5679 21.8694 10.5679 21.8695 10.5681 21.8697C10.5693 21.8712 10.5751 21.878 10.5876 21.8944C10.5902 21.8978 10.5942 21.9031 10.599 21.9096C10.6142 21.9298 10.638 21.9615 10.6569 21.9852C10.6835 22.0184 10.731 22.0755 10.7941 22.1268C10.8306 22.1564 10.8957 22.2036 10.9856 22.2346C11.5795 22.5448 12.4332 22.4494 12.8388 21.7796L15.4847 17.5627L15.5611 17.4408V17.407Z" stroke="#404045"/>
<path d="M15 16L11.5 22L8.5 16" stroke="#404045" stroke-width="2"/>
<path d="M17.5 13L20.1227 8.50387C20.5116 7.83721 20.0308 7 19.259 7H4.36852C3.56982 7 3.09343 7.89015 3.53647 8.5547L6.5 13" stroke="#404045" stroke-width="2"/>
</g>
<defs>
<clipPath id="clip0_133_3530">
<rect width="24" height="24" fill="white"/>
</clipPath>
</defs>
</svg>
