<svg width="23" height="23" viewBox="0 0 23 23" fill="none" xmlns="http://www.w3.org/2000/svg">
<path d="M5.7513 5.74996L7.66797 3.83329M7.66797 3.83329L5.7513 1.91663M7.66797 3.83329H5.7513C3.63421 3.83329 1.91797 5.54953 1.91797 7.66663M17.2513 17.25L15.3346 19.1666M15.3346 19.1666L17.2513 21.0833M15.3346 19.1666H17.2513C19.3684 19.1666 21.0846 17.4504 21.0846 15.3333M12.8594 12.8581C13.6091 13.2162 14.4484 13.4166 15.3346 13.4166C18.5103 13.4166 21.0846 10.8423 21.0846 7.66663C21.0846 4.49099 18.5103 1.91663 15.3346 1.91663C12.159 1.91663 9.58464 4.49099 9.58464 7.66663C9.58464 8.55281 9.78511 9.39217 10.1432 10.1418M13.418 15.3333C13.418 18.5089 10.8436 21.0833 7.66797 21.0833C4.49233 21.0833 1.91797 18.5089 1.91797 15.3333C1.91797 12.1577 4.49233 9.58329 7.66797 9.58329C10.8436 9.58329 13.418 12.1577 13.418 15.3333Z" stroke="#404045" stroke-width="1.5" stroke-linecap="round" stroke-linejoin="round"/>
</svg>
