<svg width="24" height="24" viewBox="0 0 24 24" fill="none" xmlns="http://www.w3.org/2000/svg">
<path d="M2.5122 19.0261L2.51222 19.0261L6.1022 22.8356C6.43418 23.1881 6.94082 23.1881 7.2728 22.8356C7.60157 22.4865 7.60157 21.9592 7.2728 21.6101L4.72154 18.9009H17.3825C19.4933 18.9009 21.145 17.1408 21.145 14.9118V12.5783C21.145 12.3238 21.065 12.1033 20.9165 11.9456C20.7675 11.7874 20.557 11.7005 20.3125 11.7005C20.068 11.7005 19.8575 11.7874 19.7085 11.9456C19.56 12.1033 19.48 12.3238 19.48 12.5783V14.9118C19.48 16.1843 18.5667 17.1453 17.3825 17.1453H5.31847L7.27029 15.2165L7.27033 15.2166L7.2728 15.214C7.60157 14.8649 7.60157 14.3375 7.2728 13.9884C6.94082 13.6359 6.43418 13.6359 6.1022 13.9884L2.51279 17.8C2.51269 17.8001 2.5126 17.8002 2.5125 17.8003C2.34871 17.9713 2.265 18.1522 2.265 18.4133C2.265 18.593 2.3456 18.8492 2.5122 19.0261ZM19.0585 5.47787H5.6625C3.55174 5.47787 1.9 7.23796 1.9 9.46701V11.8005C1.9 12.055 1.97996 12.2755 2.12845 12.4332C2.27746 12.5914 2.48798 12.6783 2.7325 12.6783C2.97702 12.6783 3.18754 12.5914 3.33655 12.4332C3.48504 12.2755 3.565 12.055 3.565 11.8005V9.46701C3.565 8.19445 4.4783 7.23352 5.6625 7.23352H19.5686L17.0922 9.86567C17.0922 9.86569 17.0922 9.8657 17.0922 9.86571C16.7634 10.2148 16.7634 10.7421 17.0922 11.0912C17.4242 11.4437 17.9308 11.4437 18.2628 11.0912L21.8528 7.27907C21.9322 7.19473 21.9951 7.10722 22.0375 7.00591C22.0801 6.90432 22.1 6.79391 22.1 6.6663C22.1 6.48963 22.0196 6.23098 21.8532 6.05397C21.8531 6.05382 21.8529 6.05367 21.8528 6.05353L18.2635 2.16512L18.2628 2.16439C17.9308 1.81187 17.4242 1.81187 17.0922 2.16439C16.7634 2.5135 16.7634 3.04082 17.0922 3.38993L19.0585 5.47787Z" fill="white" stroke="white" stroke-width="0.2"/>
</svg>
