<svg width="22" height="23" viewBox="0 0 22 23" fill="none" xmlns="http://www.w3.org/2000/svg">
<path d="M1.5122 18.0261L1.51222 18.0261L5.1022 21.8356C5.43418 22.1881 5.94082 22.1881 6.2728 21.8356C6.60157 21.4865 6.60157 20.9592 6.2728 20.6101L3.72154 17.9009H16.3825C18.4933 17.9009 20.145 16.1408 20.145 13.9118V11.5783C20.145 11.3238 20.065 11.1033 19.9165 10.9456C19.7675 10.7874 19.557 10.7005 19.3125 10.7005C19.068 10.7005 18.8575 10.7874 18.7085 10.9456C18.56 11.1033 18.48 11.3238 18.48 11.5783V13.9118C18.48 15.1843 17.5667 16.1453 16.3825 16.1453H4.31847L6.27029 14.2165L6.27033 14.2166L6.2728 14.214C6.60157 13.8649 6.60157 13.3375 6.2728 12.9884C5.94082 12.6359 5.43418 12.6359 5.1022 12.9884L1.51279 16.8C1.51269 16.8001 1.5126 16.8002 1.5125 16.8003C1.34871 16.9713 1.265 17.1522 1.265 17.4133C1.265 17.593 1.3456 17.8492 1.5122 18.0261ZM18.0585 4.47787H4.6625C2.55174 4.47787 0.9 6.23796 0.9 8.46701V10.8005C0.9 11.055 0.979957 11.2755 1.12845 11.4332C1.27746 11.5914 1.48798 11.6783 1.7325 11.6783C1.97702 11.6783 2.18754 11.5914 2.33655 11.4332C2.48504 11.2755 2.565 11.055 2.565 10.8005V8.46701C2.565 7.19445 3.4783 6.23352 4.6625 6.23352H18.5686L16.0922 8.86567C16.0922 8.86569 16.0922 8.8657 16.0922 8.86571C15.7634 9.21482 15.7634 9.74212 16.0922 10.0912C16.4242 10.4437 16.9308 10.4437 17.2628 10.0912L20.8528 6.27907C20.9322 6.19473 20.9951 6.10722 21.0375 6.00591C21.0801 5.90432 21.1 5.79391 21.1 5.6663C21.1 5.48963 21.0196 5.23098 20.8532 5.05397C20.8531 5.05382 20.8529 5.05367 20.8528 5.05353L17.2635 1.16512L17.2628 1.16439C16.9308 0.811869 16.4242 0.811869 16.0922 1.16439C15.7634 1.5135 15.7634 2.04082 16.0922 2.38993L18.0585 4.47787Z" fill="white" stroke="white" stroke-width="0.2"/>
</svg>
