<svg width="340" height="74" viewBox="0 0 340 74" fill="none" xmlns="http://www.w3.org/2000/svg">
<g clip-path="url(#clip0_23310_11214)">
<rect width="340" height="74" rx="12" fill="url(#paint0_linear_23310_11214)"/>
<g opacity="0.1" clip-path="url(#clip1_23310_11214)">
<path d="M338.848 79.4343C333.705 100.327 312.813 113.042 292.183 107.832C271.562 102.624 259.008 81.461 264.153 60.5697C269.293 39.6743 290.186 26.9583 310.809 32.167C331.438 37.3757 343.991 58.5406 338.847 79.4347L338.848 79.4343H338.848Z" fill="white"/>
<ellipse cx="10.7612" cy="10.6545" rx="10.7612" ry="10.6545" transform="matrix(0.985835 -0.166854 0.170264 0.985548 279.172 59.8145)" fill="black"/>
<path d="M316.511 50.1136C317.575 51.1105 318.621 52.12 319.561 53.2387C325.92 60.8081 327.296 71.6645 322.997 80.5309C320.156 86.3922 315.716 90.6503 309.682 93.1926C304.344 95.443 298.81 95.8394 293.158 94.4489C293.064 94.4255 292.975 94.3929 292.866 94.303C299.926 94.0925 306.073 91.697 311.048 86.7316C316.028 81.7642 318.592 75.7204 318.6 68.6926C318.608 62.9597 316.84 57.7702 313.324 53.1973C309.821 48.6355 305.228 45.6114 299.676 43.9894C299.781 43.7871 299.927 43.8558 300.04 43.8589C302.952 43.9141 305.77 44.4497 308.5 45.4535C310.032 46.0174 311.491 46.7226 312.893 47.5528C312.962 47.5928 313.043 47.6123 313.119 47.6426L316.509 50.114L316.511 50.1136Z" fill="black"/>
</g>
<rect x="16" y="16" width="42" height="42" rx="21" fill="#09090A"/>
<ellipse cx="5.84584" cy="5.84649" rx="5.84584" ry="5.84649" transform="matrix(0.987189 -0.158652 0.179029 0.983993 24 31.8545)" fill="url(#paint1_linear_23310_11214)"/>
<path d="M45.0998 26.5821C45.7133 27.1283 46.3171 27.6813 46.8595 28.2942C50.5281 32.4413 51.322 38.3891 48.8418 43.2468C47.2024 46.458 44.641 48.7909 41.1593 50.1837C38.0793 51.4167 34.8862 51.6338 31.6252 50.872C31.5713 50.8592 31.5198 50.8413 31.4566 50.7921C35.53 50.6767 39.0767 49.3643 41.9477 46.644C44.8209 43.9225 46.3002 40.6112 46.3049 36.7609C46.3094 33.62 45.2891 30.7769 43.2608 28.2715C41.2393 25.7723 38.5896 24.1155 35.3859 23.2268C35.4466 23.116 35.5306 23.1536 35.5961 23.1553C37.2759 23.1856 38.9022 23.479 40.4773 24.029C41.3611 24.3379 42.2032 24.7243 43.012 25.1791C43.0515 25.201 43.0985 25.2117 43.1422 25.2283L45.0982 26.5823L45.0998 26.5821Z" fill="url(#paint2_linear_23310_11214)"/>
<path d="M79.2074 33.3438C79.1278 32.5994 78.7926 32.0199 78.2017 31.6051C77.6165 31.1903 76.8551 30.983 75.9176 30.983C75.2585 30.983 74.6932 31.0824 74.2216 31.2812C73.75 31.4801 73.3892 31.75 73.1392 32.0909C72.8892 32.4318 72.7614 32.821 72.7557 33.2585C72.7557 33.6222 72.8381 33.9375 73.0028 34.2045C73.1733 34.4716 73.4034 34.6989 73.6932 34.8864C73.983 35.0682 74.304 35.2216 74.6562 35.3466C75.0085 35.4716 75.3636 35.5767 75.7216 35.6619L77.358 36.071C78.017 36.2244 78.6506 36.4318 79.2585 36.6932C79.8722 36.9545 80.4205 37.2841 80.9034 37.6818C81.392 38.0795 81.7784 38.5597 82.0625 39.1222C82.3466 39.6847 82.4886 40.3437 82.4886 41.0994C82.4886 42.1222 82.2273 43.0227 81.7045 43.8011C81.1818 44.5739 80.4261 45.179 79.4375 45.6165C78.4545 46.0483 77.2642 46.2642 75.8665 46.2642C74.5085 46.2642 73.3295 46.054 72.3295 45.6335C71.3352 45.2131 70.5568 44.5994 69.9943 43.7926C69.4375 42.9858 69.1364 42.0028 69.0909 40.8438H72.2017C72.2472 41.4517 72.4347 41.9574 72.7642 42.3608C73.0938 42.7642 73.5227 43.0653 74.0511 43.2642C74.5852 43.4631 75.1818 43.5625 75.8409 43.5625C76.5284 43.5625 77.1307 43.4602 77.6477 43.2557C78.1705 43.0455 78.5795 42.7557 78.875 42.3864C79.1705 42.0114 79.321 41.5739 79.3267 41.0739C79.321 40.6193 79.1875 40.2443 78.9261 39.9489C78.6648 39.6477 78.2983 39.3977 77.8267 39.1989C77.3608 38.9943 76.8153 38.8125 76.1903 38.6534L74.2045 38.142C72.767 37.7727 71.6307 37.2131 70.7955 36.4631C69.9659 35.7074 69.5511 34.7045 69.5511 33.4545C69.5511 32.4261 69.8295 31.5256 70.3864 30.7528C70.9489 29.9801 71.7131 29.3807 72.679 28.9545C73.6449 28.5227 74.7386 28.3068 75.9602 28.3068C77.1989 28.3068 78.2841 28.5227 79.2159 28.9545C80.1534 29.3807 80.8892 29.9744 81.4233 30.7358C81.9574 31.4915 82.233 32.3608 82.25 33.3438H79.2074ZM85.1712 46V32.9091H88.2564V46H85.1712ZM86.7223 31.0511C86.2337 31.0511 85.8132 30.8892 85.4609 30.5653C85.1087 30.2358 84.9325 29.8409 84.9325 29.3807C84.9325 28.9148 85.1087 28.5199 85.4609 28.196C85.8132 27.8665 86.2337 27.7017 86.7223 27.7017C87.2166 27.7017 87.6371 27.8665 87.9837 28.196C88.3359 28.5199 88.5121 28.9148 88.5121 29.3807C88.5121 29.8409 88.3359 30.2358 87.9837 30.5653C87.6371 30.8892 87.2166 31.0511 86.7223 31.0511ZM96.2869 46.2301C95.2585 46.2301 94.3381 45.9659 93.5256 45.4375C92.7131 44.9091 92.071 44.142 91.5994 43.1364C91.1278 42.1307 90.892 40.9091 90.892 39.4716C90.892 38.017 91.1307 36.7898 91.608 35.7898C92.0909 34.7841 92.7415 34.0256 93.5597 33.5142C94.3778 32.9972 95.2898 32.7386 96.2955 32.7386C97.0625 32.7386 97.6932 32.8693 98.1875 33.1307C98.6818 33.3864 99.0739 33.696 99.3636 34.0597C99.6534 34.4176 99.8778 34.7557 100.037 35.0739H100.165V28.5455H103.259V46H100.224V43.9375H100.037C99.8778 44.2557 99.6477 44.5937 99.3466 44.9517C99.0455 45.304 98.6477 45.6051 98.1534 45.8551C97.6591 46.1051 97.0369 46.2301 96.2869 46.2301ZM97.1477 43.6989C97.8011 43.6989 98.358 43.5227 98.8182 43.1705C99.2784 42.8125 99.6278 42.3153 99.8665 41.679C100.105 41.0426 100.224 40.3011 100.224 39.4545C100.224 38.608 100.105 37.8722 99.8665 37.2472C99.6335 36.6222 99.2869 36.1364 98.8267 35.7898C98.3722 35.4432 97.8125 35.2699 97.1477 35.2699C96.4602 35.2699 95.8864 35.4489 95.4261 35.8068C94.9659 36.1648 94.6193 36.6591 94.3864 37.2898C94.1534 37.9205 94.0369 38.642 94.0369 39.4545C94.0369 40.2727 94.1534 41.0028 94.3864 41.6449C94.625 42.2812 94.9744 42.7841 95.4347 43.1534C95.9006 43.517 96.4716 43.6989 97.1477 43.6989ZM112.342 46.2557C111.029 46.2557 109.896 45.983 108.941 45.4375C107.992 44.8864 107.262 44.108 106.751 43.1023C106.239 42.0909 105.984 40.9006 105.984 39.5312C105.984 38.1847 106.239 37.0028 106.751 35.9858C107.268 34.9631 107.989 34.1676 108.915 33.5994C109.842 33.0256 110.93 32.7386 112.18 32.7386C112.987 32.7386 113.748 32.8693 114.464 33.1307C115.185 33.3864 115.822 33.7841 116.373 34.3239C116.93 34.8636 117.367 35.5511 117.685 36.3864C118.004 37.2159 118.163 38.2045 118.163 39.3523V40.2983H107.433V38.2188H115.205C115.2 37.6278 115.072 37.1023 114.822 36.642C114.572 36.1761 114.222 35.8097 113.773 35.5426C113.33 35.2756 112.813 35.142 112.222 35.142C111.592 35.142 111.038 35.2955 110.56 35.6023C110.083 35.9034 109.711 36.3011 109.444 36.7955C109.183 37.2841 109.049 37.821 109.043 38.4062V40.2216C109.043 40.983 109.183 41.6364 109.461 42.1818C109.739 42.7216 110.129 43.1364 110.629 43.4261C111.129 43.7102 111.714 43.8523 112.384 43.8523C112.833 43.8523 113.239 43.7898 113.603 43.6648C113.967 43.5341 114.282 43.3438 114.549 43.0938C114.816 42.8438 115.018 42.5341 115.154 42.1648L118.035 42.4886C117.853 43.25 117.506 43.9148 116.995 44.483C116.489 45.0455 115.842 45.483 115.052 45.7955C114.262 46.1023 113.359 46.2557 112.342 46.2557ZM141.803 34.4347H138.615C138.524 33.9119 138.357 33.4489 138.112 33.0455C137.868 32.6364 137.564 32.2898 137.2 32.0057C136.837 31.7216 136.422 31.5085 135.956 31.3665C135.496 31.2188 134.999 31.1449 134.464 31.1449C133.516 31.1449 132.675 31.3835 131.942 31.8608C131.209 32.3324 130.635 33.0256 130.22 33.9403C129.805 34.8494 129.598 35.9602 129.598 37.2727C129.598 38.608 129.805 39.733 130.22 40.6477C130.641 41.5568 131.214 42.2443 131.942 42.7102C132.675 43.1705 133.513 43.4006 134.456 43.4006C134.979 43.4006 135.467 43.3324 135.922 43.196C136.382 43.054 136.794 42.8466 137.158 42.5739C137.527 42.3011 137.837 41.9659 138.087 41.5682C138.342 41.1705 138.518 40.7159 138.615 40.2045L141.803 40.2216C141.683 41.0511 141.425 41.8295 141.027 42.5568C140.635 43.2841 140.121 43.9261 139.484 44.483C138.848 45.0341 138.104 45.4659 137.251 45.7784C136.399 46.0852 135.453 46.2386 134.413 46.2386C132.879 46.2386 131.51 45.8835 130.305 45.1733C129.101 44.4631 128.152 43.4375 127.459 42.0966C126.766 40.7557 126.419 39.1477 126.419 37.2727C126.419 35.392 126.768 33.7841 127.467 32.4489C128.166 31.108 129.118 30.0824 130.322 29.3722C131.527 28.6619 132.891 28.3068 134.413 28.3068C135.385 28.3068 136.288 28.4432 137.124 28.7159C137.959 28.9886 138.703 29.3892 139.357 29.9176C140.01 30.4403 140.547 31.0824 140.967 31.8438C141.393 32.5994 141.672 33.4631 141.803 34.4347ZM147.647 38.3295V46H144.562V28.5455H147.579V35.1335H147.732C148.039 34.3949 148.513 33.8125 149.156 33.3864C149.803 32.9545 150.627 32.7386 151.627 32.7386C152.536 32.7386 153.329 32.929 154.005 33.3097C154.681 33.6903 155.204 34.2472 155.573 34.9801C155.948 35.7131 156.136 36.608 156.136 37.6648V46H153.05V38.142C153.05 37.2614 152.823 36.5767 152.369 36.0881C151.92 35.5937 151.289 35.3466 150.477 35.3466C149.931 35.3466 149.442 35.4659 149.011 35.7045C148.585 35.9375 148.249 36.2756 148.005 36.7188C147.766 37.1619 147.647 37.6989 147.647 38.3295ZM163.048 46.2642C162.218 46.2642 161.471 46.1165 160.806 45.821C160.147 45.5199 159.624 45.0767 159.238 44.4915C158.857 43.9062 158.667 43.1847 158.667 42.3267C158.667 41.5881 158.803 40.9773 159.076 40.4943C159.349 40.0114 159.721 39.625 160.192 39.3352C160.664 39.0455 161.195 38.8267 161.786 38.679C162.383 38.5256 162.999 38.4148 163.636 38.3466C164.403 38.267 165.025 38.196 165.502 38.1335C165.979 38.0653 166.326 37.9631 166.542 37.8267C166.763 37.6847 166.874 37.4659 166.874 37.1705V37.1193C166.874 36.4773 166.684 35.9801 166.303 35.6278C165.923 35.2756 165.374 35.0994 164.658 35.0994C163.903 35.0994 163.303 35.2642 162.86 35.5938C162.423 35.9233 162.127 36.3125 161.974 36.7614L159.093 36.3523C159.32 35.5568 159.695 34.892 160.218 34.358C160.741 33.8182 161.38 33.4148 162.136 33.1477C162.891 32.875 163.727 32.7386 164.641 32.7386C165.272 32.7386 165.9 32.8125 166.525 32.9602C167.15 33.108 167.721 33.3523 168.238 33.6932C168.755 34.0284 169.17 34.4858 169.482 35.0653C169.8 35.6449 169.96 36.3693 169.96 37.2386V46H166.994V44.2017H166.891C166.704 44.5653 166.44 44.9062 166.099 45.2244C165.763 45.5369 165.34 45.7898 164.829 45.983C164.323 46.1705 163.729 46.2642 163.048 46.2642ZM163.849 43.9972C164.468 43.9972 165.005 43.875 165.46 43.6307C165.914 43.3807 166.263 43.0511 166.508 42.642C166.758 42.233 166.883 41.7869 166.883 41.304V39.7614C166.786 39.8409 166.621 39.9148 166.388 39.983C166.161 40.0511 165.906 40.1108 165.621 40.1619C165.337 40.2131 165.056 40.2585 164.778 40.2983C164.499 40.3381 164.258 40.3722 164.053 40.4006C163.593 40.4631 163.181 40.5653 162.817 40.7074C162.454 40.8494 162.167 41.0483 161.957 41.304C161.746 41.554 161.641 41.8778 161.641 42.2756C161.641 42.8438 161.849 43.2727 162.263 43.5625C162.678 43.8523 163.207 43.9972 163.849 43.9972ZM173.062 46V32.9091H176.147V46H173.062ZM174.613 31.0511C174.124 31.0511 173.704 30.8892 173.352 30.5653C172.999 30.2358 172.823 29.8409 172.823 29.3807C172.823 28.9148 172.999 28.5199 173.352 28.196C173.704 27.8665 174.124 27.7017 174.613 27.7017C175.107 27.7017 175.528 27.8665 175.874 28.196C176.227 28.5199 176.403 28.9148 176.403 29.3807C176.403 29.8409 176.227 30.2358 175.874 30.5653C175.528 30.8892 175.107 31.0511 174.613 31.0511ZM182.405 38.3295V46H179.32V32.9091H182.268V35.1335H182.422C182.723 34.4006 183.203 33.8182 183.862 33.3864C184.527 32.9545 185.348 32.7386 186.325 32.7386C187.229 32.7386 188.016 32.9318 188.686 33.3182C189.362 33.7045 189.885 34.2642 190.254 34.9972C190.629 35.7301 190.814 36.6193 190.808 37.6648V46H187.723V38.142C187.723 37.267 187.496 36.5824 187.041 36.0881C186.592 35.5937 185.97 35.3466 185.175 35.3466C184.635 35.3466 184.155 35.4659 183.734 35.7045C183.32 35.9375 182.993 36.2756 182.754 36.7188C182.521 37.1619 182.405 37.6989 182.405 38.3295Z" fill="white"/>
</g>
<defs>
<linearGradient id="paint0_linear_23310_11214" x1="0" y1="37" x2="434.5" y2="37" gradientUnits="userSpaceOnUse">
<stop stop-color="#F7771A"/>
<stop offset="1" stop-color="#91460F"/>
</linearGradient>
<linearGradient id="paint1_linear_23310_11214" x1="8.05855" y1="12.7649" x2="6.54617" y2="-0.0824409" gradientUnits="userSpaceOnUse">
<stop stop-color="#F7771A"/>
<stop offset="1" stop-color="#E95228"/>
</linearGradient>
<linearGradient id="paint2_linear_23310_11214" x1="44.607" y1="23.1555" x2="30.9596" y2="50.1869" gradientUnits="userSpaceOnUse">
<stop stop-color="#F7771A"/>
<stop offset="1" stop-color="#E95228"/>
</linearGradient>
<clipPath id="clip0_23310_11214">
<rect width="340" height="74" rx="12" fill="white"/>
</clipPath>
<clipPath id="clip1_23310_11214">
<rect width="77" height="78" fill="white" transform="translate(263 31)"/>
</clipPath>
</defs>
</svg>
