<svg width="340" height="74" viewBox="0 0 340 74" fill="none" xmlns="http://www.w3.org/2000/svg">
<g clip-path="url(#clip0_5273_2388)">
<rect width="340" height="74" rx="12" fill="url(#paint0_linear_5273_2388)"/>
<g opacity="0.1" clip-path="url(#clip1_5273_2388)">
<path d="M338.848 79.4343C333.705 100.327 312.813 113.042 292.183 107.832C271.562 102.624 259.008 81.461 264.153 60.5697C269.293 39.6743 290.186 26.9583 310.809 32.167C331.438 37.3757 343.99 58.5406 338.847 79.4347L338.848 79.4343H338.848Z" fill="white"/>
<ellipse cx="10.7612" cy="10.6545" rx="10.7612" ry="10.6545" transform="matrix(0.985835 -0.166854 0.170264 0.985548 279.171 59.8149)" fill="black"/>
<path d="M316.509 50.1141C317.572 51.111 318.619 52.1205 319.559 53.2392C325.917 60.8086 327.293 71.665 322.994 80.5314C320.153 86.3927 315.714 90.6508 309.679 93.1931C304.341 95.4435 298.807 95.8399 293.155 94.4494C293.062 94.426 292.973 94.3934 292.863 94.3035C299.923 94.093 306.07 91.6975 311.046 86.7321C316.025 81.7647 318.589 75.7208 318.597 68.6931C318.605 62.9602 316.837 57.7706 313.322 53.1978C309.818 48.636 305.226 45.6119 299.673 43.9898C299.778 43.7876 299.924 43.8563 300.038 43.8594C302.949 43.9146 305.767 44.4502 308.497 45.454C310.029 46.0178 311.489 46.7231 312.89 47.5533C312.959 47.5933 313.04 47.6128 313.116 47.6431L316.506 50.1145L316.509 50.1141Z" fill="black"/>
</g>
<rect x="16" y="16" width="42" height="42" rx="21" fill="#09090A"/>
<ellipse cx="6.20055" cy="5.84649" rx="6.20055" ry="5.84649" transform="matrix(0.987189 -0.158652 0.179029 0.983993 23.5605 31.8975)" fill="white"/>
<path d="M45.1037 26.5826C45.7172 27.1287 46.321 27.6818 46.8634 28.2947C50.532 32.4418 51.3259 38.3896 48.8458 43.2472C47.2063 46.4585 44.6449 48.7914 41.1632 50.1842C38.0832 51.4172 34.8901 51.6343 31.6292 50.8725C31.5752 50.8597 31.5237 50.8418 31.4605 50.7926C35.5339 50.6772 39.0806 49.3648 41.9516 46.6445C44.8248 43.923 46.3041 40.6117 46.3088 36.7614C46.3133 33.6205 45.2931 30.7774 43.2647 28.272C41.2432 25.7728 38.5935 24.1159 35.3898 23.2273C35.4505 23.1165 35.5345 23.1541 35.6 23.1558C37.2798 23.1861 38.9061 23.4795 40.4812 24.0294C41.3651 24.3384 42.2071 24.7248 43.0159 25.1796C43.0555 25.2015 43.1024 25.2122 43.1461 25.2288L45.1021 26.5828L45.1037 26.5826Z" fill="white"/>
<path d="M74.48 43.16C73.9733 43.16 73.4133 43.1467 72.8 43.12C72.2 43.0933 71.6133 43.0533 71.04 43C70.4667 42.96 69.94 42.9133 69.46 42.86V40.6C69.9533 40.64 70.4533 40.68 70.96 40.72C71.48 40.76 71.9733 40.7933 72.44 40.82C72.9067 40.8333 73.3067 40.84 73.64 40.84C74.32 40.84 74.8467 40.8133 75.22 40.76C75.5933 40.6933 75.8733 40.6 76.06 40.48C76.2067 40.3733 76.3067 40.26 76.36 40.14C76.4133 40.0067 76.4467 39.8533 76.46 39.68C76.4733 39.4933 76.48 39.2867 76.48 39.06C76.48 38.7533 76.46 38.5 76.42 38.3C76.3933 38.1 76.34 37.9467 76.26 37.84C76.18 37.72 76.0467 37.6333 75.86 37.58C75.6867 37.5267 75.46 37.4867 75.18 37.46L72.1 37.08C71.4867 37 70.98 36.86 70.58 36.66C70.1933 36.46 69.8867 36.1933 69.66 35.86C69.4333 35.5267 69.2733 35.1333 69.18 34.68C69.1 34.2267 69.06 33.7133 69.06 33.14C69.06 32.2333 69.1867 31.5133 69.44 30.98C69.6933 30.4467 70.0467 30.04 70.5 29.76C70.9667 29.48 71.5133 29.3 72.14 29.22C72.7667 29.1267 73.4467 29.08 74.18 29.08C74.7133 29.08 75.26 29.1 75.82 29.14C76.38 29.1667 76.9067 29.2067 77.4 29.26C77.8933 29.3133 78.3067 29.38 78.64 29.46V31.66C78.3067 31.6067 77.92 31.56 77.48 31.52C77.04 31.48 76.58 31.4533 76.1 31.44C75.62 31.4133 75.1667 31.4 74.74 31.4C74.1133 31.4 73.6133 31.4267 73.24 31.48C72.88 31.52 72.6 31.5933 72.4 31.7C72.1733 31.8333 72.0333 32.0067 71.98 32.22C71.94 32.4333 71.92 32.7 71.92 33.02C71.92 33.42 71.9467 33.7267 72 33.94C72.0533 34.14 72.18 34.28 72.38 34.36C72.58 34.44 72.8933 34.5067 73.32 34.56L76.4 34.92C76.7733 34.96 77.12 35.0267 77.44 35.12C77.76 35.2133 78.0467 35.36 78.3 35.56C78.5533 35.76 78.76 36.04 78.92 36.4C79.0133 36.5867 79.0867 36.8067 79.14 37.06C79.1933 37.3 79.2333 37.5733 79.26 37.88C79.3 38.1867 79.32 38.5267 79.32 38.9C79.32 39.6733 79.24 40.32 79.08 40.84C78.9333 41.36 78.72 41.7733 78.44 42.08C78.16 42.3867 77.8133 42.62 77.4 42.78C77 42.94 76.5533 43.04 76.06 43.08C75.5667 43.1333 75.04 43.16 74.48 43.16ZM81.7823 30.5V28.14H84.5223V30.5H81.7823ZM81.8223 43V32.8H84.4823V43H81.8223ZM90.4502 43.16C89.8235 43.16 89.2902 43.08 88.8502 42.92C88.4102 42.7467 88.0502 42.4667 87.7702 42.08C87.4902 41.68 87.2835 41.14 87.1502 40.46C87.0302 39.78 86.9702 38.9333 86.9702 37.92C86.9702 36.9067 87.0302 36.06 87.1502 35.38C87.2702 34.7 87.4635 34.16 87.7302 33.76C88.0102 33.36 88.3635 33.0733 88.7902 32.9C89.2302 32.7267 89.7635 32.64 90.3902 32.64C90.8302 32.64 91.2368 32.68 91.6102 32.76C91.9968 32.8267 92.3368 32.9533 92.6302 33.14C92.9368 33.3133 93.1902 33.5733 93.3902 33.92H93.5502V28.14H96.1902V43H93.7102L93.6302 41.74H93.4902C93.2902 42.14 93.0235 42.44 92.6902 42.64C92.3702 42.84 92.0168 42.9733 91.6302 43.04C91.2435 43.12 90.8502 43.16 90.4502 43.16ZM91.5902 40.88C92.0835 40.88 92.4568 40.82 92.7102 40.7C92.9768 40.5667 93.1702 40.36 93.2902 40.08C93.3968 39.8133 93.4635 39.5 93.4902 39.14C93.5302 38.78 93.5502 38.3667 93.5502 37.9C93.5502 37.42 93.5302 37.0067 93.4902 36.66C93.4635 36.3133 93.3968 36.02 93.2902 35.78C93.1702 35.4733 92.9768 35.26 92.7102 35.14C92.4568 35.0067 92.0835 34.94 91.5902 34.94C91.1502 34.94 90.7968 34.9733 90.5302 35.04C90.2635 35.0933 90.0635 35.22 89.9302 35.42C89.8102 35.6067 89.7302 35.9 89.6902 36.3C89.6502 36.6867 89.6302 37.22 89.6302 37.9C89.6302 38.58 89.6502 39.12 89.6902 39.52C89.7302 39.92 89.8102 40.22 89.9302 40.42C90.0635 40.6067 90.2635 40.7333 90.5302 40.8C90.7968 40.8533 91.1502 40.88 91.5902 40.88ZM103.569 43.16C102.663 43.16 101.909 43.1 101.309 42.98C100.709 42.86 100.229 42.6733 99.8694 42.42C99.5227 42.1533 99.256 41.82 99.0694 41.42C98.896 41.0067 98.7827 40.5133 98.7294 39.94C98.6894 39.3533 98.6694 38.68 98.6694 37.92C98.6694 37.0133 98.716 36.2267 98.8094 35.56C98.9027 34.8933 99.096 34.3467 99.3894 33.92C99.696 33.48 100.163 33.16 100.789 32.96C101.429 32.7467 102.276 32.64 103.329 32.64C104.183 32.64 104.876 32.7067 105.409 32.84C105.943 32.9733 106.363 33.1733 106.669 33.44C106.989 33.7067 107.216 34.0533 107.349 34.48C107.496 34.8933 107.589 35.3867 107.629 35.96C107.669 36.5333 107.689 37.1867 107.689 37.92V38.7H101.309C101.309 39.2067 101.329 39.62 101.369 39.94C101.423 40.2467 101.536 40.48 101.709 40.64C101.896 40.8 102.183 40.9067 102.569 40.96C102.969 41.0133 103.509 41.04 104.189 41.04C104.469 41.04 104.783 41.0333 105.129 41.02C105.489 41.0067 105.856 40.9867 106.229 40.96C106.616 40.9333 106.969 40.9067 107.289 40.88V42.84C106.996 42.9067 106.636 42.96 106.209 43C105.796 43.0533 105.356 43.0933 104.889 43.12C104.436 43.1467 103.996 43.16 103.569 43.16ZM105.169 37.38V37.06C105.169 36.54 105.136 36.1267 105.069 35.82C105.016 35.5 104.916 35.26 104.769 35.1C104.636 34.94 104.449 34.84 104.209 34.8C103.969 34.7467 103.663 34.72 103.289 34.72C102.849 34.72 102.503 34.7533 102.249 34.82C101.996 34.8733 101.803 34.9867 101.669 35.16C101.536 35.32 101.443 35.56 101.389 35.88C101.336 36.1867 101.309 36.58 101.309 37.06H105.529L105.169 37.38ZM120.664 43.16C119.65 43.16 118.804 43.0933 118.124 42.96C117.444 42.8267 116.89 42.6 116.464 42.28C116.037 41.96 115.71 41.5333 115.484 41C115.27 40.4667 115.124 39.8 115.044 39C114.964 38.2 114.924 37.24 114.924 36.12C114.924 35 114.964 34.04 115.044 33.24C115.124 32.44 115.27 31.7733 115.484 31.24C115.71 30.7067 116.037 30.28 116.464 29.96C116.89 29.64 117.444 29.4133 118.124 29.28C118.804 29.1467 119.65 29.08 120.664 29.08C121.05 29.08 121.45 29.0933 121.864 29.12C122.29 29.1467 122.697 29.1867 123.084 29.24C123.47 29.2933 123.797 29.3533 124.064 29.42V31.6C123.704 31.56 123.357 31.5267 123.024 31.5C122.69 31.46 122.377 31.4333 122.084 31.42C121.804 31.4067 121.564 31.4 121.364 31.4C120.684 31.4 120.124 31.4267 119.684 31.48C119.244 31.5333 118.89 31.6467 118.624 31.82C118.37 31.98 118.184 32.2333 118.064 32.58C117.944 32.9133 117.864 33.3667 117.824 33.94C117.784 34.5133 117.764 35.24 117.764 36.12C117.764 36.9867 117.784 37.7133 117.824 38.3C117.864 38.8733 117.944 39.3333 118.064 39.68C118.184 40.0133 118.37 40.2667 118.624 40.44C118.89 40.6 119.244 40.7067 119.684 40.76C120.124 40.8133 120.684 40.84 121.364 40.84C121.804 40.84 122.284 40.82 122.804 40.78C123.324 40.74 123.77 40.6933 124.144 40.64V42.86C123.85 42.9133 123.504 42.96 123.104 43C122.704 43.0533 122.29 43.0933 121.864 43.12C121.45 43.1467 121.05 43.16 120.664 43.16ZM126.529 43V28.14H129.169V34H129.329C129.503 33.68 129.729 33.42 130.009 33.22C130.289 33.02 130.623 32.88 131.009 32.8C131.396 32.7067 131.836 32.66 132.329 32.66C133.023 32.66 133.583 32.7467 134.009 32.92C134.436 33.08 134.763 33.3267 134.989 33.66C135.216 33.9933 135.363 34.4067 135.429 34.9C135.509 35.3933 135.549 35.9667 135.549 36.62V43H132.909V37.6C132.909 36.9867 132.889 36.5 132.849 36.14C132.809 35.78 132.729 35.5133 132.609 35.34C132.489 35.1667 132.309 35.06 132.069 35.02C131.829 34.9667 131.509 34.94 131.109 34.94C130.683 34.94 130.336 34.9933 130.069 35.1C129.816 35.1933 129.623 35.3533 129.489 35.58C129.369 35.7933 129.283 36.08 129.229 36.44C129.189 36.7867 129.169 37.2133 129.169 37.72V43H126.529ZM140.885 43.16C140.232 43.16 139.678 43.0667 139.225 42.88C138.772 42.68 138.425 42.36 138.185 41.92C137.958 41.4667 137.845 40.8733 137.845 40.14C137.845 39.3533 137.938 38.7333 138.125 38.28C138.312 37.8133 138.638 37.48 139.105 37.28C139.572 37.0667 140.218 36.96 141.045 36.96C141.178 36.96 141.365 36.9667 141.605 36.98C141.845 36.98 142.118 36.9867 142.425 37C142.732 37 143.038 37.0067 143.345 37.02C143.652 37.02 143.932 37.0267 144.185 37.04V36.64C144.185 36.2 144.152 35.8533 144.085 35.6C144.018 35.3467 143.892 35.16 143.705 35.04C143.518 34.92 143.245 34.8467 142.885 34.82C142.525 34.7933 142.058 34.78 141.485 34.78C141.192 34.78 140.852 34.7867 140.465 34.8C140.078 34.8133 139.705 34.8333 139.345 34.86C138.985 34.8867 138.698 34.9133 138.485 34.94V32.94C139.058 32.8467 139.678 32.7733 140.345 32.72C141.012 32.6667 141.685 32.64 142.365 32.64C143.165 32.64 143.832 32.6933 144.365 32.8C144.912 32.8933 145.345 33.0467 145.665 33.26C145.998 33.4733 146.245 33.7467 146.405 34.08C146.578 34.4 146.692 34.7867 146.745 35.24C146.798 35.68 146.825 36.1867 146.825 36.76V43H144.365L144.285 41.76H144.125C143.898 42.1733 143.598 42.48 143.225 42.68C142.865 42.88 142.478 43.0067 142.065 43.06C141.665 43.1267 141.272 43.16 140.885 43.16ZM142.145 41.12C142.438 41.12 142.692 41.1 142.905 41.06C143.132 41.02 143.325 40.9533 143.485 40.86C143.658 40.7533 143.792 40.62 143.885 40.46C143.978 40.2867 144.052 40.0733 144.105 39.82C144.158 39.5667 144.185 39.26 144.185 38.9V38.6H141.765C141.392 38.6 141.105 38.6267 140.905 38.68C140.705 38.7333 140.572 38.8533 140.505 39.04C140.438 39.2267 140.405 39.5067 140.405 39.88C140.405 40.2267 140.445 40.4933 140.525 40.68C140.605 40.8533 140.772 40.9733 141.025 41.04C141.278 41.0933 141.652 41.12 142.145 41.12ZM149.653 30.5V28.14H152.393V30.5H149.653ZM149.693 43V32.8H152.353V43H149.693ZM155.201 43V32.8H157.681L157.761 34.08H157.921C158.108 33.7467 158.335 33.4733 158.601 33.26C158.881 33.0467 159.221 32.8933 159.621 32.8C160.035 32.6933 160.501 32.64 161.021 32.64C161.715 32.64 162.268 32.7267 162.681 32.9C163.108 33.0733 163.435 33.3267 163.661 33.66C163.888 33.9933 164.035 34.4067 164.101 34.9C164.181 35.3933 164.221 35.9667 164.221 36.62V43H161.581V37.6C161.581 36.9867 161.561 36.5 161.521 36.14C161.481 35.78 161.401 35.5133 161.281 35.34C161.161 35.1667 160.981 35.06 160.741 35.02C160.501 34.9667 160.181 34.94 159.781 34.94C159.355 34.94 159.008 34.9933 158.741 35.1C158.488 35.1933 158.295 35.3533 158.161 35.58C158.041 35.7933 157.955 36.08 157.901 36.44C157.861 36.7867 157.841 37.2133 157.841 37.72V43H155.201Z" fill="white"/>
</g>
<defs>
<linearGradient id="paint0_linear_5273_2388" x1="0" y1="37" x2="434.5" y2="37" gradientUnits="userSpaceOnUse">
<stop stop-color="#F7771A"/>
<stop offset="1" stop-color="#91460F"/>
</linearGradient>
<clipPath id="clip0_5273_2388">
<rect width="340" height="74" rx="12" fill="white"/>
</clipPath>
<clipPath id="clip1_5273_2388">
<rect width="77" height="78" fill="white" transform="translate(263 31)"/>
</clipPath>
</defs>
</svg>
