<svg width="340" height="207" viewBox="0 0 340 207" fill="none" xmlns="http://www.w3.org/2000/svg">
<g clip-path="url(#clip0_6566_22620)">
<rect width="340" height="207" rx="24" fill="url(#paint0_linear_6566_22620)"/>
<g opacity="0.1" clip-path="url(#clip1_6566_22620)">
<ellipse cx="19.8418" cy="19.645" rx="19.8418" ry="19.645" transform="matrix(0.985835 -0.166854 0.170264 0.985548 241.378 158.536)" fill="black"/>
<path d="M310.222 140.648C312.183 142.486 314.112 144.347 315.846 146.41C327.569 160.367 330.106 180.384 322.181 196.732C316.941 207.539 308.756 215.39 297.63 220.078C287.787 224.227 277.583 224.958 267.163 222.394C266.99 222.351 266.826 222.291 266.624 222.125C279.641 221.737 290.975 217.32 300.149 208.165C309.331 199.006 314.058 187.862 314.073 174.904C314.088 164.334 310.827 154.765 304.346 146.334C297.886 137.923 289.418 132.347 279.181 129.356C279.374 128.983 279.643 129.11 279.852 129.116C285.22 129.217 290.417 130.205 295.451 132.056C298.275 133.095 300.966 134.396 303.551 135.926C303.677 136 303.827 136.036 303.967 136.092L310.217 140.649L310.222 140.648Z" fill="black"/>
</g>
<rect opacity="0.2" x="12" y="15" width="42" height="42" rx="21" fill="white"/>
<ellipse opacity="0.5" cx="6.20055" cy="5.84649" rx="6.20055" ry="5.84649" transform="matrix(0.987189 -0.158652 0.179029 0.983993 19.5605 30.8975)" fill="black"/>
<path opacity="0.5" d="M41.1037 25.5821C41.7172 26.1283 42.321 26.6813 42.8634 27.2942C46.532 31.4413 47.3259 37.3891 44.8458 42.2468C43.2063 45.458 40.6449 47.7909 37.1632 49.1837C34.0832 50.4167 30.8901 50.6338 27.6292 49.872C27.5752 49.8592 27.5237 49.8413 27.4605 49.7921C31.5339 49.6767 35.0806 48.3643 37.9516 45.644C40.8248 42.9225 42.3041 39.6112 42.3088 35.7609C42.3133 32.62 41.2931 29.7769 39.2647 27.2715C37.2432 24.7723 34.5935 23.1155 31.3898 22.2268C31.4505 22.116 31.5345 22.1536 31.6 22.1553C33.2798 22.1856 34.9061 22.479 36.4812 23.029C37.3651 23.3379 38.2071 23.7243 39.0159 24.1791C39.0555 24.201 39.1024 24.2117 39.1461 24.2283L41.1021 25.5823L41.1037 25.5821Z" fill="black"/>
<path d="M75.2074 32.3438C75.1278 31.5994 74.7926 31.0199 74.2017 30.6051C73.6165 30.1903 72.8551 29.983 71.9176 29.983C71.2585 29.983 70.6932 30.0824 70.2216 30.2812C69.75 30.4801 69.3892 30.75 69.1392 31.0909C68.8892 31.4318 68.7614 31.821 68.7557 32.2585C68.7557 32.6222 68.8381 32.9375 69.0028 33.2045C69.1733 33.4716 69.4034 33.6989 69.6932 33.8864C69.983 34.0682 70.304 34.2216 70.6562 34.3466C71.0085 34.4716 71.3636 34.5767 71.7216 34.6619L73.358 35.071C74.017 35.2244 74.6506 35.4318 75.2585 35.6932C75.8722 35.9545 76.4205 36.2841 76.9034 36.6818C77.392 37.0795 77.7784 37.5597 78.0625 38.1222C78.3466 38.6847 78.4886 39.3437 78.4886 40.0994C78.4886 41.1222 78.2273 42.0227 77.7045 42.8011C77.1818 43.5739 76.4261 44.179 75.4375 44.6165C74.4545 45.0483 73.2642 45.2642 71.8665 45.2642C70.5085 45.2642 69.3295 45.054 68.3295 44.6335C67.3352 44.2131 66.5568 43.5994 65.9943 42.7926C65.4375 41.9858 65.1364 41.0028 65.0909 39.8438H68.2017C68.2472 40.4517 68.4347 40.9574 68.7642 41.3608C69.0938 41.7642 69.5227 42.0653 70.0511 42.2642C70.5852 42.4631 71.1818 42.5625 71.8409 42.5625C72.5284 42.5625 73.1307 42.4602 73.6477 42.2557C74.1705 42.0455 74.5795 41.7557 74.875 41.3864C75.1705 41.0114 75.321 40.5739 75.3267 40.0739C75.321 39.6193 75.1875 39.2443 74.9261 38.9489C74.6648 38.6477 74.2983 38.3977 73.8267 38.1989C73.3608 37.9943 72.8153 37.8125 72.1903 37.6534L70.2045 37.142C68.767 36.7727 67.6307 36.2131 66.7955 35.4631C65.9659 34.7074 65.5511 33.7045 65.5511 32.4545C65.5511 31.4261 65.8295 30.5256 66.3864 29.7528C66.9489 28.9801 67.7131 28.3807 68.679 27.9545C69.6449 27.5227 70.7386 27.3068 71.9602 27.3068C73.1989 27.3068 74.2841 27.5227 75.2159 27.9545C76.1534 28.3807 76.8892 28.9744 77.4233 29.7358C77.9574 30.4915 78.233 31.3608 78.25 32.3438H75.2074ZM81.1712 45V31.9091H84.2564V45H81.1712ZM82.7223 30.0511C82.2337 30.0511 81.8132 29.8892 81.4609 29.5653C81.1087 29.2358 80.9325 28.8409 80.9325 28.3807C80.9325 27.9148 81.1087 27.5199 81.4609 27.196C81.8132 26.8665 82.2337 26.7017 82.7223 26.7017C83.2166 26.7017 83.6371 26.8665 83.9837 27.196C84.3359 27.5199 84.5121 27.9148 84.5121 28.3807C84.5121 28.8409 84.3359 29.2358 83.9837 29.5653C83.6371 29.8892 83.2166 30.0511 82.7223 30.0511ZM92.2869 45.2301C91.2585 45.2301 90.3381 44.9659 89.5256 44.4375C88.7131 43.9091 88.071 43.142 87.5994 42.1364C87.1278 41.1307 86.892 39.9091 86.892 38.4716C86.892 37.017 87.1307 35.7898 87.608 34.7898C88.0909 33.7841 88.7415 33.0256 89.5597 32.5142C90.3778 31.9972 91.2898 31.7386 92.2955 31.7386C93.0625 31.7386 93.6932 31.8693 94.1875 32.1307C94.6818 32.3864 95.0739 32.696 95.3636 33.0597C95.6534 33.4176 95.8778 33.7557 96.0369 34.0739H96.1648V27.5455H99.2585V45H96.2244V42.9375H96.0369C95.8778 43.2557 95.6477 43.5937 95.3466 43.9517C95.0455 44.304 94.6477 44.6051 94.1534 44.8551C93.6591 45.1051 93.0369 45.2301 92.2869 45.2301ZM93.1477 42.6989C93.8011 42.6989 94.358 42.5227 94.8182 42.1705C95.2784 41.8125 95.6278 41.3153 95.8665 40.679C96.1051 40.0426 96.2244 39.3011 96.2244 38.4545C96.2244 37.608 96.1051 36.8722 95.8665 36.2472C95.6335 35.6222 95.2869 35.1364 94.8267 34.7898C94.3722 34.4432 93.8125 34.2699 93.1477 34.2699C92.4602 34.2699 91.8864 34.4489 91.4261 34.8068C90.9659 35.1648 90.6193 35.6591 90.3864 36.2898C90.1534 36.9205 90.0369 37.642 90.0369 38.4545C90.0369 39.2727 90.1534 40.0028 90.3864 40.6449C90.625 41.2812 90.9744 41.7841 91.4347 42.1534C91.9006 42.517 92.4716 42.6989 93.1477 42.6989ZM108.342 45.2557C107.029 45.2557 105.896 44.983 104.941 44.4375C103.992 43.8864 103.262 43.108 102.751 42.1023C102.239 41.0909 101.984 39.9006 101.984 38.5312C101.984 37.1847 102.239 36.0028 102.751 34.9858C103.268 33.9631 103.989 33.1676 104.915 32.5994C105.842 32.0256 106.93 31.7386 108.18 31.7386C108.987 31.7386 109.748 31.8693 110.464 32.1307C111.185 32.3864 111.822 32.7841 112.373 33.3239C112.93 33.8636 113.367 34.5511 113.685 35.3864C114.004 36.2159 114.163 37.2045 114.163 38.3523V39.2983H103.433V37.2188H111.205C111.2 36.6278 111.072 36.1023 110.822 35.642C110.572 35.1761 110.222 34.8097 109.773 34.5426C109.33 34.2756 108.813 34.142 108.222 34.142C107.592 34.142 107.038 34.2955 106.56 34.6023C106.083 34.9034 105.711 35.3011 105.444 35.7955C105.183 36.2841 105.049 36.821 105.043 37.4062V39.2216C105.043 39.983 105.183 40.6364 105.461 41.1818C105.739 41.7216 106.129 42.1364 106.629 42.4261C107.129 42.7102 107.714 42.8523 108.384 42.8523C108.833 42.8523 109.239 42.7898 109.603 42.6648C109.967 42.5341 110.282 42.3438 110.549 42.0938C110.816 41.8438 111.018 41.5341 111.154 41.1648L114.035 41.4886C113.853 42.25 113.506 42.9148 112.995 43.483C112.489 44.0455 111.842 44.483 111.052 44.7955C110.262 45.1023 109.359 45.2557 108.342 45.2557ZM137.803 33.4347H134.615C134.524 32.9119 134.357 32.4489 134.112 32.0455C133.868 31.6364 133.564 31.2898 133.2 31.0057C132.837 30.7216 132.422 30.5085 131.956 30.3665C131.496 30.2188 130.999 30.1449 130.464 30.1449C129.516 30.1449 128.675 30.3835 127.942 30.8608C127.209 31.3324 126.635 32.0256 126.22 32.9403C125.805 33.8494 125.598 34.9602 125.598 36.2727C125.598 37.608 125.805 38.733 126.22 39.6477C126.641 40.5568 127.214 41.2443 127.942 41.7102C128.675 42.1705 129.513 42.4006 130.456 42.4006C130.979 42.4006 131.467 42.3324 131.922 42.196C132.382 42.054 132.794 41.8466 133.158 41.5739C133.527 41.3011 133.837 40.9659 134.087 40.5682C134.342 40.1705 134.518 39.7159 134.615 39.2045L137.803 39.2216C137.683 40.0511 137.425 40.8295 137.027 41.5568C136.635 42.2841 136.121 42.9261 135.484 43.483C134.848 44.0341 134.104 44.4659 133.251 44.7784C132.399 45.0852 131.453 45.2386 130.413 45.2386C128.879 45.2386 127.51 44.8835 126.305 44.1733C125.101 43.4631 124.152 42.4375 123.459 41.0966C122.766 39.7557 122.419 38.1477 122.419 36.2727C122.419 34.392 122.768 32.7841 123.467 31.4489C124.166 30.108 125.118 29.0824 126.322 28.3722C127.527 27.6619 128.891 27.3068 130.413 27.3068C131.385 27.3068 132.288 27.4432 133.124 27.7159C133.959 27.9886 134.703 28.3892 135.357 28.9176C136.01 29.4403 136.547 30.0824 136.967 30.8438C137.393 31.5994 137.672 32.4631 137.803 33.4347ZM143.647 37.3295V45H140.562V27.5455H143.579V34.1335H143.732C144.039 33.3949 144.513 32.8125 145.156 32.3864C145.803 31.9545 146.627 31.7386 147.627 31.7386C148.536 31.7386 149.329 31.929 150.005 32.3097C150.681 32.6903 151.204 33.2472 151.573 33.9801C151.948 34.7131 152.136 35.608 152.136 36.6648V45H149.05V37.142C149.05 36.2614 148.823 35.5767 148.369 35.0881C147.92 34.5937 147.289 34.3466 146.477 34.3466C145.931 34.3466 145.442 34.4659 145.011 34.7045C144.585 34.9375 144.249 35.2756 144.005 35.7188C143.766 36.1619 143.647 36.6989 143.647 37.3295ZM159.048 45.2642C158.218 45.2642 157.471 45.1165 156.806 44.821C156.147 44.5199 155.624 44.0767 155.238 43.4915C154.857 42.9062 154.667 42.1847 154.667 41.3267C154.667 40.5881 154.803 39.9773 155.076 39.4943C155.349 39.0114 155.721 38.625 156.192 38.3352C156.664 38.0455 157.195 37.8267 157.786 37.679C158.383 37.5256 158.999 37.4148 159.636 37.3466C160.403 37.267 161.025 37.196 161.502 37.1335C161.979 37.0653 162.326 36.9631 162.542 36.8267C162.763 36.6847 162.874 36.4659 162.874 36.1705V36.1193C162.874 35.4773 162.684 34.9801 162.303 34.6278C161.923 34.2756 161.374 34.0994 160.658 34.0994C159.903 34.0994 159.303 34.2642 158.86 34.5938C158.423 34.9233 158.127 35.3125 157.974 35.7614L155.093 35.3523C155.32 34.5568 155.695 33.892 156.218 33.358C156.741 32.8182 157.38 32.4148 158.136 32.1477C158.891 31.875 159.727 31.7386 160.641 31.7386C161.272 31.7386 161.9 31.8125 162.525 31.9602C163.15 32.108 163.721 32.3523 164.238 32.6932C164.755 33.0284 165.17 33.4858 165.482 34.0653C165.8 34.6449 165.96 35.3693 165.96 36.2386V45H162.994V43.2017H162.891C162.704 43.5653 162.44 43.9062 162.099 44.2244C161.763 44.5369 161.34 44.7898 160.829 44.983C160.323 45.1705 159.729 45.2642 159.048 45.2642ZM159.849 42.9972C160.468 42.9972 161.005 42.875 161.46 42.6307C161.914 42.3807 162.263 42.0511 162.508 41.642C162.758 41.233 162.883 40.7869 162.883 40.304V38.7614C162.786 38.8409 162.621 38.9148 162.388 38.983C162.161 39.0511 161.906 39.1108 161.621 39.1619C161.337 39.2131 161.056 39.2585 160.778 39.2983C160.499 39.3381 160.258 39.3722 160.053 39.4006C159.593 39.4631 159.181 39.5653 158.817 39.7074C158.454 39.8494 158.167 40.0483 157.957 40.304C157.746 40.554 157.641 40.8778 157.641 41.2756C157.641 41.8438 157.849 42.2727 158.263 42.5625C158.678 42.8523 159.207 42.9972 159.849 42.9972ZM169.062 45V31.9091H172.147V45H169.062ZM170.613 30.0511C170.124 30.0511 169.704 29.8892 169.352 29.5653C168.999 29.2358 168.823 28.8409 168.823 28.3807C168.823 27.9148 168.999 27.5199 169.352 27.196C169.704 26.8665 170.124 26.7017 170.613 26.7017C171.107 26.7017 171.528 26.8665 171.874 27.196C172.227 27.5199 172.403 27.9148 172.403 28.3807C172.403 28.8409 172.227 29.2358 171.874 29.5653C171.528 29.8892 171.107 30.0511 170.613 30.0511ZM178.405 37.3295V45H175.32V31.9091H178.268V34.1335H178.422C178.723 33.4006 179.203 32.8182 179.862 32.3864C180.527 31.9545 181.348 31.7386 182.325 31.7386C183.229 31.7386 184.016 31.9318 184.686 32.3182C185.362 32.7045 185.885 33.2642 186.254 33.9972C186.629 34.7301 186.814 35.6193 186.808 36.6648V45H183.723V37.142C183.723 36.267 183.496 35.5824 183.041 35.0881C182.592 34.5937 181.97 34.3466 181.175 34.3466C180.635 34.3466 180.155 34.4659 179.734 34.7045C179.32 34.9375 178.993 35.2756 178.754 35.7188C178.521 36.1619 178.405 36.6989 178.405 37.3295Z" fill="black"/>
</g>
<defs>
<linearGradient id="paint0_linear_6566_22620" x1="170" y1="207" x2="170" y2="0" gradientUnits="userSpaceOnUse">
<stop stop-color="#2E2E30"/>
<stop offset="1" stop-color="#909096"/>
</linearGradient>
<clipPath id="clip0_6566_22620">
<rect width="340" height="207" rx="24" fill="white"/>
</clipPath>
<clipPath id="clip1_6566_22620">
<rect width="109" height="110" fill="white" transform="translate(243 126)"/>
</clipPath>
</defs>
</svg>
