<svg width="340" height="74" viewBox="0 0 340 74" fill="none" xmlns="http://www.w3.org/2000/svg">
<g clip-path="url(#clip0_5273_2362)">
<rect width="340" height="74" rx="12" fill="#303030"/>
<g opacity="0.1" clip-path="url(#clip1_5273_2362)">
<path d="M338.848 79.4343C333.705 100.327 312.813 113.042 292.183 107.832C271.562 102.624 259.008 81.461 264.153 60.5697C269.293 39.6743 290.186 26.9583 310.809 32.167C331.438 37.3757 343.99 58.5406 338.847 79.4347L338.848 79.4343H338.848Z" fill="white"/>
<ellipse opacity="0.6" cx="10.7612" cy="10.6545" rx="10.7612" ry="10.6545" transform="matrix(0.985835 -0.166854 0.170264 0.985548 279.171 59.8149)" fill="black"/>
<path opacity="0.6" d="M316.509 50.1141C317.572 51.111 318.619 52.1205 319.559 53.2392C325.917 60.8086 327.293 71.665 322.994 80.5314C320.153 86.3927 315.714 90.6508 309.679 93.1931C304.341 95.4435 298.807 95.8399 293.155 94.4494C293.062 94.426 292.973 94.3934 292.863 94.3035C299.923 94.093 306.07 91.6975 311.046 86.7321C316.025 81.7647 318.589 75.7208 318.597 68.6931C318.605 62.9602 316.837 57.7706 313.322 53.1978C309.818 48.636 305.226 45.6119 299.673 43.9898C299.778 43.7876 299.924 43.8563 300.038 43.8594C302.949 43.9146 305.767 44.4502 308.497 45.454C310.029 46.0178 311.489 46.7231 312.89 47.5533C312.959 47.5933 313.04 47.6128 313.116 47.6431L316.506 50.1145L316.509 50.1141Z" fill="black"/>
</g>
<rect x="16" y="16" width="42" height="42" rx="21" fill="#AAAAAA"/>
<ellipse opacity="0.5" cx="6.20055" cy="5.84649" rx="6.20055" ry="5.84649" transform="matrix(0.987189 -0.158652 0.179029 0.983993 23.5605 31.8975)" fill="black"/>
<path opacity="0.5" d="M45.1037 26.5826C45.7172 27.1287 46.321 27.6818 46.8634 28.2947C50.532 32.4418 51.3259 38.3896 48.8458 43.2472C47.2063 46.4585 44.6449 48.7914 41.1632 50.1842C38.0832 51.4172 34.8901 51.6343 31.6292 50.8725C31.5752 50.8597 31.5237 50.8418 31.4605 50.7926C35.5339 50.6772 39.0806 49.3648 41.9516 46.6445C44.8248 43.923 46.3041 40.6117 46.3088 36.7614C46.3133 33.6205 45.2931 30.7774 43.2647 28.272C41.2432 25.7728 38.5935 24.1159 35.3898 23.2273C35.4505 23.1165 35.5345 23.1541 35.6 23.1558C37.2798 23.1861 38.9061 23.4795 40.4812 24.0294C41.3651 24.3384 42.2071 24.7248 43.0159 25.1796C43.0555 25.2015 43.1024 25.2122 43.1461 25.2288L45.1021 26.5828L45.1037 26.5826Z" fill="black"/>
<path d="M74.48 44.16C73.9733 44.16 73.4133 44.1467 72.8 44.12C72.2 44.0933 71.6133 44.0533 71.04 44C70.4667 43.96 69.94 43.9133 69.46 43.86V41.6C69.9533 41.64 70.4533 41.68 70.96 41.72C71.48 41.76 71.9733 41.7933 72.44 41.82C72.9067 41.8333 73.3067 41.84 73.64 41.84C74.32 41.84 74.8467 41.8133 75.22 41.76C75.5933 41.6933 75.8733 41.6 76.06 41.48C76.2067 41.3733 76.3067 41.26 76.36 41.14C76.4133 41.0067 76.4467 40.8533 76.46 40.68C76.4733 40.4933 76.48 40.2867 76.48 40.06C76.48 39.7533 76.46 39.5 76.42 39.3C76.3933 39.1 76.34 38.9467 76.26 38.84C76.18 38.72 76.0467 38.6333 75.86 38.58C75.6867 38.5267 75.46 38.4867 75.18 38.46L72.1 38.08C71.4867 38 70.98 37.86 70.58 37.66C70.1933 37.46 69.8867 37.1933 69.66 36.86C69.4333 36.5267 69.2733 36.1333 69.18 35.68C69.1 35.2267 69.06 34.7133 69.06 34.14C69.06 33.2333 69.1867 32.5133 69.44 31.98C69.6933 31.4467 70.0467 31.04 70.5 30.76C70.9667 30.48 71.5133 30.3 72.14 30.22C72.7667 30.1267 73.4467 30.08 74.18 30.08C74.7133 30.08 75.26 30.1 75.82 30.14C76.38 30.1667 76.9067 30.2067 77.4 30.26C77.8933 30.3133 78.3067 30.38 78.64 30.46V32.66C78.3067 32.6067 77.92 32.56 77.48 32.52C77.04 32.48 76.58 32.4533 76.1 32.44C75.62 32.4133 75.1667 32.4 74.74 32.4C74.1133 32.4 73.6133 32.4267 73.24 32.48C72.88 32.52 72.6 32.5933 72.4 32.7C72.1733 32.8333 72.0333 33.0067 71.98 33.22C71.94 33.4333 71.92 33.7 71.92 34.02C71.92 34.42 71.9467 34.7267 72 34.94C72.0533 35.14 72.18 35.28 72.38 35.36C72.58 35.44 72.8933 35.5067 73.32 35.56L76.4 35.92C76.7733 35.96 77.12 36.0267 77.44 36.12C77.76 36.2133 78.0467 36.36 78.3 36.56C78.5533 36.76 78.76 37.04 78.92 37.4C79.0133 37.5867 79.0867 37.8067 79.14 38.06C79.1933 38.3 79.2333 38.5733 79.26 38.88C79.3 39.1867 79.32 39.5267 79.32 39.9C79.32 40.6733 79.24 41.32 79.08 41.84C78.9333 42.36 78.72 42.7733 78.44 43.08C78.16 43.3867 77.8133 43.62 77.4 43.78C77 43.94 76.5533 44.04 76.06 44.08C75.5667 44.1333 75.04 44.16 74.48 44.16ZM81.7823 31.5V29.14H84.5223V31.5H81.7823ZM81.8223 44V33.8H84.4823V44H81.8223ZM90.4502 44.16C89.8235 44.16 89.2902 44.08 88.8502 43.92C88.4102 43.7467 88.0502 43.4667 87.7702 43.08C87.4902 42.68 87.2835 42.14 87.1502 41.46C87.0302 40.78 86.9702 39.9333 86.9702 38.92C86.9702 37.9067 87.0302 37.06 87.1502 36.38C87.2702 35.7 87.4635 35.16 87.7302 34.76C88.0102 34.36 88.3635 34.0733 88.7902 33.9C89.2302 33.7267 89.7635 33.64 90.3902 33.64C90.8302 33.64 91.2368 33.68 91.6102 33.76C91.9968 33.8267 92.3368 33.9533 92.6302 34.14C92.9368 34.3133 93.1902 34.5733 93.3902 34.92H93.5502V29.14H96.1902V44H93.7102L93.6302 42.74H93.4902C93.2902 43.14 93.0235 43.44 92.6902 43.64C92.3702 43.84 92.0168 43.9733 91.6302 44.04C91.2435 44.12 90.8502 44.16 90.4502 44.16ZM91.5902 41.88C92.0835 41.88 92.4568 41.82 92.7102 41.7C92.9768 41.5667 93.1702 41.36 93.2902 41.08C93.3968 40.8133 93.4635 40.5 93.4902 40.14C93.5302 39.78 93.5502 39.3667 93.5502 38.9C93.5502 38.42 93.5302 38.0067 93.4902 37.66C93.4635 37.3133 93.3968 37.02 93.2902 36.78C93.1702 36.4733 92.9768 36.26 92.7102 36.14C92.4568 36.0067 92.0835 35.94 91.5902 35.94C91.1502 35.94 90.7968 35.9733 90.5302 36.04C90.2635 36.0933 90.0635 36.22 89.9302 36.42C89.8102 36.6067 89.7302 36.9 89.6902 37.3C89.6502 37.6867 89.6302 38.22 89.6302 38.9C89.6302 39.58 89.6502 40.12 89.6902 40.52C89.7302 40.92 89.8102 41.22 89.9302 41.42C90.0635 41.6067 90.2635 41.7333 90.5302 41.8C90.7968 41.8533 91.1502 41.88 91.5902 41.88ZM103.569 44.16C102.663 44.16 101.909 44.1 101.309 43.98C100.709 43.86 100.229 43.6733 99.8694 43.42C99.5227 43.1533 99.256 42.82 99.0694 42.42C98.896 42.0067 98.7827 41.5133 98.7294 40.94C98.6894 40.3533 98.6694 39.68 98.6694 38.92C98.6694 38.0133 98.716 37.2267 98.8094 36.56C98.9027 35.8933 99.096 35.3467 99.3894 34.92C99.696 34.48 100.163 34.16 100.789 33.96C101.429 33.7467 102.276 33.64 103.329 33.64C104.183 33.64 104.876 33.7067 105.409 33.84C105.943 33.9733 106.363 34.1733 106.669 34.44C106.989 34.7067 107.216 35.0533 107.349 35.48C107.496 35.8933 107.589 36.3867 107.629 36.96C107.669 37.5333 107.689 38.1867 107.689 38.92V39.7H101.309C101.309 40.2067 101.329 40.62 101.369 40.94C101.423 41.2467 101.536 41.48 101.709 41.64C101.896 41.8 102.183 41.9067 102.569 41.96C102.969 42.0133 103.509 42.04 104.189 42.04C104.469 42.04 104.783 42.0333 105.129 42.02C105.489 42.0067 105.856 41.9867 106.229 41.96C106.616 41.9333 106.969 41.9067 107.289 41.88V43.84C106.996 43.9067 106.636 43.96 106.209 44C105.796 44.0533 105.356 44.0933 104.889 44.12C104.436 44.1467 103.996 44.16 103.569 44.16ZM105.169 38.38V38.06C105.169 37.54 105.136 37.1267 105.069 36.82C105.016 36.5 104.916 36.26 104.769 36.1C104.636 35.94 104.449 35.84 104.209 35.8C103.969 35.7467 103.663 35.72 103.289 35.72C102.849 35.72 102.503 35.7533 102.249 35.82C101.996 35.8733 101.803 35.9867 101.669 36.16C101.536 36.32 101.443 36.56 101.389 36.88C101.336 37.1867 101.309 37.58 101.309 38.06H105.529L105.169 38.38ZM120.664 44.16C119.65 44.16 118.804 44.0933 118.124 43.96C117.444 43.8267 116.89 43.6 116.464 43.28C116.037 42.96 115.71 42.5333 115.484 42C115.27 41.4667 115.124 40.8 115.044 40C114.964 39.2 114.924 38.24 114.924 37.12C114.924 36 114.964 35.04 115.044 34.24C115.124 33.44 115.27 32.7733 115.484 32.24C115.71 31.7067 116.037 31.28 116.464 30.96C116.89 30.64 117.444 30.4133 118.124 30.28C118.804 30.1467 119.65 30.08 120.664 30.08C121.05 30.08 121.45 30.0933 121.864 30.12C122.29 30.1467 122.697 30.1867 123.084 30.24C123.47 30.2933 123.797 30.3533 124.064 30.42V32.6C123.704 32.56 123.357 32.5267 123.024 32.5C122.69 32.46 122.377 32.4333 122.084 32.42C121.804 32.4067 121.564 32.4 121.364 32.4C120.684 32.4 120.124 32.4267 119.684 32.48C119.244 32.5333 118.89 32.6467 118.624 32.82C118.37 32.98 118.184 33.2333 118.064 33.58C117.944 33.9133 117.864 34.3667 117.824 34.94C117.784 35.5133 117.764 36.24 117.764 37.12C117.764 37.9867 117.784 38.7133 117.824 39.3C117.864 39.8733 117.944 40.3333 118.064 40.68C118.184 41.0133 118.37 41.2667 118.624 41.44C118.89 41.6 119.244 41.7067 119.684 41.76C120.124 41.8133 120.684 41.84 121.364 41.84C121.804 41.84 122.284 41.82 122.804 41.78C123.324 41.74 123.77 41.6933 124.144 41.64V43.86C123.85 43.9133 123.504 43.96 123.104 44C122.704 44.0533 122.29 44.0933 121.864 44.12C121.45 44.1467 121.05 44.16 120.664 44.16ZM126.529 44V29.14H129.169V35H129.329C129.503 34.68 129.729 34.42 130.009 34.22C130.289 34.02 130.623 33.88 131.009 33.8C131.396 33.7067 131.836 33.66 132.329 33.66C133.023 33.66 133.583 33.7467 134.009 33.92C134.436 34.08 134.763 34.3267 134.989 34.66C135.216 34.9933 135.363 35.4067 135.429 35.9C135.509 36.3933 135.549 36.9667 135.549 37.62V44H132.909V38.6C132.909 37.9867 132.889 37.5 132.849 37.14C132.809 36.78 132.729 36.5133 132.609 36.34C132.489 36.1667 132.309 36.06 132.069 36.02C131.829 35.9667 131.509 35.94 131.109 35.94C130.683 35.94 130.336 35.9933 130.069 36.1C129.816 36.1933 129.623 36.3533 129.489 36.58C129.369 36.7933 129.283 37.08 129.229 37.44C129.189 37.7867 129.169 38.2133 129.169 38.72V44H126.529ZM140.885 44.16C140.232 44.16 139.678 44.0667 139.225 43.88C138.772 43.68 138.425 43.36 138.185 42.92C137.958 42.4667 137.845 41.8733 137.845 41.14C137.845 40.3533 137.938 39.7333 138.125 39.28C138.312 38.8133 138.638 38.48 139.105 38.28C139.572 38.0667 140.218 37.96 141.045 37.96C141.178 37.96 141.365 37.9667 141.605 37.98C141.845 37.98 142.118 37.9867 142.425 38C142.732 38 143.038 38.0067 143.345 38.02C143.652 38.02 143.932 38.0267 144.185 38.04V37.64C144.185 37.2 144.152 36.8533 144.085 36.6C144.018 36.3467 143.892 36.16 143.705 36.04C143.518 35.92 143.245 35.8467 142.885 35.82C142.525 35.7933 142.058 35.78 141.485 35.78C141.192 35.78 140.852 35.7867 140.465 35.8C140.078 35.8133 139.705 35.8333 139.345 35.86C138.985 35.8867 138.698 35.9133 138.485 35.94V33.94C139.058 33.8467 139.678 33.7733 140.345 33.72C141.012 33.6667 141.685 33.64 142.365 33.64C143.165 33.64 143.832 33.6933 144.365 33.8C144.912 33.8933 145.345 34.0467 145.665 34.26C145.998 34.4733 146.245 34.7467 146.405 35.08C146.578 35.4 146.692 35.7867 146.745 36.24C146.798 36.68 146.825 37.1867 146.825 37.76V44H144.365L144.285 42.76H144.125C143.898 43.1733 143.598 43.48 143.225 43.68C142.865 43.88 142.478 44.0067 142.065 44.06C141.665 44.1267 141.272 44.16 140.885 44.16ZM142.145 42.12C142.438 42.12 142.692 42.1 142.905 42.06C143.132 42.02 143.325 41.9533 143.485 41.86C143.658 41.7533 143.792 41.62 143.885 41.46C143.978 41.2867 144.052 41.0733 144.105 40.82C144.158 40.5667 144.185 40.26 144.185 39.9V39.6H141.765C141.392 39.6 141.105 39.6267 140.905 39.68C140.705 39.7333 140.572 39.8533 140.505 40.04C140.438 40.2267 140.405 40.5067 140.405 40.88C140.405 41.2267 140.445 41.4933 140.525 41.68C140.605 41.8533 140.772 41.9733 141.025 42.04C141.278 42.0933 141.652 42.12 142.145 42.12ZM149.653 31.5V29.14H152.393V31.5H149.653ZM149.693 44V33.8H152.353V44H149.693ZM155.201 44V33.8H157.681L157.761 35.08H157.921C158.108 34.7467 158.335 34.4733 158.601 34.26C158.881 34.0467 159.221 33.8933 159.621 33.8C160.035 33.6933 160.501 33.64 161.021 33.64C161.715 33.64 162.268 33.7267 162.681 33.9C163.108 34.0733 163.435 34.3267 163.661 34.66C163.888 34.9933 164.035 35.4067 164.101 35.9C164.181 36.3933 164.221 36.9667 164.221 37.62V44H161.581V38.6C161.581 37.9867 161.561 37.5 161.521 37.14C161.481 36.78 161.401 36.5133 161.281 36.34C161.161 36.1667 160.981 36.06 160.741 36.02C160.501 35.9667 160.181 35.94 159.781 35.94C159.355 35.94 159.008 35.9933 158.741 36.1C158.488 36.1933 158.295 36.3533 158.161 36.58C158.041 36.7933 157.955 37.08 157.901 37.44C157.861 37.7867 157.841 38.2133 157.841 38.72V44H155.201Z" fill="white"/>
</g>
<defs>
<clipPath id="clip0_5273_2362">
<rect width="340" height="74" rx="12" fill="white"/>
</clipPath>
<clipPath id="clip1_5273_2362">
<rect width="77" height="78" fill="white" transform="translate(263 31)"/>
</clipPath>
</defs>
</svg>
