<svg width="340" height="74" viewBox="0 0 340 74" fill="none" xmlns="http://www.w3.org/2000/svg">
<g clip-path="url(#clip0_23361_11114)">
<rect width="340" height="74" rx="12" fill="#4A4A4A"/>
<g opacity="0.1" clip-path="url(#clip1_23361_11114)">
<path d="M338.848 79.4343C333.705 100.327 312.813 113.042 292.183 107.832C271.562 102.624 259.008 81.461 264.153 60.5697C269.293 39.6743 290.186 26.9583 310.809 32.167C331.438 37.3757 343.991 58.5406 338.847 79.4347L338.848 79.4343H338.848Z" fill="white"/>
<ellipse cx="10.7612" cy="10.6545" rx="10.7612" ry="10.6545" transform="matrix(0.985835 -0.166854 0.170264 0.985548 279.172 59.8145)" fill="black"/>
<path d="M316.511 50.1136C317.575 51.1105 318.621 52.12 319.561 53.2387C325.92 60.8081 327.296 71.6645 322.997 80.5309C320.156 86.3922 315.716 90.6503 309.682 93.1926C304.344 95.443 298.81 95.8394 293.158 94.4489C293.064 94.4255 292.975 94.3929 292.866 94.303C299.926 94.0925 306.073 91.697 311.048 86.7316C316.028 81.7642 318.592 75.7204 318.6 68.6926C318.608 62.9597 316.84 57.7702 313.324 53.1973C309.821 48.6355 305.228 45.6114 299.676 43.9894C299.781 43.7871 299.927 43.8558 300.04 43.8589C302.952 43.9141 305.77 44.4497 308.5 45.4535C310.032 46.0174 311.491 46.7226 312.893 47.5528C312.962 47.5928 313.043 47.6123 313.119 47.6426L316.509 50.114L316.511 50.1136Z" fill="black"/>
</g>
<rect x="16" y="16" width="42" height="42" rx="21" fill="#AAAAAA"/>
<ellipse opacity="0.5" cx="6.20055" cy="5.84649" rx="6.20055" ry="5.84649" transform="matrix(0.987189 -0.158652 0.179029 0.983993 23.5625 31.8975)" fill="black"/>
<path opacity="0.5" d="M45.0998 26.5821C45.7133 27.1283 46.3171 27.6813 46.8595 28.2942C50.5281 32.4413 51.322 38.3891 48.8418 43.2468C47.2024 46.458 44.641 48.7909 41.1593 50.1837C38.0793 51.4167 34.8862 51.6338 31.6252 50.872C31.5713 50.8592 31.5198 50.8413 31.4566 50.7921C35.53 50.6767 39.0767 49.3643 41.9477 46.644C44.8209 43.9225 46.3002 40.6112 46.3049 36.7609C46.3094 33.62 45.2891 30.7769 43.2608 28.2715C41.2393 25.7723 38.5896 24.1155 35.3859 23.2268C35.4466 23.116 35.5306 23.1536 35.5961 23.1553C37.2759 23.1856 38.9022 23.479 40.4773 24.029C41.3611 24.3379 42.2032 24.7243 43.012 25.1791C43.0515 25.201 43.0985 25.2117 43.1422 25.2283L45.0982 26.5823L45.0998 26.5821Z" fill="black"/>
<path d="M75.776 45.192C75.168 45.192 74.496 45.176 73.76 45.144C73.04 45.112 72.336 45.064 71.648 45C70.96 44.952 70.328 44.896 69.752 44.832V42.12C70.344 42.168 70.944 42.216 71.552 42.264C72.176 42.312 72.768 42.352 73.328 42.384C73.888 42.4 74.368 42.408 74.768 42.408C75.584 42.408 76.216 42.376 76.664 42.312C77.112 42.232 77.448 42.12 77.672 41.976C77.848 41.848 77.968 41.712 78.032 41.568C78.096 41.408 78.136 41.224 78.152 41.016C78.168 40.792 78.176 40.544 78.176 40.272C78.176 39.904 78.152 39.6 78.104 39.36C78.072 39.12 78.008 38.936 77.912 38.808C77.816 38.664 77.656 38.56 77.432 38.496C77.224 38.432 76.952 38.384 76.616 38.352L72.92 37.896C72.184 37.8 71.576 37.632 71.096 37.392C70.632 37.152 70.264 36.832 69.992 36.432C69.72 36.032 69.528 35.56 69.416 35.016C69.32 34.472 69.272 33.856 69.272 33.168C69.272 32.08 69.424 31.216 69.728 30.576C70.032 29.936 70.456 29.448 71 29.112C71.56 28.776 72.216 28.56 72.968 28.464C73.72 28.352 74.536 28.296 75.416 28.296C76.056 28.296 76.712 28.32 77.384 28.368C78.056 28.4 78.688 28.448 79.28 28.512C79.872 28.576 80.368 28.656 80.768 28.752V31.392C80.368 31.328 79.904 31.272 79.376 31.224C78.848 31.176 78.296 31.144 77.72 31.128C77.144 31.096 76.6 31.08 76.088 31.08C75.336 31.08 74.736 31.112 74.288 31.176C73.856 31.224 73.52 31.312 73.28 31.44C73.008 31.6 72.84 31.808 72.776 32.064C72.728 32.32 72.704 32.64 72.704 33.024C72.704 33.504 72.736 33.872 72.8 34.128C72.864 34.368 73.016 34.536 73.256 34.632C73.496 34.728 73.872 34.808 74.384 34.872L78.08 35.304C78.528 35.352 78.944 35.432 79.328 35.544C79.712 35.656 80.056 35.832 80.36 36.072C80.664 36.312 80.912 36.648 81.104 37.08C81.216 37.304 81.304 37.568 81.368 37.872C81.432 38.16 81.48 38.488 81.512 38.856C81.56 39.224 81.584 39.632 81.584 40.08C81.584 41.008 81.488 41.784 81.296 42.408C81.12 43.032 80.864 43.528 80.528 43.896C80.192 44.264 79.776 44.544 79.28 44.736C78.8 44.928 78.264 45.048 77.672 45.096C77.08 45.16 76.448 45.192 75.776 45.192ZM84.5388 30V27.168H87.8268V30H84.5388ZM84.5868 45V32.76H87.7788V45H84.5868ZM94.9402 45.192C94.1882 45.192 93.5482 45.096 93.0202 44.904C92.4922 44.696 92.0602 44.36 91.7242 43.896C91.3882 43.416 91.1402 42.768 90.9802 41.952C90.8362 41.136 90.7642 40.12 90.7642 38.904C90.7642 37.688 90.8362 36.672 90.9802 35.856C91.1242 35.04 91.3562 34.392 91.6762 33.912C92.0122 33.432 92.4362 33.088 92.9482 32.88C93.4762 32.672 94.1162 32.568 94.8682 32.568C95.3962 32.568 95.8842 32.616 96.3322 32.712C96.7962 32.792 97.2042 32.944 97.5562 33.168C97.9242 33.376 98.2282 33.688 98.4682 34.104H98.6602V27.168H101.828V45H98.8522L98.7562 43.488H98.5882C98.3482 43.968 98.0282 44.328 97.6282 44.568C97.2442 44.808 96.8202 44.968 96.3562 45.048C95.8922 45.144 95.4202 45.192 94.9402 45.192ZM96.3082 42.456C96.9002 42.456 97.3482 42.384 97.6522 42.24C97.9722 42.08 98.2042 41.832 98.3482 41.496C98.4762 41.176 98.5562 40.8 98.5882 40.368C98.6362 39.936 98.6602 39.44 98.6602 38.88C98.6602 38.304 98.6362 37.808 98.5882 37.392C98.5562 36.976 98.4762 36.624 98.3482 36.336C98.2042 35.968 97.9722 35.712 97.6522 35.568C97.3482 35.408 96.9002 35.328 96.3082 35.328C95.7802 35.328 95.3562 35.368 95.0362 35.448C94.7162 35.512 94.4762 35.664 94.3162 35.904C94.1722 36.128 94.0762 36.48 94.0282 36.96C93.9802 37.424 93.9562 38.064 93.9562 38.88C93.9562 39.696 93.9802 40.344 94.0282 40.824C94.0762 41.304 94.1722 41.664 94.3162 41.904C94.4762 42.128 94.7162 42.28 95.0362 42.36C95.3562 42.424 95.7802 42.456 96.3082 42.456ZM110.683 45.192C109.595 45.192 108.691 45.12 107.971 44.976C107.251 44.832 106.675 44.608 106.243 44.304C105.827 43.984 105.507 43.584 105.283 43.104C105.075 42.608 104.939 42.016 104.875 41.328C104.827 40.624 104.803 39.816 104.803 38.904C104.803 37.816 104.859 36.872 104.971 36.072C105.083 35.272 105.315 34.616 105.667 34.104C106.035 33.576 106.595 33.192 107.347 32.952C108.115 32.696 109.131 32.568 110.395 32.568C111.419 32.568 112.251 32.648 112.891 32.808C113.531 32.968 114.035 33.208 114.403 33.528C114.787 33.848 115.059 34.264 115.219 34.776C115.395 35.272 115.507 35.864 115.555 36.552C115.603 37.24 115.627 38.024 115.627 38.904V39.84H107.971C107.971 40.448 107.995 40.944 108.043 41.328C108.107 41.696 108.243 41.976 108.451 42.168C108.675 42.36 109.019 42.488 109.483 42.552C109.963 42.616 110.611 42.648 111.427 42.648C111.763 42.648 112.139 42.64 112.555 42.624C112.987 42.608 113.427 42.584 113.875 42.552C114.339 42.52 114.763 42.488 115.147 42.456V44.808C114.795 44.888 114.363 44.952 113.851 45C113.355 45.064 112.827 45.112 112.267 45.144C111.723 45.176 111.195 45.192 110.683 45.192ZM112.603 38.256V37.872C112.603 37.248 112.563 36.752 112.483 36.384C112.419 36 112.299 35.712 112.123 35.52C111.963 35.328 111.739 35.208 111.451 35.16C111.163 35.096 110.795 35.064 110.347 35.064C109.819 35.064 109.403 35.104 109.099 35.184C108.795 35.248 108.563 35.384 108.403 35.592C108.243 35.784 108.131 36.072 108.067 36.456C108.003 36.824 107.971 37.296 107.971 37.872H113.035L112.603 38.256ZM131.196 45.192C129.98 45.192 128.964 45.112 128.148 44.952C127.332 44.792 126.668 44.52 126.156 44.136C125.644 43.752 125.252 43.24 124.98 42.6C124.724 41.96 124.548 41.16 124.452 40.2C124.356 39.24 124.308 38.088 124.308 36.744C124.308 35.4 124.356 34.248 124.452 33.288C124.548 32.328 124.724 31.528 124.98 30.888C125.252 30.248 125.644 29.736 126.156 29.352C126.668 28.968 127.332 28.696 128.148 28.536C128.964 28.376 129.98 28.296 131.196 28.296C131.66 28.296 132.14 28.312 132.636 28.344C133.148 28.376 133.636 28.424 134.1 28.488C134.564 28.552 134.956 28.624 135.276 28.704V31.32C134.844 31.272 134.428 31.232 134.028 31.2C133.628 31.152 133.252 31.12 132.9 31.104C132.564 31.088 132.276 31.08 132.036 31.08C131.22 31.08 130.548 31.112 130.02 31.176C129.492 31.24 129.068 31.376 128.748 31.584C128.444 31.776 128.22 32.08 128.076 32.496C127.932 32.896 127.836 33.44 127.788 34.128C127.74 34.816 127.716 35.688 127.716 36.744C127.716 37.784 127.74 38.656 127.788 39.36C127.836 40.048 127.932 40.6 128.076 41.016C128.22 41.416 128.444 41.72 128.748 41.928C129.068 42.12 129.492 42.248 130.02 42.312C130.548 42.376 131.22 42.408 132.036 42.408C132.564 42.408 133.14 42.384 133.764 42.336C134.388 42.288 134.924 42.232 135.372 42.168V44.832C135.02 44.896 134.604 44.952 134.124 45C133.644 45.064 133.148 45.112 132.636 45.144C132.14 45.176 131.66 45.192 131.196 45.192ZM138.235 45V27.168H141.403V34.2H141.595C141.803 33.816 142.075 33.504 142.411 33.264C142.747 33.024 143.147 32.856 143.611 32.76C144.075 32.648 144.603 32.592 145.195 32.592C146.027 32.592 146.699 32.696 147.211 32.904C147.723 33.096 148.115 33.392 148.387 33.792C148.659 34.192 148.835 34.688 148.915 35.28C149.011 35.872 149.059 36.56 149.059 37.344V45H145.891V38.52C145.891 37.784 145.867 37.2 145.819 36.768C145.771 36.336 145.675 36.016 145.531 35.808C145.387 35.6 145.171 35.472 144.883 35.424C144.595 35.36 144.211 35.328 143.731 35.328C143.219 35.328 142.803 35.392 142.483 35.52C142.179 35.632 141.947 35.824 141.787 36.096C141.643 36.352 141.539 36.696 141.475 37.128C141.427 37.544 141.403 38.056 141.403 38.664V45H138.235ZM155.462 45.192C154.678 45.192 154.014 45.08 153.47 44.856C152.926 44.616 152.51 44.232 152.222 43.704C151.95 43.16 151.814 42.448 151.814 41.568C151.814 40.624 151.926 39.88 152.15 39.336C152.374 38.776 152.766 38.376 153.326 38.136C153.886 37.88 154.662 37.752 155.654 37.752C155.814 37.752 156.038 37.76 156.326 37.776C156.614 37.776 156.942 37.784 157.31 37.8C157.678 37.8 158.046 37.808 158.414 37.824C158.782 37.824 159.118 37.832 159.422 37.848V37.368C159.422 36.84 159.382 36.424 159.302 36.12C159.222 35.816 159.07 35.592 158.846 35.448C158.622 35.304 158.294 35.216 157.862 35.184C157.43 35.152 156.87 35.136 156.182 35.136C155.83 35.136 155.422 35.144 154.958 35.16C154.494 35.176 154.046 35.2 153.614 35.232C153.182 35.264 152.838 35.296 152.582 35.328V32.928C153.27 32.816 154.014 32.728 154.814 32.664C155.614 32.6 156.422 32.568 157.238 32.568C158.198 32.568 158.998 32.632 159.638 32.76C160.294 32.872 160.814 33.056 161.198 33.312C161.598 33.568 161.894 33.896 162.086 34.296C162.294 34.68 162.43 35.144 162.494 35.688C162.558 36.216 162.59 36.824 162.59 37.512V45H159.638L159.542 43.512H159.35C159.078 44.008 158.718 44.376 158.27 44.616C157.838 44.856 157.374 45.008 156.878 45.072C156.398 45.152 155.926 45.192 155.462 45.192ZM156.974 42.744C157.326 42.744 157.63 42.72 157.886 42.672C158.158 42.624 158.39 42.544 158.582 42.432C158.79 42.304 158.95 42.144 159.062 41.952C159.174 41.744 159.262 41.488 159.326 41.184C159.39 40.88 159.422 40.512 159.422 40.08V39.72H156.518C156.07 39.72 155.726 39.752 155.486 39.816C155.246 39.88 155.086 40.024 155.006 40.248C154.926 40.472 154.886 40.808 154.886 41.256C154.886 41.672 154.934 41.992 155.03 42.216C155.126 42.424 155.326 42.568 155.63 42.648C155.934 42.712 156.382 42.744 156.974 42.744ZM165.984 30V27.168H169.272V30H165.984ZM166.032 45V32.76H169.224V45H166.032ZM172.642 45V32.76H175.618L175.714 34.296H175.906C176.13 33.896 176.402 33.568 176.722 33.312C177.058 33.056 177.466 32.872 177.946 32.76C178.442 32.632 179.002 32.568 179.626 32.568C180.458 32.568 181.122 32.672 181.618 32.88C182.13 33.088 182.522 33.392 182.794 33.792C183.066 34.192 183.242 34.688 183.322 35.28C183.418 35.872 183.466 36.56 183.466 37.344V45H180.298V38.52C180.298 37.784 180.274 37.2 180.226 36.768C180.178 36.336 180.082 36.016 179.938 35.808C179.794 35.6 179.578 35.472 179.29 35.424C179.002 35.36 178.618 35.328 178.138 35.328C177.626 35.328 177.21 35.392 176.89 35.52C176.586 35.632 176.354 35.824 176.194 36.096C176.05 36.352 175.946 36.696 175.882 37.128C175.834 37.544 175.81 38.056 175.81 38.664V45H172.642Z" fill="white"/>
</g>
<defs>
<clipPath id="clip0_23361_11114">
<rect width="340" height="74" rx="12" fill="white"/>
</clipPath>
<clipPath id="clip1_23361_11114">
<rect width="77" height="78" fill="white" transform="translate(263 31)"/>
</clipPath>
</defs>
</svg>
