<svg width="120" height="120" viewBox="0 0 120 120" fill="none" xmlns="http://www.w3.org/2000/svg">
<rect width="120" height="120" rx="36.5638" fill="#141415"/>
<g clip-path="url(#clip0_386_452)">
<path d="M73.5352 102.102C74.355 101.169 75.1593 100.252 76.0641 99.2204C75.5343 99.2051 75.3719 99.5146 75.1399 99.6866C73.7982 100.672 72.3636 101.528 70.9793 102.449C69.247 103.603 67.2364 103.542 65.3185 103.756C62.5074 104.069 59.673 104.111 56.8426 104.046C56.5951 104.043 56.3283 104.111 56.0151 103.813C57.3453 103.271 58.629 102.759 59.905 102.22C61.1695 101.685 62.3604 101.016 63.4586 100.18C61.6064 100.718 59.7697 101.261 57.8827 101.601C50.3697 102.954 43.3168 101.708 36.6854 97.9671C33.7157 96.2896 31.2294 94.0658 28.9094 91.6203C27.7068 90.3517 27.2738 88.7544 26.8562 87.161C25.0929 80.455 25.7193 73.8675 27.935 67.3716C30.2163 60.6847 33.8781 54.785 38.5259 49.4622C41.4414 46.1225 44.7204 43.1879 48.5446 40.8876C49.1053 40.5514 49.1478 40.3107 48.6954 39.8101C45.7799 36.5966 42.9147 33.3333 39.9798 30.1313C39.2645 29.3518 39.2065 28.5799 39.7169 27.7966C41.4028 25.225 44.0592 24.3614 46.9361 23.9564C47.4387 23.8838 47.6282 24.3347 47.837 24.6939C48.9236 26.5624 50.014 28.4271 51.3209 30.2153C51.2243 29.9096 51.1392 29.604 51.0348 29.3059C50.0101 26.3255 49.0164 23.3374 47.9375 20.3799C47.6089 19.4704 47.8486 18.9737 48.6374 18.5075C50.9806 17.1205 53.5327 16.4097 56.2201 16.1843C60.5856 15.8213 64.9008 16.02 69.0228 17.7051C69.4365 17.8732 69.8387 18.0796 70.2292 18.2974C71.8687 19.2144 71.8416 19.2068 71.0335 20.9377C68.6206 26.1 66.0841 31.205 63.3928 36.2336C63.273 36.4552 63.1724 36.6844 63.1686 36.9978C63.3 36.8182 63.4431 36.6501 63.5552 36.4628C65.8985 32.5882 68.2533 28.7251 70.5617 24.8314C70.9832 24.1207 71.3892 23.987 72.1084 24.3423C73.5004 25.0378 74.0031 25.9434 73.6512 27.4489C72.9784 30.3338 71.4859 32.8748 70.1016 35.4579C69.6067 36.3826 69.0962 37.3035 68.5588 38.2091C68.2533 38.7249 68.3925 38.9924 68.9145 39.2331C72.4139 40.8533 75.4957 43.1001 78.2913 45.6946C82.4132 49.5233 85.8662 53.8985 88.6271 58.7895C91.268 63.4741 93.1163 68.4339 93.7466 73.7758C94.6166 81.1543 93.1743 88.0017 88.6193 94.0581C86.3573 97.0653 83.26 98.9644 79.8303 100.363C78.1405 101.055 76.3657 101.54 74.6257 102.102C74.3125 102.197 73.9799 102.415 73.5352 102.102ZM81.6786 72.5798C81.6824 60.635 72.0002 51.0174 59.9553 51.0097C47.9182 51.0021 38.1083 60.6389 38.0967 72.4919C38.0813 84.4481 47.8177 94.0772 59.9205 94.081C72.0156 94.0849 81.6747 84.5436 81.6786 72.5798Z" fill="white"/>
<ellipse cx="59.6111" cy="72.3053" rx="24.1805" ry="23.9361" fill="white"/>
<ellipse cx="5.92152" cy="5.86734" rx="5.92152" ry="5.86734" transform="matrix(0.976483 -0.215594 0.219805 0.975544 46.4277 68.4961)" fill="#141415"/>
<path d="M66.6907 61.3236C67.303 61.8428 67.9064 62.3692 68.4543 62.9586C72.1606 66.947 73.2194 72.8784 71.1031 77.8706C69.7042 81.1708 67.3822 83.633 64.1356 85.1954C61.2636 86.5784 58.2322 86.9473 55.0864 86.337C55.0343 86.3267 54.9844 86.3112 54.9216 86.2647C58.797 85.9564 62.1096 84.4716 64.7069 81.6058C67.3062 78.7388 68.5474 75.3459 68.3562 71.4817C68.2008 68.3294 67.0843 65.5244 65.0243 63.106C62.9712 60.6935 60.3623 59.1561 57.2647 58.4157C57.3168 58.3016 57.3988 58.3355 57.4613 58.3341C59.0634 58.285 60.6278 58.5026 62.1565 58.98C63.0144 59.2482 63.8363 59.5962 64.6301 60.0144C64.6689 60.0345 64.7141 60.043 64.7566 60.0576L66.6891 61.324L66.6907 61.3236Z" fill="#141415"/>
</g>
<defs>
<clipPath id="clip0_386_452">
<rect width="68.1549" height="88.0456" fill="white" transform="translate(25.8311 16.0312)"/>
</clipPath>
</defs>
</svg>
