<svg width="158" height="118" viewBox="0 0 158 118" fill="none" xmlns="http://www.w3.org/2000/svg">
<path d="M45.4166 45.9242C44.786 43.667 44.2736 41.3784 43.8815 39.0678C42.9594 33.6403 46.1884 27.8553 51.9303 24.6463C61.4131 19.346 71.6573 15.3706 82.2326 12.886C88.6358 11.3814 94.9224 13.4738 97.9021 18.1022C100.85 22.6801 103.213 27.5577 104.961 32.6603L45.4166 45.9242Z" fill="#F7771A"/>
<path d="M54.5488 78.016C49.0235 77.0791 44.617 72.8902 43.4004 67.4196C41.1504 57.2952 41.1504 46.8002 43.4004 36.6757C44.6159 31.2051 49.0235 27.0162 54.5488 26.0793C69.6929 23.5128 85.161 23.5128 100.305 26.0793C105.83 27.0162 110.237 31.2051 111.453 36.6757C113.704 46.7999 113.704 57.2943 111.453 67.4196C110.238 72.8902 105.83 77.0791 100.305 78.016C85.161 80.5825 69.6929 80.5825 54.5488 78.016Z" fill="#F7771A"/>
<mask id="mask0_4394_2431" style="mask-type:alpha" maskUnits="userSpaceOnUse" x="41" y="24" width="73" height="56">
<path d="M54.5488 78.016C49.0235 77.0791 44.617 72.8902 43.4004 67.4196C41.1504 57.2952 41.1504 46.8002 43.4004 36.6757C44.6159 31.2051 49.0235 27.0162 54.5488 26.0793C69.6929 23.5128 85.161 23.5128 100.305 26.0793C105.83 27.0162 110.237 31.2051 111.453 36.6757C113.704 46.7999 113.704 57.2943 111.453 67.4196C110.238 72.8902 105.83 77.0791 100.305 78.016C85.161 80.5825 69.6929 80.5825 54.5488 78.016Z" fill="url(#paint0_linear_4394_2431)"/>
</mask>
<g mask="url(#mask0_4394_2431)">
<path opacity="0.6" d="M54.8037 100.373C49.2784 99.4363 44.8718 95.2474 43.6553 89.7768C41.4053 79.6523 41.4053 69.1573 43.6553 59.0329C44.8708 53.5623 49.2784 49.3733 54.8037 48.4365C69.9478 45.87 85.4159 45.87 100.56 48.4365C106.085 49.3733 110.492 53.5623 111.708 59.0329C113.958 69.1571 113.958 79.6515 111.708 89.7768C110.493 95.2474 106.085 99.4363 100.56 100.373C85.4159 102.94 69.9478 102.94 54.8037 100.373Z" fill="white"/>
</g>
<path d="M86.6124 57.8834C88.6986 59.7411 91.3246 60.8822 94.106 61.1397L94.3941 61.166C99.8926 61.6749 105.426 61.6749 110.925 61.166C113.571 60.921 115.664 58.8182 115.895 56.1707C116.156 53.1898 116.156 50.1922 115.895 47.2114C115.664 44.5639 113.571 42.461 110.925 42.216C105.426 41.7071 99.8926 41.7071 94.3941 42.216L94.106 42.2423C91.3246 42.4998 88.6986 43.6409 86.6124 45.4986C86.0372 46.0108 85.5508 46.6148 85.173 47.286C84.4162 48.6304 84.0186 50.1472 84.0186 51.69C84.0186 53.2328 84.4162 54.7495 85.173 56.0939C85.5508 56.7651 86.0372 57.3691 86.6124 57.8813V57.8834Z" fill="#F7771A"/>
<path d="M88.7207 51.6917C88.7207 52.8546 89.1826 53.9698 90.0049 54.792C90.8271 55.6143 91.9423 56.0762 93.1052 56.0762C94.268 56.0762 95.3832 55.6143 96.2055 54.792C97.0277 53.9698 97.4897 52.8546 97.4897 51.6917C97.4897 50.5289 97.0277 49.4137 96.2055 48.5914C95.3832 47.7692 94.268 47.3073 93.1052 47.3073C91.9423 47.3073 90.8271 47.7692 90.0049 48.5914C89.1826 49.4137 88.7207 50.5289 88.7207 51.6917Z" fill="white"/>
<path d="M144.995 103.533V101.057H158V103.533H152.962V117.357H150.033V103.533H144.995Z" fill="#F7771A"/>
<path d="M116.266 117.357V101.057H119.218V114.882H126.397V117.357H116.266Z" fill="#F7771A"/>
<path d="M102.003 117.357V101.057H104.956V114.882H112.135V117.357H102.003Z" fill="#F7771A"/>
<path d="M86.3089 117.357H83.1572L88.8956 101.057H92.5407L98.287 117.357H95.1353L90.7818 104.4H90.6545L86.3089 117.357Z" fill="#F7771A"/>
<path d="M65.0436 117.357L60.4434 101.057H63.6189L66.5558 113.035H66.707L69.8428 101.057H72.7318L75.8756 113.043H76.0189L78.9557 101.057H82.1313L77.531 117.357H74.6181L71.355 105.92H71.2276L67.9565 117.357H65.0436Z" fill="#F7771A"/>
<path d="M140.719 110.777V107.987H130.671V107.988C130.671 111.179 130.671 114.313 130.651 117.447H141.025V114.447H133.695V110.777H140.719Z" fill="#F7771A"/>
<path d="M141.044 104.165V101.241H130.671V104.165H141.044Z" fill="#F7771A"/>
<rect x="21.7383" y="100.569" width="16.4091" height="3.30488" transform="rotate(90 21.7383 100.569)" fill="white"/>
<path d="M54.1327 110.105V107.315H44.0846V107.315C44.0846 110.507 44.0846 113.64 44.0654 116.774H54.4389V113.774H47.1087V110.105H54.1327Z" fill="white"/>
<path d="M54.4581 103.493V100.569H44.0846V103.493H54.4581Z" fill="white"/>
<path d="M6.93434 117.357C5.91631 117.357 4.98171 117.237 4.13057 116.996C3.27942 116.74 2.51172 116.363 1.82746 115.867C1.14321 115.37 0.534053 114.769 0 114.064L2.12787 111.756C2.94564 112.845 3.74672 113.599 4.53111 114.015C5.3155 114.432 6.20002 114.64 7.18468 114.64C7.75211 114.64 8.26948 114.56 8.73677 114.4C9.20407 114.224 9.57123 113.991 9.83826 113.703C10.1053 113.398 10.2388 113.054 10.2388 112.669C10.2388 112.397 10.1804 112.148 10.0636 111.924C9.96343 111.684 9.80488 111.475 9.58792 111.299C9.37096 111.107 9.10393 110.93 8.78684 110.77C8.46975 110.61 8.11093 110.474 7.71039 110.361C7.30985 110.249 6.86759 110.145 6.3836 110.049C5.4657 109.873 4.66462 109.64 3.98036 109.352C3.29611 109.047 2.72033 108.679 2.25304 108.246C1.78574 107.797 1.44361 107.3 1.22665 106.755C1.00969 106.194 0.901214 105.561 0.901214 104.856C0.901214 104.151 1.05976 103.502 1.37686 102.909C1.71064 102.316 2.16125 101.803 2.72868 101.37C3.29611 100.938 3.95533 100.601 4.70634 100.361C5.45735 100.12 6.26678 100 7.13461 100C8.11927 100 8.99545 100.112 9.76315 100.337C10.5475 100.561 11.2318 100.898 11.8159 101.346C12.4167 101.779 12.9091 102.308 13.2929 102.933L11.14 104.976C10.8062 104.479 10.4307 104.071 10.0135 103.75C9.59626 103.414 9.14566 103.165 8.66167 103.005C8.17769 102.829 7.66867 102.741 7.13461 102.741C6.5338 102.741 6.0081 102.821 5.55749 102.981C5.12357 103.141 4.78144 103.374 4.53111 103.678C4.28077 103.967 4.1556 104.319 4.1556 104.736C4.1556 105.056 4.2307 105.345 4.3809 105.601C4.5311 105.842 4.73972 106.058 5.00675 106.25C5.29046 106.443 5.64928 106.611 6.0832 106.755C6.51711 106.9 7.00945 107.028 7.56019 107.14C8.47809 107.316 9.3042 107.557 10.0385 107.861C10.7728 108.15 11.3987 108.502 11.9161 108.919C12.4334 109.32 12.8256 109.784 13.0926 110.313C13.3597 110.826 13.4932 111.403 13.4932 112.044C13.4932 113.15 13.2178 114.104 12.6671 114.905C12.133 115.69 11.3737 116.299 10.389 116.732C9.40434 117.149 8.25279 117.357 6.93434 117.357Z" fill="white"/>
<path fill-rule="evenodd" clip-rule="evenodd" d="M26.9316 117.001C27.3445 117.002 27.7574 117.003 28.1702 117.003C29.4641 117.006 30.758 117.008 32.0517 117.006C32.4098 117.005 32.77 116.993 33.1251 116.952C34.0589 116.843 34.9368 116.549 35.7613 116.097C37.4002 115.198 38.6003 113.891 39.3502 112.174C39.9707 110.753 40.1696 109.266 40.01 107.727C39.8995 106.662 39.5918 105.658 39.0753 104.722C38.2926 103.303 37.1821 102.217 35.7468 101.47C34.8224 100.988 33.8395 100.698 32.7999 100.628C32.38 100.599 31.9578 100.599 31.5366 100.599C31.4821 100.599 31.4276 100.599 31.3731 100.599C29.8926 100.598 28.4121 100.598 26.9316 100.598V104.421C27.1197 104.42 27.3077 104.42 27.4957 104.42C28.1932 104.419 28.8907 104.422 29.5883 104.425C30.2618 104.427 30.9353 104.43 31.6087 104.43C32.2216 104.43 32.8297 104.457 33.4191 104.646C34.6538 105.043 35.5714 105.808 36.0964 107.009C36.4916 107.913 36.5146 108.852 36.2948 109.803C35.8446 111.75 34.2945 113.048 32.3364 113.105C31.3569 113.134 30.377 113.148 29.3975 113.153C28.5755 113.157 27.7536 113.157 26.9316 113.157V117.001Z" fill="white"/>
<defs>
<linearGradient id="paint0_linear_4394_2431" x1="83.4709" y1="29.0054" x2="75.2818" y2="81.3601" gradientUnits="userSpaceOnUse">
<stop stop-color="#68FFF1"/>
<stop offset="1" stop-color="#00C2EC"/>
</linearGradient>
</defs>
</svg>
