<svg width="167" height="117" viewBox="0 0 167 117" fill="none" xmlns="http://www.w3.org/2000/svg">
<path d="M153.25 102.069V99.4531H166.996V102.069H161.671V116.681H158.575V102.069H153.25Z" fill="#6DE5DA"/>
<path d="M122.883 116.681V99.4531H126.004V114.065H133.592V116.681H122.883Z" fill="#6DE5DA"/>
<path d="M107.812 116.681V99.4531H110.933V114.065H118.521V116.681H107.812Z" fill="#6DE5DA"/>
<path d="M91.2219 116.681H87.8906L93.9558 99.4531H97.8086L103.882 116.681H100.551L95.9495 102.986H95.8149L91.2219 116.681Z" fill="#6DE5DA"/>
<path d="M68.7451 116.681L63.8828 99.4531H67.2393L70.3434 112.114H70.5032L73.8176 99.4531H76.8713L80.1941 112.122H80.3455L83.4496 99.4531H86.8061L81.9438 116.681H78.865L75.416 104.593H75.2814L71.8239 116.681H68.7451Z" fill="#6DE5DA"/>
<path d="M148.735 109.728V106.779H138.114V106.779C138.114 110.152 138.114 113.465 138.094 116.777H149.058V113.606H141.31V109.728H148.735Z" fill="#6DE5DA"/>
<path d="M149.078 102.739V99.6484H138.114V102.739H149.078Z" fill="#6DE5DA"/>
<rect x="22.9766" y="98.9375" width="17.3438" height="3.49314" transform="rotate(90 22.9766 98.9375)" fill="white"/>
<path d="M57.2189 109.017V106.068H46.5984V106.068C46.5984 109.441 46.5984 112.754 46.5781 116.066H57.5425V112.895H49.7948V109.017H57.2189Z" fill="white"/>
<path d="M57.5628 102.028V98.9375H46.5984V102.028H57.5628Z" fill="white"/>
<path d="M7.32934 116.682C6.25331 116.682 5.26548 116.555 4.36585 116.301C3.46622 116.029 2.65479 115.631 1.93156 115.106C1.20833 114.581 0.564474 113.946 0 113.201L2.24907 110.761C3.11343 111.913 3.96014 112.709 4.78921 113.15C5.61828 113.59 6.55319 113.81 7.59394 113.81C8.19369 113.81 8.74052 113.726 9.23444 113.556C9.72835 113.37 10.1164 113.124 10.3987 112.819C10.6809 112.498 10.822 112.133 10.822 111.727C10.822 111.439 10.7603 111.176 10.6368 110.939C10.531 110.685 10.3634 110.465 10.1341 110.278C9.90475 110.075 9.62251 109.889 9.28736 109.719C8.9522 109.55 8.57295 109.406 8.14959 109.287C7.72623 109.169 7.25878 109.059 6.74722 108.957C5.77704 108.771 4.93033 108.525 4.20709 108.22C3.48386 107.898 2.87529 107.509 2.38137 107.051C1.88746 106.577 1.52584 106.052 1.29653 105.476C1.06721 104.883 0.95255 104.214 0.95255 103.469C0.95255 102.723 1.12013 102.037 1.45528 101.41C1.80808 100.784 2.28435 100.242 2.88411 99.7843C3.48386 99.3269 4.18063 98.9712 4.97442 98.7171C5.76822 98.463 6.62375 98.3359 7.54102 98.3359C8.58177 98.3359 9.50785 98.4545 10.3193 98.6917C11.1484 98.9288 11.8716 99.2846 12.489 99.7589C13.124 100.216 13.6444 100.775 14.0501 101.436L11.7746 103.596C11.4218 103.071 11.0249 102.639 10.5839 102.3C10.1429 101.944 9.66661 101.682 9.15506 101.512C8.6435 101.326 8.10549 101.233 7.54102 101.233C6.90598 101.233 6.35033 101.317 5.87405 101.487C5.41542 101.656 5.0538 101.902 4.78921 102.224C4.52461 102.529 4.39231 102.901 4.39231 103.342C4.39231 103.68 4.47169 103.985 4.63045 104.256C4.78921 104.51 5.0097 104.739 5.29194 104.942C5.59182 105.146 5.97107 105.324 6.42971 105.476C6.88834 105.628 7.40872 105.764 7.99083 105.883C8.96102 106.069 9.83419 106.323 10.6103 106.645C11.3865 106.95 12.048 107.322 12.5948 107.763C13.1417 108.186 13.5562 108.678 13.8384 109.237C14.1207 109.779 14.2618 110.389 14.2618 111.066C14.2618 112.235 13.9707 113.243 13.3886 114.09C12.8241 114.92 12.0215 115.564 10.9808 116.021C9.94003 116.461 8.72288 116.682 7.32934 116.682Z" fill="white"/>
<path fill-rule="evenodd" clip-rule="evenodd" d="M28.4688 116.307C28.9049 116.307 29.3411 116.308 29.7773 116.309C31.1449 116.311 32.5125 116.313 33.8799 116.311C34.2584 116.311 34.6391 116.298 35.0144 116.254C36.0014 116.14 36.9293 115.829 37.8008 115.351C39.5331 114.4 40.8015 113.019 41.5941 111.205C42.25 109.703 42.4602 108.131 42.2915 106.504C42.1747 105.378 41.8495 104.318 41.3036 103.328C40.4763 101.828 39.3025 100.681 37.7855 99.8902C36.8084 99.3812 35.7695 99.075 34.6707 99.0003C34.2269 98.9703 33.7807 98.9704 33.3354 98.9705C33.2778 98.9705 33.2202 98.9705 33.1626 98.9704C31.598 98.9686 30.0334 98.9686 28.4688 98.9688V103.01C28.6673 103.009 28.8659 103.008 29.0644 103.008C29.8016 103.008 30.5389 103.011 31.2762 103.014C31.988 103.017 32.6999 103.019 33.4116 103.019C34.0594 103.019 34.7022 103.048 35.3252 103.248C36.6302 103.667 37.6001 104.475 38.155 105.745C38.5727 106.701 38.597 107.694 38.3647 108.699C37.8888 110.756 36.2504 112.128 34.1808 112.189C33.1455 112.219 32.1098 112.234 31.0745 112.239C30.2058 112.243 29.3373 112.244 28.4688 112.243V116.307Z" fill="white"/>
<path d="M56.9343 39.1213C56.3907 37.1756 55.949 35.2028 55.611 33.2111C54.8161 28.5325 57.5995 23.5458 62.549 20.7797C70.7233 16.2108 79.5538 12.7839 88.6698 10.6422C94.1895 9.34526 99.6085 11.1489 102.177 15.1386C104.718 19.0848 106.755 23.2893 108.262 27.6878L56.9343 39.1213Z" fill="#10C5C3"/>
<path d="M64.8068 66.7884C60.044 65.9808 56.2455 62.3699 55.1969 57.6542C53.2573 48.9269 53.2573 39.8801 55.1969 31.1528C56.2446 26.4371 60.044 22.8262 64.8068 22.0187C77.8612 19.8063 91.1947 19.8063 104.249 22.0187C109.012 22.8262 112.81 26.4371 113.859 31.1528C115.799 39.88 115.799 48.9262 113.859 57.6542C112.811 62.3699 109.012 65.9808 104.249 66.7884C91.1947 69.0007 77.8612 69.0007 64.8068 66.7884Z" fill="url(#paint0_linear_1082_892)"/>
<mask id="mask0_1082_892" style="mask-type:alpha" maskUnits="userSpaceOnUse" x="53" y="20" width="63" height="49">
<path d="M64.8068 66.7884C60.044 65.9808 56.2455 62.3699 55.1969 57.6542C53.2573 48.9269 53.2573 39.8801 55.1969 31.1528C56.2446 26.4371 60.044 22.8262 64.8068 22.0187C77.8612 19.8063 91.1947 19.8063 104.249 22.0187C109.012 22.8262 112.81 26.4371 113.859 31.1528C115.799 39.88 115.799 48.9262 113.859 57.6542C112.811 62.3699 109.012 65.9808 104.249 66.7884C91.1947 69.0007 77.8612 69.0007 64.8068 66.7884Z" fill="url(#paint1_linear_1082_892)"/>
</mask>
<g mask="url(#mask0_1082_892)">
<path opacity="0.6" d="M65.0256 86.0618C60.2627 85.2542 56.4643 81.6434 55.4156 76.9277C53.476 68.2003 53.476 59.1536 55.4156 50.4262C56.4634 45.7105 60.2627 42.0997 65.0256 41.2921C78.0799 39.0797 91.4135 39.0797 104.468 41.2921C109.231 42.0997 113.029 45.7105 114.078 50.4262C116.017 59.1534 116.017 68.1996 114.078 76.9277C113.03 81.6434 109.231 85.2542 104.468 86.0618C91.4135 88.2742 78.0799 88.2742 65.0256 86.0618Z" fill="white"/>
</g>
<path d="M92.4469 49.4282C94.2451 51.0295 96.5088 52.0131 98.9064 52.2351L99.1547 52.2578C103.894 52.6964 108.665 52.6964 113.404 52.2578C115.686 52.0466 117.489 50.2339 117.689 47.9517C117.913 45.3822 117.913 42.7983 117.689 40.2288C117.489 37.9466 115.686 36.1339 113.404 35.9228C108.665 35.4841 103.894 35.4841 99.1547 35.9228L98.9064 35.9454C96.5088 36.1674 94.2451 37.151 92.4469 38.7524C91.951 39.1939 91.5317 39.7145 91.2061 40.2931C90.5537 41.452 90.2109 42.7595 90.2109 44.0894C90.2109 45.4192 90.5537 46.7267 91.2061 47.8856C91.5317 48.4642 91.951 48.9848 92.4469 49.4264V49.4282Z" fill="#10C5C3"/>
<path d="M94.2656 44.0998C94.2656 45.1021 94.6638 46.0634 95.3726 46.7722C96.0814 47.481 97.0427 47.8792 98.0451 47.8792C99.0474 47.8792 100.009 47.481 100.718 46.7722C101.426 46.0634 101.825 45.1021 101.825 44.0998C101.825 43.0974 101.426 42.1361 100.718 41.4273C100.009 40.7185 99.0474 40.3203 98.0451 40.3203C97.0427 40.3203 96.0814 40.7185 95.3726 41.4273C94.6638 42.1361 94.2656 43.0974 94.2656 44.0998Z" fill="white"/>
<defs>
<linearGradient id="paint0_linear_1082_892" x1="89.7378" y1="24.541" x2="82.6788" y2="69.671" gradientUnits="userSpaceOnUse">
<stop stop-color="#68FFF1"/>
<stop offset="1" stop-color="#00C2EC"/>
</linearGradient>
<linearGradient id="paint1_linear_1082_892" x1="89.7378" y1="24.541" x2="82.6788" y2="69.671" gradientUnits="userSpaceOnUse">
<stop stop-color="#68FFF1"/>
<stop offset="1" stop-color="#00C2EC"/>
</linearGradient>
</defs>
</svg>
