<svg width="26" height="26" viewBox="0 0 26 26" fill="none" xmlns="http://www.w3.org/2000/svg">
<g clip-path="url(#clip0_14524_12020)">
<path d="M19.623 5.62806C19.623 5.99406 19.7684 6.34507 20.0272 6.60387C20.286 6.86267 20.6371 7.00807 21.0031 7.00807C21.3691 7.00807 21.7201 6.86267 21.9789 6.60387C22.2377 6.34507 22.3831 5.99406 22.3831 5.62806C22.3831 5.26206 22.2377 4.91104 21.9789 4.65224C21.7201 4.39344 21.3691 4.24805 21.0031 4.24805C20.6371 4.24805 20.286 4.39344 20.0272 4.65224C19.7684 4.91104 19.623 5.26206 19.623 5.62806Z" fill="#7D7D7D"/>
<path d="M22.1865 13.0864C22.1865 13.3101 22.2305 13.5316 22.3161 13.7383C22.4017 13.945 22.5272 14.1328 22.6854 14.291C22.8435 14.4492 23.0313 14.5747 23.238 14.6603C23.4447 14.7459 23.6662 14.79 23.8899 14.79C24.1136 14.79 24.3351 14.7459 24.5418 14.6603C24.7485 14.5747 24.9363 14.4492 25.0944 14.291C25.2526 14.1328 25.3781 13.945 25.4637 13.7383C25.5493 13.5316 25.5933 13.3101 25.5933 13.0864C25.5933 12.8627 25.5493 12.6412 25.4637 12.4345C25.3781 12.2278 25.2526 12.04 25.0944 11.8818C24.9363 11.7236 24.7485 11.5981 24.5418 11.5125C24.3351 11.4269 24.1136 11.3828 23.8899 11.3828C23.6662 11.3828 23.4447 11.4269 23.238 11.5125C23.0313 11.5981 22.8435 11.7236 22.6854 11.8818C22.5272 12.04 22.4017 12.2278 22.3161 12.4345C22.2305 12.6412 22.1865 12.8627 22.1865 13.0864Z" fill="#7D7D7D"/>
<path d="M19.0625 20.5814C19.0625 21.1132 19.2738 21.6232 19.6498 21.9993C20.0259 22.3753 20.5359 22.5866 21.0677 22.5866C21.5995 22.5866 22.1096 22.3753 22.4856 21.9993C22.8617 21.6232 23.0729 21.1132 23.0729 20.5814C23.0729 20.0496 22.8617 19.5395 22.4856 19.1635C22.1096 18.7874 21.5995 18.5762 21.0677 18.5762C20.5359 18.5762 20.0259 18.7874 19.6498 19.1635C19.2738 19.5395 19.0625 20.0496 19.0625 20.5814Z" fill="#7D7D7D"/>
<path d="M11.2568 23.579C11.2568 23.8841 11.3169 24.1862 11.4336 24.468C11.5503 24.7499 11.7214 25.006 11.9371 25.2217C12.1528 25.4374 12.4089 25.6086 12.6907 25.7253C12.9726 25.8421 13.2747 25.9021 13.5797 25.9021C13.8848 25.9021 14.1869 25.8421 14.4687 25.7253C14.7506 25.6086 15.0067 25.4374 15.2224 25.2217C15.4381 25.006 15.6092 24.7499 15.7259 24.468C15.8426 24.1862 15.9027 23.8841 15.9026 23.579C15.9027 23.2739 15.8426 22.9718 15.7259 22.69C15.6092 22.4081 15.4381 22.152 15.2224 21.9363C15.0067 21.7206 14.7506 21.5495 14.4687 21.4327C14.1869 21.316 13.8848 21.2559 13.5797 21.2559C13.2747 21.2559 12.9726 21.316 12.6907 21.4327C12.4089 21.5495 12.1528 21.7206 11.9371 21.9363C11.7214 22.152 11.5503 22.4081 11.4336 22.69C11.3169 22.9718 11.2568 23.2739 11.2568 23.579Z" fill="#7D7D7D"/>
<path d="M3.60254 20.4633C3.60254 20.8031 3.66946 21.1396 3.79949 21.4535C3.92952 21.7674 4.1201 22.0526 4.36036 22.2929C4.60062 22.5331 4.88585 22.7237 5.19976 22.8538C5.51368 22.9838 5.85013 23.0507 6.1899 23.0507C6.52968 23.0507 6.86613 22.9838 7.18005 22.8538C7.49396 22.7237 7.77919 22.5331 8.01945 22.2929C8.25971 22.0526 8.45029 21.7674 8.58032 21.4535C8.71035 21.1396 8.77727 20.8031 8.77727 20.4633C8.77727 19.7771 8.50467 19.119 8.01945 18.6338C7.53422 18.1486 6.87612 17.876 6.1899 17.876C5.50369 17.876 4.84559 18.1486 4.36036 18.6338C3.87514 19.119 3.60254 19.7771 3.60254 20.4633Z" fill="#7D7D7D"/>
<path d="M10.8867 2.73849C10.8867 3.46478 11.1752 4.16133 11.6888 4.67489C12.2024 5.18846 12.8989 5.47698 13.6252 5.47698C14.3515 5.47698 15.048 5.18846 15.5616 4.67489C16.0752 4.16133 16.3637 3.46478 16.3637 2.73849C16.3637 2.37887 16.2929 2.02276 16.1552 1.69051C16.0176 1.35827 15.8159 1.05638 15.5616 0.802085C15.3073 0.547793 15.0054 0.346077 14.6732 0.208455C14.3409 0.0708331 13.9848 0 13.6252 0C13.2656 0 12.9095 0.0708331 12.5772 0.208455C12.245 0.346077 11.9431 0.547793 11.6888 0.802085C11.4345 1.05638 11.2328 1.35827 11.0952 1.69051C10.9576 2.02276 10.8867 2.37887 10.8867 2.73849Z" fill="#7D7D7D"/>
<path d="M3.45117 5.69357C3.45117 6.05319 3.52201 6.40929 3.65963 6.74154C3.79725 7.07379 3.99896 7.37568 4.25326 7.62997C4.50755 7.88426 4.80944 8.08598 5.14169 8.2236C5.47393 8.36122 5.83004 8.43205 6.18966 8.43205C6.54928 8.43205 6.90539 8.36122 7.23763 8.2236C7.56988 8.08598 7.87177 7.88426 8.12606 7.62997C8.38036 7.37568 8.58207 7.07379 8.71969 6.74154C8.85732 6.40929 8.92815 6.05319 8.92815 5.69357C8.92815 4.96727 8.63963 4.27073 8.12606 3.75716C7.6125 3.2436 6.91595 2.95508 6.18966 2.95508C5.46337 2.95508 4.76682 3.2436 4.25326 3.75716C3.73969 4.27073 3.45117 4.96727 3.45117 5.69357Z" fill="#7D7D7D"/>
<path d="M0.676758 12.9999C0.676758 13.3426 0.744249 13.6819 0.875379 13.9985C1.00651 14.315 1.19871 14.6027 1.441 14.845C1.6833 15.0873 1.97095 15.2795 2.28752 15.4106C2.6041 15.5417 2.9434 15.6092 3.28606 15.6092C3.62872 15.6092 3.96802 15.5417 4.2846 15.4106C4.60117 15.2795 4.88882 15.0873 5.13112 14.845C5.37341 14.6027 5.56561 14.315 5.69674 13.9985C5.82787 13.6819 5.89536 13.3426 5.89536 12.9999C5.89536 12.3079 5.62046 11.6442 5.13112 11.1549C4.64178 10.6655 3.97809 10.3906 3.28606 10.3906C2.59403 10.3906 1.93034 10.6655 1.441 11.1549C0.951666 11.6442 0.676758 12.3079 0.676758 12.9999Z" fill="#7D7D7D"/>
</g>
<defs>
<clipPath id="clip0_14524_12020">
<rect width="26" height="26" fill="#7D7D7D"/>
</clipPath>
</defs>
</svg>
