<svg width="454" height="51" viewBox="0 0 454 51" fill="none" xmlns="http://www.w3.org/2000/svg">
<path d="M416.182 10.319V3.21436H453.51V10.319H439.049V49.9998H430.643V10.319H416.182Z" fill="#F7771A"/>
<path d="M333.72 49.9998V3.21436H342.195V42.8952H362.801V49.9998H333.72Z" fill="#F7771A"/>
<path d="M292.779 49.9998V3.21436H301.255V42.8952H321.86V49.9998H292.779Z" fill="#F7771A"/>
<path d="M247.733 49.9998H238.687L255.158 3.21436H265.621L282.114 49.9998H273.068L260.572 12.809H260.206L247.733 49.9998Z" fill="#F7771A"/>
<path d="M186.696 49.9998L173.492 3.21436H182.607L191.036 37.5953H191.47L200.471 3.21436H208.764L217.787 37.6181H218.198L226.628 3.21436H235.743L222.539 49.9998H214.178L204.811 17.1723H204.446L195.057 49.9998H186.696Z" fill="#F7771A"/>
<path d="M403.906 31.1139V23.1053H375.065V23.107C375.065 32.2669 375.065 41.2622 375.01 50.2576H404.785V41.6458H383.745V31.1139H403.906Z" fill="#F7771A"/>
<path d="M404.84 12.1347V3.74219H375.065V12.1347H404.84Z" fill="#F7771A"/>
<rect x="62.3965" y="1.81201" width="47.0994" height="9.48606" transform="rotate(90 62.3965 1.81201)" fill="white"/>
<path d="M155.377 29.1837V21.1752H126.535V21.1769C126.535 30.3368 126.535 39.332 126.48 48.3275H156.256V39.7156H135.216V29.1837H155.377Z" fill="white"/>
<path d="M156.311 10.2045V1.81201H126.535V10.2045H156.311Z" fill="white"/>
<path d="M19.9038 49.9998C16.9817 49.9998 14.2991 49.6548 11.856 48.9648C9.41297 48.2287 7.20943 47.1477 5.2454 45.7216C3.28137 44.2956 1.5329 42.5705 0 40.5464L6.10765 33.9221C8.45491 37.0503 10.7543 39.2124 13.0057 40.4084C15.2572 41.6045 17.796 42.2025 20.6223 42.2025C22.251 42.2025 23.736 41.9725 25.0773 41.5125C26.4186 41.0064 27.4725 40.3394 28.2389 39.5114C29.0054 38.6373 29.3886 37.6483 29.3886 36.5442C29.3886 35.7622 29.2209 35.0492 28.8856 34.4052C28.5982 33.7151 28.1431 33.1171 27.5204 32.6111C26.8976 32.0591 26.1312 31.553 25.221 31.093C24.3109 30.633 23.2809 30.242 22.1313 29.92C20.9816 29.5979 19.7122 29.2989 18.323 29.0229C15.6883 28.5169 13.3889 27.8499 11.4249 27.0218C9.46088 26.1478 7.80822 25.0898 6.46693 23.8477C5.12564 22.5596 4.14362 21.1336 3.52088 19.5695C2.89814 17.9594 2.58677 16.1424 2.58677 14.1183C2.58677 12.0942 3.04185 10.2311 3.95201 8.52904C4.91007 6.82697 6.20346 5.35491 7.83217 4.11285C9.46087 2.8708 11.353 1.90476 13.5087 1.21473C15.6643 0.524702 17.9876 0.179688 20.4786 0.179688C23.3049 0.179688 25.8198 0.501701 28.0233 1.14573C30.2748 1.78976 32.2388 2.7558 33.9154 4.04385C35.64 5.28591 37.0531 6.80397 38.1549 8.59805L31.9754 14.4633C31.0173 13.0372 29.9395 11.8642 28.7419 10.9441C27.5443 9.97811 26.2509 9.26508 24.8617 8.80506C23.4725 8.29903 22.0115 8.04602 20.4786 8.04602C18.7541 8.04602 17.2451 8.27603 15.9518 8.73605C14.7063 9.19607 13.7243 9.8631 13.0057 10.7371C12.2872 11.5652 11.9279 12.5772 11.9279 13.7733C11.9279 14.6933 12.1435 15.5213 12.5746 16.2574C13.0057 16.9474 13.6045 17.5684 14.3709 18.1205C15.1853 18.6725 16.2152 19.1555 17.4607 19.5695C18.7062 19.9835 20.1193 20.3515 21.7001 20.6736C24.3348 21.1796 26.706 21.8696 28.8138 22.7437C30.9215 23.5717 32.7179 24.5837 34.2029 25.7798C35.6879 26.9298 36.8136 28.2639 37.58 29.782C38.3465 31.254 38.7297 32.9101 38.7297 34.7502C38.7297 37.9243 37.9393 40.6614 36.3585 42.9615C34.8256 45.2156 32.646 46.9637 29.8197 48.2057C26.9934 49.4018 23.6881 49.9998 19.9038 49.9998Z" fill="white"/>
<path fill-rule="evenodd" clip-rule="evenodd" d="M77.3047 48.9788C78.4898 48.9805 79.6748 48.9825 80.8599 48.9846C84.5738 48.9909 88.2876 48.9973 92.0007 48.9912C93.0285 48.99 94.0624 48.9543 95.0816 48.8364C97.762 48.5256 100.282 47.6815 102.649 46.3829C107.353 43.8016 110.797 40.0507 112.95 35.124C114.731 31.045 115.302 26.7768 114.844 22.3576C114.526 19.3008 113.643 16.421 112.161 13.734C109.914 9.66119 106.727 6.54423 102.607 4.39786C99.9535 3.01569 97.1323 2.18392 94.1482 1.9812C92.9431 1.89962 91.7313 1.8999 90.5222 1.90018C90.3657 1.90022 90.2093 1.90026 90.053 1.90012C85.8035 1.89523 81.5541 1.8952 77.3047 1.89574V12.8694C77.8443 12.8669 78.384 12.8654 78.9237 12.8654C80.9256 12.8641 82.9278 12.8721 84.93 12.8801C86.8631 12.8878 88.7963 12.8955 90.7292 12.8949C92.4883 12.8949 94.2339 12.9735 95.9257 13.5165C99.4697 14.6555 102.103 16.8497 103.61 20.2972C104.745 22.8932 104.811 25.5888 104.18 28.3187C102.887 33.9052 98.4382 37.6303 92.8178 37.7962C90.0064 37.8785 87.1938 37.919 84.3823 37.9325C82.0229 37.944 79.6638 37.9452 77.3047 37.9437V48.9788Z" fill="white"/>
</svg>
