<svg width="21" height="21" viewBox="0 0 21 21" fill="none" xmlns="http://www.w3.org/2000/svg">
<g id="&#230;&#173;&#163;&#231;&#161;&#174; 1" clip-path="url(#clip0_13941_314)">
<path id="Vector" opacity="0.01" d="M0.313477 0.78125H20.3135V20.7812H0.313477V0.78125Z" fill="none"/>
<g id="Group 1261153709">
<path id="Vector_2" d="M18.1689 10.377C18.1689 14.5193 14.8113 17.877 10.6689 17.877C6.52664 17.877 3.16895 14.5193 3.16895 10.377C3.16895 6.23465 6.52664 2.87695 10.6689 2.87695C14.8113 2.87695 18.1689 6.23465 18.1689 10.377Z" fill="#00A154"/>
<path id="Vector_3" d="M14.9935 7.38737C15.1445 7.53861 15.2294 7.74363 15.2294 7.95739C15.2294 8.17114 15.1445 8.37616 14.9935 8.52741L10.1537 13.3672C10.0025 13.5182 9.79743 13.6031 9.58368 13.6031C9.36992 13.6031 9.1649 13.5182 9.01366 13.3672L6.32489 10.6784C6.18241 10.5255 6.10484 10.3233 6.10852 10.1143C6.11221 9.90532 6.19687 9.70594 6.34466 9.55815C6.49244 9.41036 6.69183 9.3257 6.9008 9.32202C7.10977 9.31833 7.31202 9.3959 7.46493 9.53838L9.58368 11.6561L13.8534 7.38629C14.0047 7.23524 14.2097 7.15039 14.4235 7.15039C14.6372 7.15039 14.8422 7.23524 14.9935 7.38629V7.38737Z" fill="white"/>
</g>
</g>
<defs>
<clipPath id="clip0_13941_314">
<rect width="20" height="20" fill="white" transform="translate(0.313477 0.78125)"/>
</clipPath>
</defs>
</svg>
