<svg width="114" height="114" viewBox="0 0 114 114" fill="none" xmlns="http://www.w3.org/2000/svg">
<g id="Group 1">
<circle id="Ellipse 1" cx="56.8071" cy="57.0694" r="56.8071" fill="#50AF95"/>
<path id="Vector" fill-rule="evenodd" clip-rule="evenodd" d="M64.2368 59.5955C63.8218 59.6266 61.6778 59.7546 56.8953 59.7546C53.0914 59.7546 50.3906 59.6405 49.4431 59.5955C34.7428 58.9488 23.7703 56.3899 23.7703 53.326C23.7703 50.2621 34.7428 47.7066 49.4431 47.0496V57.0469C50.4045 57.1161 53.1571 57.2786 56.961 57.2786C61.5257 57.2786 63.8115 57.0884 64.223 57.0504V47.0565C78.8922 47.7101 89.8405 50.269 89.8405 53.326C89.8405 56.3829 78.8956 58.9419 64.223 59.592L64.2368 59.5955ZM64.2368 46.0225V37.0765H84.7087V23.4343H28.9713V37.0765H49.4397V46.0191C32.8028 46.7833 20.2915 50.0788 20.2915 54.028C20.2915 57.9771 32.8028 61.2692 49.4397 62.0369V90.7044H64.2333V62.0265C80.8321 61.2623 93.3227 57.9702 93.3227 54.0245C93.3227 50.0789 80.8425 46.7868 64.2333 46.0191L64.2368 46.0225Z" fill="white"/>
</g>
</svg>
