<svg width="20" height="20" viewBox="0 0 20 20" fill="none" xmlns="http://www.w3.org/2000/svg">
<path d="M16.666 7.91927V6.0026C16.666 5.06918 16.666 4.60247 16.4844 4.24595C16.3246 3.93235 16.0696 3.67738 15.756 3.5176C15.3995 3.33594 14.9328 3.33594 13.9993 3.33594H4.33268C3.39926 3.33594 2.93255 3.33594 2.57603 3.51759C2.26243 3.67738 2.00746 3.93235 1.84767 4.24595C1.66602 4.60247 1.66602 5.06918 1.66602 6.0026V14.0026C1.66602 14.936 1.66602 15.4027 1.84767 15.7593C2.00746 16.0729 2.26243 16.3278 2.57603 16.4876C2.93255 16.6693 3.39926 16.6693 4.33268 16.6693L13.9993 16.6693C14.9328 16.6693 15.3995 16.6693 15.756 16.4876C16.0696 16.3278 16.3246 16.0729 16.4844 15.7593C16.666 15.4027 16.666 14.936 16.666 14.0026V12.0859M12.4993 10.0026C12.4993 9.61539 12.4993 9.42179 12.5314 9.26079C12.6629 8.59964 13.1797 8.08281 13.8409 7.9513C14.0019 7.91927 14.1955 7.91927 14.5827 7.91927H16.2493C16.6366 7.91927 16.8302 7.91927 16.9912 7.9513C17.6523 8.08281 18.1691 8.59964 18.3007 9.26079C18.3327 9.42179 18.3327 9.61539 18.3327 10.0026C18.3327 10.3898 18.3327 10.5834 18.3007 10.7444C18.1691 11.4056 17.6523 11.9224 16.9912 12.0539C16.8302 12.0859 16.6366 12.0859 16.2493 12.0859H14.5827C14.1955 12.0859 14.0019 12.0859 13.8409 12.0539C13.1797 11.9224 12.6629 11.4056 12.5314 10.7444C12.4993 10.5834 12.4993 10.3898 12.4993 10.0026Z" stroke="#828282" stroke-width="2" stroke-linecap="round" stroke-linejoin="round"/>
</svg>
