<svg width="90" height="90" viewBox="0 0 90 90" fill="none" xmlns="http://www.w3.org/2000/svg">
<g clip-path="url(#clip0_133_2162)">
<path d="M45.8892 68.527C51.9209 66.2497 75.5592 54.9028 76.6053 16.6465C76.6499 15.0167 75.7996 13.4763 74.4152 12.615C56.0988 1.21805 32.8979 1.21805 14.5814 12.615C13.1971 13.4763 12.3467 15.0167 12.3913 16.6465C13.4375 54.9028 37.0758 66.2497 43.1074 68.527C44.008 68.867 44.9887 68.867 45.8892 68.527Z" fill="url(#paint0_linear_133_2162)"/>
<g filter="url(#filter0_bd_133_2162)">
<path d="M43.5364 8.55066L7.97865 28.8693C7.37348 29.2151 6.99852 29.8802 7.00679 30.5771C7.54377 75.8461 39.7784 86.9557 44.0373 88.2265C44.3453 88.3184 44.6547 88.3184 44.9627 88.2265C49.2216 86.9557 81.4562 75.8461 81.9932 30.5771C82.0015 29.8802 81.6265 29.2151 81.0214 28.8693L45.4636 8.55066C44.8665 8.20944 44.1335 8.20944 43.5364 8.55066Z" fill="url(#paint1_linear_133_2162)" shape-rendering="crispEdges"/>
<path d="M8.95184 30.5503C8.95185 30.5503 8.95187 30.5503 8.95189 30.5502L44.5 10.237L80.0481 30.5502C80.0481 30.5503 80.0481 30.5503 80.0482 30.5503C80.0496 30.5529 80.0505 30.5554 80.051 30.557C79.788 52.6739 71.8059 66.2828 63.5053 74.5227C55.2812 82.6867 46.6274 85.6912 44.5 86.3374C42.3727 85.6912 33.7188 82.6867 25.4947 74.5227C17.1941 66.2827 9.21201 52.6739 8.94898 30.557C8.94944 30.5553 8.95038 30.5529 8.95184 30.5503Z" stroke="url(#paint2_linear_133_2162)" stroke-width="3.88459" shape-rendering="crispEdges"/>
</g>
</g>
<g filter="url(#filter1_di_133_2162)">
<path d="M39.5285 43.3117H34.7453V37.7313C34.7453 36.5165 34.9857 35.3839 35.4665 34.3337C35.9474 33.2834 36.6117 32.3596 37.4595 31.5624C38.3074 30.7652 39.307 30.1389 40.4585 29.6833C41.6101 29.2278 42.8691 29 44.2358 29C45.4506 29 46.621 29.2278 47.7473 29.6833C48.8735 30.1389 49.8731 30.7652 50.7463 31.5624C51.6194 32.3596 52.3154 33.2834 52.8342 34.3337C53.353 35.3839 53.6124 36.5165 53.6124 37.7313V43.3117H49.019V38.7942C49.019 37.1998 48.5761 35.966 47.6903 35.0929C46.8045 34.2198 45.6024 33.7832 44.0839 33.7832C42.7173 33.7832 41.6164 34.2198 40.7812 35.0929C39.9461 35.966 39.5285 37.1998 39.5285 38.7942V43.3117ZM55.8901 45.5894C56.5734 45.5894 57.1618 45.8362 57.6553 46.3297C58.1489 46.8232 58.3956 47.4116 58.3956 48.0949V59.8631C58.3956 60.5465 58.2754 61.1855 58.035 61.7802C57.7945 62.375 57.4655 62.8938 57.048 63.3367C56.6304 63.7796 56.1369 64.1275 55.5674 64.3806C54.998 64.6337 54.3716 64.7602 53.6883 64.7602H34.5175C33.8342 64.7602 33.2141 64.6337 32.6573 64.3806C32.1006 64.1275 31.626 63.7922 31.2338 63.3746C30.8415 62.957 30.5378 62.4699 30.3227 61.9131C30.1076 61.3563 30 60.7616 30 60.1289V48.0949C30 47.4116 30.2404 46.8232 30.7213 46.3297C31.2021 45.8362 31.7842 45.5894 32.4675 45.5894H34.7453H39.5285H49.019H53.6124H55.8901Z" fill="url(#paint3_linear_133_2162)" shape-rendering="crispEdges"/>
</g>
<g filter="url(#filter2_di_133_2162)">
<ellipse cx="2.81908" cy="2.79111" rx="2.81908" ry="2.79111" transform="matrix(0.985835 -0.166854 0.170264 0.985548 37.6172 52.1875)" fill="url(#paint4_linear_133_2162)" shape-rendering="crispEdges"/>
</g>
<g filter="url(#filter3_di_133_2162)">
<path d="M47.3963 49.6508C47.6749 49.9119 47.949 50.1764 48.1953 50.4694C49.8609 52.4524 50.2214 55.2964 49.0953 57.6191C48.3509 59.1545 47.188 60.27 45.6072 60.936C44.2088 61.5255 42.7591 61.6294 41.2785 61.2651C41.254 61.259 41.2306 61.2504 41.2019 61.2269C43.0514 61.1717 44.6617 60.5442 45.9652 59.2434C47.2697 57.9422 47.9413 56.3589 47.9435 54.5178C47.9455 53.016 47.4823 51.6565 46.5614 50.4586C45.6435 49.2636 44.4405 48.4714 42.986 48.0464C43.0135 47.9934 43.0516 48.0114 43.0814 48.0123C43.8441 48.0267 44.5824 48.167 45.2976 48.43C45.6989 48.5777 46.0812 48.7625 46.4484 48.9799C46.4663 48.9904 46.4877 48.9955 46.5075 49.0035L47.3956 49.6509L47.3963 49.6508Z" fill="url(#paint5_linear_133_2162)" shape-rendering="crispEdges"/>
</g>
<defs>
<filter id="filter0_bd_133_2162" x="-8.53056" y="-7.2415" width="106.061" height="126.615" filterUnits="userSpaceOnUse" color-interpolation-filters="sRGB">
<feFlood flood-opacity="0" result="BackgroundImageFix"/>
<feGaussianBlur in="BackgroundImageFix" stdDeviation="7.76919"/>
<feComposite in2="SourceAlpha" operator="in" result="effect1_backgroundBlur_133_2162"/>
<feColorMatrix in="SourceAlpha" type="matrix" values="0 0 0 0 0 0 0 0 0 0 0 0 0 0 0 0 0 0 127 0" result="hardAlpha"/>
<feOffset dy="15.5384"/>
<feGaussianBlur stdDeviation="7.76919"/>
<feComposite in2="hardAlpha" operator="out"/>
<feColorMatrix type="matrix" values="0 0 0 0 0 0 0 0 0 0 0 0 0 0 0 0 0 0 0.25 0"/>
<feBlend mode="normal" in2="effect1_backgroundBlur_133_2162" result="effect2_dropShadow_133_2162"/>
<feBlend mode="normal" in="SourceGraphic" in2="effect2_dropShadow_133_2162" result="shape"/>
</filter>
<filter id="filter1_di_133_2162" x="24.1731" y="27.0577" width="40.0483" height="53.2385" filterUnits="userSpaceOnUse" color-interpolation-filters="sRGB">
<feFlood flood-opacity="0" result="BackgroundImageFix"/>
<feColorMatrix in="SourceAlpha" type="matrix" values="0 0 0 0 0 0 0 0 0 0 0 0 0 0 0 0 0 0 127 0" result="hardAlpha"/>
<feOffset dy="3.88459"/>
<feGaussianBlur stdDeviation="2.91344"/>
<feComposite in2="hardAlpha" operator="out"/>
<feColorMatrix type="matrix" values="0 0 0 0 0 0 0 0 0 0 0 0 0 0 0 0 0 0 0.25 0"/>
<feBlend mode="normal" in2="BackgroundImageFix" result="effect1_dropShadow_133_2162"/>
<feBlend mode="normal" in="SourceGraphic" in2="effect1_dropShadow_133_2162" result="shape"/>
<feColorMatrix in="SourceAlpha" type="matrix" values="0 0 0 0 0 0 0 0 0 0 0 0 0 0 0 0 0 0 127 0" result="hardAlpha"/>
<feOffset dy="31.0767"/>
<feGaussianBlur stdDeviation="7.76919"/>
<feComposite in2="hardAlpha" operator="arithmetic" k2="-1" k3="1"/>
<feColorMatrix type="matrix" values="0 0 0 0 1 0 0 0 0 1 0 0 0 0 1 0 0 0 0.25 0"/>
<feBlend mode="normal" in2="shape" result="effect2_innerShadow_133_2162"/>
</filter>
<filter id="filter2_di_133_2162" x="32.2239" y="49.7374" width="17.2944" height="17.2319" filterUnits="userSpaceOnUse" color-interpolation-filters="sRGB">
<feFlood flood-opacity="0" result="BackgroundImageFix"/>
<feColorMatrix in="SourceAlpha" type="matrix" values="0 0 0 0 0 0 0 0 0 0 0 0 0 0 0 0 0 0 127 0" result="hardAlpha"/>
<feOffset dy="3.88459"/>
<feGaussianBlur stdDeviation="2.91344"/>
<feComposite in2="hardAlpha" operator="out"/>
<feColorMatrix type="matrix" values="0 0 0 0 0 0 0 0 0 0 0 0 0 0 0 0 0 0 0.25 0"/>
<feBlend mode="normal" in2="BackgroundImageFix" result="effect1_dropShadow_133_2162"/>
<feBlend mode="normal" in="SourceGraphic" in2="effect1_dropShadow_133_2162" result="shape"/>
<feColorMatrix in="SourceAlpha" type="matrix" values="0 0 0 0 0 0 0 0 0 0 0 0 0 0 0 0 0 0 127 0" result="hardAlpha"/>
<feOffset dy="31.0767"/>
<feGaussianBlur stdDeviation="7.76919"/>
<feComposite in2="hardAlpha" operator="arithmetic" k2="-1" k3="1"/>
<feColorMatrix type="matrix" values="0 0 0 0 1 0 0 0 0 1 0 0 0 0 1 0 0 0 0.25 0"/>
<feBlend mode="normal" in2="shape" result="effect2_innerShadow_133_2162"/>
</filter>
<filter id="filter3_di_133_2162" x="35.3762" y="46.0655" width="20.1967" height="25.1225" filterUnits="userSpaceOnUse" color-interpolation-filters="sRGB">
<feFlood flood-opacity="0" result="BackgroundImageFix"/>
<feColorMatrix in="SourceAlpha" type="matrix" values="0 0 0 0 0 0 0 0 0 0 0 0 0 0 0 0 0 0 127 0" result="hardAlpha"/>
<feOffset dy="3.88459"/>
<feGaussianBlur stdDeviation="2.91344"/>
<feComposite in2="hardAlpha" operator="out"/>
<feColorMatrix type="matrix" values="0 0 0 0 0 0 0 0 0 0 0 0 0 0 0 0 0 0 0.25 0"/>
<feBlend mode="normal" in2="BackgroundImageFix" result="effect1_dropShadow_133_2162"/>
<feBlend mode="normal" in="SourceGraphic" in2="effect1_dropShadow_133_2162" result="shape"/>
<feColorMatrix in="SourceAlpha" type="matrix" values="0 0 0 0 0 0 0 0 0 0 0 0 0 0 0 0 0 0 127 0" result="hardAlpha"/>
<feOffset dy="31.0767"/>
<feGaussianBlur stdDeviation="7.76919"/>
<feComposite in2="hardAlpha" operator="arithmetic" k2="-1" k3="1"/>
<feColorMatrix type="matrix" values="0 0 0 0 1 0 0 0 0 1 0 0 0 0 1 0 0 0 0.25 0"/>
<feBlend mode="normal" in2="shape" result="effect2_innerShadow_133_2162"/>
</filter>
<linearGradient id="paint0_linear_133_2162" x1="26.6528" y1="20.6505" x2="96.5079" y2="73.2243" gradientUnits="userSpaceOnUse">
<stop stop-color="#75EDA1"/>
<stop offset="1" stop-color="#349256"/>
</linearGradient>
<linearGradient id="paint1_linear_133_2162" x1="-4.25" y1="96.3928" x2="87.66" y2="14.3399" gradientUnits="userSpaceOnUse">
<stop stop-color="white" stop-opacity="0.2"/>
<stop offset="1" stop-color="white" stop-opacity="0.5"/>
</linearGradient>
<linearGradient id="paint2_linear_133_2162" x1="74.5" y1="96.3928" x2="1.46577" y2="14.9732" gradientUnits="userSpaceOnUse">
<stop stop-color="white" stop-opacity="0"/>
<stop offset="1" stop-color="white"/>
</linearGradient>
<linearGradient id="paint3_linear_133_2162" x1="39.9385" y1="67.3145" x2="53.2006" y2="21.0688" gradientUnits="userSpaceOnUse">
<stop stop-color="white" stop-opacity="0.2"/>
<stop offset="1" stop-color="white" stop-opacity="0.5"/>
</linearGradient>
<linearGradient id="paint4_linear_133_2162" x1="1.97335" y1="5.98095" x2="3.64958" y2="-1.45385" gradientUnits="userSpaceOnUse">
<stop stop-color="white" stop-opacity="0.2"/>
<stop offset="1" stop-color="white" stop-opacity="0.5"/>
</linearGradient>
<linearGradient id="paint5_linear_133_2162" x1="49.9618" y1="50.3717" x2="36.1888" y2="61.313" gradientUnits="userSpaceOnUse">
<stop stop-color="white" stop-opacity="0.2"/>
<stop offset="1" stop-color="white" stop-opacity="0.5"/>
</linearGradient>
<clipPath id="clip0_133_2162">
<rect width="90" height="90" rx="24" fill="white"/>
</clipPath>
</defs>
</svg>
