<svg xmlns="http://www.w3.org/2000/svg" width="20" height="20" viewBox="0 0 20 20" fill="none">
  <g clip-path="url(#clip0_4353_64)">
    <path d="M6.66602 6.66406V4.33073C6.66602 3.39731 6.66602 2.9306 6.84767 2.57408C7.00746 2.26047 7.26243 2.00551 7.57603 1.84572C7.93255 1.66406 8.39926 1.66406 9.33268 1.66406H15.666C16.5994 1.66406 17.0661 1.66406 17.4227 1.84572C17.7363 2.00551 17.9912 2.26047 18.151 2.57408C18.3327 2.9306 18.3327 3.39731 18.3327 4.33073V10.6641C18.3327 11.5975 18.3327 12.0642 18.151 12.4207C17.9912 12.7343 17.7363 12.9893 17.4227 13.1491C17.0661 13.3307 16.5994 13.3307 15.666 13.3307H13.3327M4.33268 18.3307H10.666C11.5994 18.3307 12.0661 18.3307 12.4227 18.1491C12.7363 17.9893 12.9912 17.7343 13.151 17.4207C13.3327 17.0642 13.3327 16.5975 13.3327 15.6641V9.33073C13.3327 8.39731 13.3327 7.9306 13.151 7.57408C12.9912 7.26047 12.7363 7.00551 12.4227 6.84572C12.0661 6.66406 11.5994 6.66406 10.666 6.66406H4.33268C3.39926 6.66406 2.93255 6.66406 2.57603 6.84572C2.26243 7.00551 2.00746 7.26047 1.84767 7.57408C1.66602 7.9306 1.66602 8.39731 1.66602 9.33073V15.6641C1.66602 16.5975 1.66602 17.0642 1.84767 17.4207C2.00746 17.7343 2.26243 17.9893 2.57603 18.1491C2.93255 18.3307 3.39926 18.3307 4.33268 18.3307Z" stroke="white" stroke-width="1.5" stroke-linecap="round" stroke-linejoin="round"/>
  </g>
  <defs>
    <clipPath id="clip0_4353_64">
      <rect width="20" height="20" fill="white"/>
    </clipPath>
  </defs>
</svg>