<svg width="41" height="42" viewBox="0 0 41 42" fill="none" xmlns="http://www.w3.org/2000/svg">
<circle cx="20.6328" cy="21" r="20" fill="black" stroke="#2A2A2A" stroke-width="0.70069"/>
<path d="M30.3725 11.7736C30.3647 11.7588 30.3518 11.7471 30.3361 11.7408C28.5207 10.9209 26.6049 10.3362 24.6367 10.0014C24.6188 9.99816 24.6004 10.0005 24.5839 10.0082C24.5675 10.0158 24.5539 10.0284 24.5452 10.0441C24.2843 10.5102 24.0475 10.9889 23.8356 11.4785C21.714 11.1614 19.556 11.1614 17.4344 11.4785C17.2211 10.9877 16.9805 10.5088 16.7137 10.0441C16.7045 10.0287 16.6909 10.0165 16.6745 10.0089C16.6582 10.0013 16.6399 9.99866 16.622 10.0014C14.6536 10.3355 12.7377 10.9202 10.9226 11.7408C10.907 11.7473 10.8939 11.7584 10.8851 11.7725C7.25509 17.1087 6.26071 22.3137 6.74852 27.4542C6.74989 27.4668 6.75382 27.479 6.76008 27.49C6.76634 27.5011 6.7748 27.5108 6.78495 27.5186C8.89864 29.0592 11.2628 30.2351 13.7766 30.9962C13.7943 31.0015 13.8132 31.0012 13.8308 30.9956C13.8484 30.9899 13.8638 30.9791 13.8749 30.9646C14.4148 30.2414 14.8932 29.4757 15.3052 28.6751C15.3109 28.6641 15.3141 28.6521 15.3147 28.6397C15.3153 28.6274 15.3132 28.6152 15.3086 28.6037C15.3041 28.5922 15.2971 28.5819 15.2881 28.5733C15.2791 28.5646 15.2684 28.558 15.2567 28.5538C14.5023 28.2696 13.7719 27.9271 13.0725 27.5294C13.0598 27.5221 13.0491 27.5117 13.0414 27.4994C13.0337 27.487 13.0293 27.4729 13.0284 27.4585C13.0275 27.444 13.0303 27.4295 13.0364 27.4163C13.0426 27.4031 13.0519 27.3917 13.0637 27.3829C13.2109 27.2747 13.3555 27.1631 13.4974 27.0483C13.5099 27.0382 13.525 27.0318 13.541 27.0296C13.5569 27.0275 13.5732 27.0298 13.5879 27.0363C18.1703 29.0949 23.1313 29.0949 27.6594 27.0363C27.6742 27.0294 27.6906 27.0268 27.7068 27.0287C27.723 27.0307 27.7384 27.0371 27.751 27.0472C27.8931 27.1626 28.0381 27.2745 28.1859 27.3829C28.1977 27.3916 28.2071 27.403 28.2134 27.4161C28.2196 27.4292 28.2225 27.4437 28.2217 27.4582C28.221 27.4727 28.2166 27.4867 28.209 27.4992C28.2014 27.5116 28.1908 27.522 28.1782 27.5294C27.4803 27.9304 26.7493 28.2728 25.9929 28.5527C25.9812 28.5571 25.9705 28.5639 25.9616 28.5726C25.9527 28.5814 25.9458 28.5918 25.9413 28.6034C25.9368 28.615 25.9348 28.6273 25.9355 28.6397C25.9362 28.652 25.9395 28.6641 25.9453 28.6751C26.3642 29.4712 26.8419 30.236 27.3745 30.9633C27.3854 30.9782 27.4007 30.9894 27.4183 30.9953C27.4359 31.0012 27.455 31.0015 27.4728 30.9961C29.9911 30.2376 32.3594 29.0615 34.4758 27.5186C34.4861 27.5112 34.4946 27.5017 34.5009 27.4908C34.5072 27.4799 34.511 27.4678 34.5122 27.4553C35.0962 21.5123 33.5345 16.35 30.3725 11.7736ZM15.9896 24.3241C14.6099 24.3241 13.4732 23.0779 13.4732 21.5473C13.4732 20.0167 14.5879 18.7704 15.9896 18.7704C17.4022 18.7704 18.5279 20.0276 18.5059 21.5472C18.5059 23.0779 17.3911 24.3241 15.9896 24.3241ZM25.2934 24.3241C23.9138 24.3241 22.7771 23.0779 22.7771 21.5473C22.7771 20.0167 23.8918 18.7704 25.2934 18.7704C26.7061 18.7704 27.8318 20.0276 27.8098 21.5472C27.8098 23.0779 26.7061 24.3241 25.2934 24.3241Z" fill="white"/>
</svg>
