<svg width="16" height="16" viewBox="0 0 16 16" fill="none" xmlns="http://www.w3.org/2000/svg">
<g clip-path="url(#clip0_48_7983)">
<path d="M9.33398 14.6693H4.53398M4.53398 14.6693C3.41388 14.6693 2.85383 14.6693 2.426 14.4513C2.04968 14.2595 1.74372 13.9536 1.55197 13.5773C1.33398 13.1494 1.33398 12.5894 1.33398 11.4693M4.53398 14.6693H4.80065C5.92076 14.6693 6.48081 14.6693 6.90863 14.4513C7.28496 14.2595 7.59092 13.9536 7.78266 13.5773C8.00065 13.1494 8.00065 12.5894 8.00065 11.4693V11.2026C8.00065 10.0825 8.00065 9.52245 7.78266 9.09462C7.59092 8.7183 7.28496 8.41234 6.90863 8.22059C6.48081 8.0026 5.92076 8.0026 4.80065 8.0026H4.53398C3.41388 8.0026 2.85383 8.0026 2.426 8.22059C2.04968 8.41234 1.74372 8.7183 1.55197 9.09462C1.33398 9.52245 1.33398 10.0825 1.33398 11.2026V11.4693M1.33398 11.4693V6.66927M6.66732 1.33594H9.33398M14.6673 6.66927V9.33594M12.0007 14.6693C12.6206 14.6693 12.9306 14.6693 13.185 14.6011C13.8751 14.4162 14.4142 13.8771 14.5992 13.1869C14.6673 12.9326 14.6673 12.6226 14.6673 12.0026M14.6673 4.0026C14.6673 3.38262 14.6673 3.07263 14.5992 2.8183C14.4142 2.12812 13.8751 1.58902 13.185 1.40409C12.9306 1.33594 12.6206 1.33594 12.0007 1.33594M4.00065 1.33594C3.38067 1.33594 3.07068 1.33594 2.81635 1.40409C2.12616 1.58902 1.58707 2.12812 1.40213 2.8183C1.33398 3.07263 1.33398 3.38262 1.33398 4.0026" stroke="black" stroke-width="2" stroke-linecap="round" stroke-linejoin="round"/>
</g>
<defs>
<clipPath id="clip0_48_7983">
<rect width="16" height="16" fill="white"/>
</clipPath>
</defs>
</svg>
