<svg width="16" height="16" viewBox="0 0 16 16" fill="none" xmlns="http://www.w3.org/2000/svg">
<path d="M11.3327 7.33333V5.33333C11.3327 3.49238 9.8403 2 7.99935 2C6.1584 2 4.66602 3.49238 4.66602 5.33333V7.33333M5.86602 14H10.1327C11.2528 14 11.8128 14 12.2407 13.782C12.617 13.5903 12.9229 13.2843 13.1147 12.908C13.3327 12.4802 13.3327 11.9201 13.3327 10.8V10.5333C13.3327 9.41323 13.3327 8.85318 13.1147 8.42535C12.9229 8.04903 12.617 7.74307 12.2407 7.55132C11.8128 7.33333 11.2528 7.33333 10.1327 7.33333H5.86602C4.74591 7.33333 4.18586 7.33333 3.75803 7.55132C3.38171 7.74307 3.07575 8.04903 2.884 8.42535C2.66602 8.85318 2.66602 9.41323 2.66602 10.5333V10.8C2.66602 11.9201 2.66602 12.4802 2.884 12.908C3.07575 13.2843 3.38171 13.5903 3.75803 13.782C4.18586 14 4.74591 14 5.86602 14Z" stroke="white" stroke-width="2" stroke-linecap="round" stroke-linejoin="round"/>
</svg>
