<svg width="42" height="42" viewBox="0 0 42 42" fill="none" xmlns="http://www.w3.org/2000/svg">
<circle cx="20.8086" cy="21" r="20" fill="black" stroke="#2A2A2A" stroke-width="0.70069"/>
<g clip-path="url(#clip0_91_2271)">
<path d="M9.3957 19.7192L30.1089 11.0887C30.438 10.9521 30.8136 11.1073 30.9518 11.4348C31.0045 11.5621 31.0154 11.7049 30.9828 11.8384L25.8231 32.4771C25.7814 32.6426 25.6758 32.7848 25.5295 32.8727C25.3832 32.9605 25.208 32.9868 25.0424 32.9459C24.9492 32.9226 24.8607 32.8776 24.7862 32.8155L20.3064 29.0823C20.1828 28.9796 20.0253 28.9268 19.8648 28.9342C19.7042 28.9417 19.5523 29.0089 19.4387 29.1227L17.1414 31.4185C17.0815 31.4782 17.0103 31.5256 16.932 31.5578C16.8537 31.59 16.7698 31.6064 16.6852 31.6061C16.6005 31.6058 16.5168 31.5888 16.4387 31.5561C16.3606 31.5234 16.2898 31.4755 16.2302 31.4153C16.111 31.2951 16.0435 31.133 16.0424 30.9636V26.1129C16.0424 25.9421 16.1107 25.7776 16.2302 25.6565L25.5748 16.312L14.5414 24.587C14.4252 24.6739 14.2832 24.7191 14.1382 24.7155C13.9932 24.7118 13.8536 24.6595 13.742 24.5668L9.23117 20.8073C9.10024 20.6979 9.01806 20.541 9.00264 20.371C8.98722 20.2011 9.03981 20.032 9.1489 19.9008C9.21564 19.8216 9.29946 19.7595 9.3957 19.7192Z" fill="white"/>
</g>
<defs>
<clipPath id="clip0_91_2271">
<rect width="22" height="22" fill="white" transform="translate(9 11)"/>
</clipPath>
</defs>
</svg>
