<svg width="42" height="42" viewBox="0 0 42 42" fill="none" xmlns="http://www.w3.org/2000/svg">
<circle cx="21" cy="20.9219" r="20" fill="black" stroke="#2A2A2A" stroke-width="0.70069"/>
<path d="M32 30.7035C31.8586 30.7152 31.7751 30.7268 31.6916 30.7268C29.8529 30.7268 28.0142 30.7198 26.1756 30.7268C25.9715 30.7268 25.8463 30.6593 25.7211 30.4941C23.8917 28.0511 22.053 25.615 20.2166 23.179C20.1701 23.1158 20.0691 23.1114 20.0094 23.1623C19.8029 23.338 19.5925 23.5026 19.4121 23.6955C17.5734 25.6546 15.7393 27.6206 13.9029 29.5821C13.5876 29.9194 13.2653 30.2498 12.9407 30.5779C12.8827 30.636 12.8016 30.7128 12.7297 30.7128C12.5625 30.7163 12.3951 30.7184 12.2258 30.7195C11.7613 30.7226 11.5237 30.1672 11.8417 29.8287C13.6224 27.9347 15.4031 26.0385 17.1815 24.1422C17.8076 23.4745 18.4313 22.8067 19.0643 22.1459C19.2057 21.997 19.2405 21.8923 19.1014 21.7085C16.7201 18.5465 14.3481 15.3798 11.9738 12.2132C11.7323 11.8912 11.4907 11.5692 11.2328 11.225C11.1437 11.1061 11.2178 10.9219 11.3663 10.9219C13.1563 10.9219 14.9487 10.9358 16.7387 10.9219C17.0586 10.9219 17.2534 11.008 17.4505 11.2732C19.004 13.3696 20.5783 15.452 22.1434 17.5367C22.2688 17.7033 22.3929 17.8724 22.5239 18.0503C22.6047 18.1599 22.7729 18.1935 22.8645 18.0928C25.0649 15.7475 27.2653 13.4021 29.468 11.0568C29.5214 10.9987 29.6095 10.9405 29.6814 10.9405C30.1294 10.9326 30.5791 10.9348 31.062 10.9356C31.1686 10.9358 31.2392 11.0639 31.1676 11.1429C28.6797 13.814 26.1941 16.485 23.7016 19.1538C23.5763 19.2864 23.5068 19.3771 23.6459 19.5633C25.4962 22.0272 27.3349 24.5005 29.1805 26.9668C30.057 28.1395 30.945 29.3028 31.8284 30.4685C31.8717 30.528 31.9128 30.5897 31.989 30.6978C31.9915 30.7014 31.9956 30.7035 32 30.7035ZM13.7314 12.2504C13.7592 12.3132 13.7708 12.3575 13.7963 12.3924C15.0159 14.0048 16.2401 15.6102 17.4574 17.2249C18.9808 19.2468 20.4995 21.2711 22.0182 23.2976C23.4882 25.2614 24.9536 27.2298 26.4306 29.1912C26.5071 29.2935 26.6787 29.3773 26.8085 29.3796C27.5482 29.3936 28.2902 29.3796 29.0321 29.3773C29.2037 29.3773 29.3006 29.1805 29.1958 29.0447C28.5818 28.2481 28.0008 27.5023 27.4323 26.7458C25.48 24.1445 23.5369 21.5363 21.5846 18.935C19.9616 16.7735 18.3292 14.6167 16.69 12.4645C16.6065 12.3551 16.4233 12.2714 16.2865 12.2667C15.6048 12.2458 14.9208 12.2551 14.2368 12.2551C14.0806 12.2551 13.9244 12.2551 13.7389 12.2551C13.7357 12.2551 13.7328 12.2533 13.7314 12.2504Z" fill="white"/>
</svg>
