<svg width="24" height="24" viewBox="0 0 24 24" fill="none" xmlns="http://www.w3.org/2000/svg">
<g id="alert-triangle">
<path id="Icon" d="M11.9978 8.99632V12.9963M11.9978 16.9963H12.0078M10.6131 3.88805L2.38823 18.0947C1.93203 18.8827 1.70393 19.2767 1.73764 19.6C1.76705 19.8821 1.91482 20.1384 2.14417 20.3051C2.40713 20.4963 2.86239 20.4963 3.77292 20.4963H20.2227C21.1332 20.4963 21.5885 20.4963 21.8514 20.3051C22.0808 20.1384 22.2286 19.8821 22.258 19.6C22.2917 19.2767 22.0636 18.8827 21.6074 18.0947L13.3825 3.88804C12.9279 3.10288 12.7006 2.7103 12.4041 2.57845C12.1454 2.46343 11.8502 2.46343 11.5915 2.57845C11.295 2.7103 11.0677 3.10288 10.6131 3.88805Z" stroke="#F0B622" stroke-width="2" stroke-linecap="round" stroke-linejoin="round"/>
</g>
</svg>
