<svg width="16" height="16" viewBox="0 0 16 16" fill="none" xmlns="http://www.w3.org/2000/svg">
<g clip-path="url(#clip0_3873_1738)">
<path d="M14.6663 7.39113V8.00447C14.6655 9.44208 14.2 10.8409 13.3392 11.9924C12.4785 13.1438 11.2685 13.9861 9.88991 14.3937C8.51129 14.8013 7.03785 14.7524 5.68932 14.2542C4.3408 13.756 3.18944 12.8352 2.40698 11.6292C1.62452 10.4232 1.25287 8.99651 1.34746 7.56201C1.44205 6.12751 1.99781 4.76202 2.93186 3.66918C3.86591 2.57635 5.1282 1.81472 6.53047 1.4979C7.93274 1.18107 9.39985 1.32602 10.713 1.91113M14.6663 2.66732L7.99967 9.34065L5.99967 7.34065" stroke="#F7771A" stroke-width="1.5" stroke-linecap="round" stroke-linejoin="round"/>
</g>
<defs>
<clipPath id="clip0_3873_1738">
<rect width="16" height="16" fill="white"/>
</clipPath>
</defs>
</svg>
