<svg width="16" height="16" viewBox="0 0 16 16" fill="none" xmlns="http://www.w3.org/2000/svg">
<g id="copy-03" clip-path="url(#clip0_133_1133)">
<path id="Icon" d="M5.33203 5.33594V3.46927C5.33203 2.72253 5.33203 2.34917 5.47736 2.06395C5.60519 1.81307 5.80916 1.60909 6.06004 1.48126C6.34526 1.33594 6.71863 1.33594 7.46536 1.33594H12.532C13.2788 1.33594 13.6521 1.33594 13.9374 1.48126C14.1882 1.60909 14.3922 1.81307 14.52 2.06395C14.6654 2.34917 14.6654 2.72253 14.6654 3.46927V8.53594C14.6654 9.28267 14.6654 9.65604 14.52 9.94126C14.3922 10.1921 14.1882 10.3961 13.9374 10.5239C13.6521 10.6693 13.2788 10.6693 12.532 10.6693H10.6654M3.46536 14.6693H8.53203C9.27877 14.6693 9.65214 14.6693 9.93735 14.5239C10.1882 14.3961 10.3922 14.1921 10.52 13.9413C10.6654 13.656 10.6654 13.2827 10.6654 12.5359V7.46927C10.6654 6.72253 10.6654 6.34917 10.52 6.06395C10.3922 5.81307 10.1882 5.60909 9.93735 5.48126C9.65214 5.33594 9.27877 5.33594 8.53203 5.33594H3.46536C2.71863 5.33594 2.34526 5.33594 2.06004 5.48126C1.80916 5.60909 1.60519 5.81307 1.47736 6.06395C1.33203 6.34917 1.33203 6.72253 1.33203 7.46927V12.5359C1.33203 13.2827 1.33203 13.656 1.47736 13.9413C1.60519 14.1921 1.80916 14.3961 2.06004 14.5239C2.34526 14.6693 2.71863 14.6693 3.46536 14.6693Z" stroke="white" stroke-width="1.5" stroke-linecap="round" stroke-linejoin="round"/>
</g>
<defs>
<clipPath id="clip0_133_1133">
<rect width="16" height="16" fill="white"/>
</clipPath>
</defs>
</svg>
