<svg width="29" height="21" viewBox="0 0 29 21" fill="none" xmlns="http://www.w3.org/2000/svg">
<path d="M24.3725 1.7736C24.3647 1.75875 24.3518 1.74712 24.3361 1.74078C22.5207 0.920873 20.6049 0.336213 18.6367 0.00143408C18.6188 -0.00183831 18.6004 0.000522432 18.5839 0.00818057C18.5675 0.0158387 18.5539 0.0284043 18.5452 0.0440905C18.2843 0.510165 18.0475 0.9889 17.8356 1.47847C15.714 1.16144 13.556 1.16144 11.4344 1.47847C11.2211 0.987657 10.9805 0.508802 10.7137 0.0440905C10.7045 0.0287452 10.6909 0.016469 10.6745 0.0088606C10.6582 0.00125221 10.6399 -0.00133569 10.622 0.00143408C8.65363 0.33551 6.73774 0.920214 4.92258 1.74083C4.90704 1.74731 4.89393 1.75839 4.88506 1.77252C1.25509 7.10869 0.260709 12.3137 0.748521 17.4542C0.749893 17.4668 0.753825 17.479 0.760083 17.49C0.766341 17.5011 0.774798 17.5108 0.784949 17.5186C2.89864 19.0592 5.26284 20.2351 7.77664 20.9962C7.79434 21.0015 7.81325 21.0012 7.83081 20.9956C7.84837 20.9899 7.86375 20.9791 7.87488 20.9646C8.41479 20.2414 8.89319 19.4757 9.30522 18.6751C9.31088 18.6641 9.31411 18.6521 9.3147 18.6397C9.31529 18.6274 9.31323 18.6152 9.30864 18.6037C9.30406 18.5922 9.29706 18.5819 9.2881 18.5733C9.27915 18.5646 9.26844 18.558 9.25669 18.5538C8.50229 18.2696 7.77194 17.9271 7.07249 17.5294C7.05979 17.5221 7.04912 17.5117 7.04142 17.4994C7.03373 17.487 7.02925 17.4729 7.02838 17.4585C7.02751 17.444 7.03027 17.4295 7.03643 17.4163C7.04259 17.4031 7.05195 17.3917 7.06369 17.3829C7.21087 17.2747 7.35549 17.1631 7.49745 17.0483C7.5099 17.0382 7.52497 17.0318 7.54095 17.0296C7.55694 17.0275 7.5732 17.0298 7.58793 17.0363C12.1703 19.0949 17.1313 19.0949 21.6594 17.0363C21.6742 17.0294 21.6906 17.0268 21.7068 17.0287C21.723 17.0307 21.7384 17.0371 21.751 17.0472C21.8931 17.1626 22.0381 17.2745 22.1859 17.3829C22.1977 17.3916 22.2071 17.403 22.2134 17.4161C22.2196 17.4292 22.2225 17.4437 22.2217 17.4582C22.221 17.4727 22.2166 17.4867 22.209 17.4992C22.2014 17.5116 22.1908 17.522 22.1782 17.5294C21.4803 17.9304 20.7493 18.2728 19.9929 18.5527C19.9812 18.5571 19.9705 18.5639 19.9616 18.5726C19.9527 18.5814 19.9458 18.5918 19.9413 18.6034C19.9368 18.615 19.9348 18.6273 19.9355 18.6397C19.9362 18.652 19.9395 18.6641 19.9453 18.6751C20.3642 19.4712 20.8419 20.236 21.3745 20.9633C21.3854 20.9782 21.4007 20.9894 21.4183 20.9953C21.4359 21.0012 21.455 21.0015 21.4728 20.9961C23.9911 20.2376 26.3594 19.0615 28.4758 17.5186C28.4861 17.5112 28.4946 17.5017 28.5009 17.4908C28.5072 17.4799 28.511 17.4678 28.5122 17.4553C29.0962 11.5123 27.5345 6.34997 24.3725 1.7736ZM9.98955 14.3241C8.60993 14.3241 7.47316 13.0779 7.47316 11.5473C7.47316 10.0167 8.58788 8.77037 9.98955 8.77037C11.4022 8.77037 12.5279 10.0276 12.5059 11.5472C12.5059 13.0779 11.3911 14.3241 9.98955 14.3241ZM19.2934 14.3241C17.9138 14.3241 16.7771 13.0779 16.7771 11.5473C16.7771 10.0167 17.8918 8.77037 19.2934 8.77037C20.7061 8.77037 21.8318 10.0276 21.8098 11.5472C21.8098 13.0779 20.7061 14.3241 19.2934 14.3241Z" fill="white"/>
</svg>
