<svg width="40" height="40" viewBox="0 0 40 40" fill="none" xmlns="http://www.w3.org/2000/svg">
<path d="M4.03354 21.1893C3.80656 20.8299 3.69307 20.6502 3.62954 20.373C3.58182 20.1648 3.58182 19.8365 3.62954 19.6283C3.69307 19.3511 3.80656 19.1714 4.03354 18.812C5.90922 15.8421 11.4923 8.33398 20.0007 8.33398C28.509 8.33398 34.0921 15.8421 35.9678 18.812C36.1948 19.1714 36.3083 19.3511 36.3718 19.6283C36.4195 19.8365 36.4195 20.1648 36.3718 20.373C36.3083 20.6502 36.1948 20.8299 35.9678 21.1893C34.0921 24.1593 28.509 31.6673 20.0007 31.6673C11.4923 31.6673 5.90922 24.1593 4.03354 21.1893Z" stroke="white" stroke-width="2" stroke-linecap="round" stroke-linejoin="round"/>
<path d="M20.0007 25.0007C22.7621 25.0007 25.0007 22.7621 25.0007 20.0007C25.0007 17.2392 22.7621 15.0007 20.0007 15.0007C17.2392 15.0007 15.0007 17.2392 15.0007 20.0007C15.0007 22.7621 17.2392 25.0007 20.0007 25.0007Z" stroke="white" stroke-width="2" stroke-linecap="round" stroke-linejoin="round"/>
</svg>
