<svg width="40" height="40" viewBox="0 0 40 40" fill="none" xmlns="http://www.w3.org/2000/svg">
<g id="eye-off">
<path id="Icon" d="M17.9049 8.4872C18.5823 8.38705 19.281 8.33333 20.0007 8.33333C28.509 8.33333 34.0922 15.8414 35.9678 18.8114C36.1949 19.1708 36.3084 19.3506 36.3719 19.6278C36.4196 19.836 36.4196 20.1644 36.3718 20.3726C36.3082 20.6498 36.1939 20.8308 35.9653 21.1926C35.4656 21.9836 34.7036 23.0952 33.6942 24.3008M11.2072 11.1917C7.60375 13.6362 5.15742 17.0323 4.03518 18.8088C3.80714 19.1698 3.69312 19.3503 3.62957 19.6275C3.58183 19.8357 3.58181 20.1641 3.62952 20.3723C3.69305 20.6495 3.80655 20.8292 4.03356 21.1886C5.90924 24.1586 11.4924 31.6667 20.0007 31.6667C23.4314 31.6667 26.3865 30.446 28.8147 28.7943M5.00069 5L35.0007 35M16.4652 16.4645C15.5603 17.3693 15.0007 18.6193 15.0007 20C15.0007 22.7614 17.2393 25 20.0007 25C21.3814 25 22.6314 24.4404 23.5362 23.5355" stroke="white" stroke-width="2" stroke-linecap="round" stroke-linejoin="round"/>
</g>
</svg>
