<svg width="40" height="40" viewBox="0 0 40 40" fill="none" xmlns="http://www.w3.org/2000/svg">
<path d="M23.3337 18.3333H13.3337M16.667 24.9999H13.3337M26.667 11.6666H13.3337M33.3337 11.3333V28.6666C33.3337 31.4668 33.3337 32.867 32.7887 33.9365C32.3093 34.8773 31.5444 35.6423 30.6036 36.1216C29.5341 36.6666 28.1339 36.6666 25.3337 36.6666H14.667C11.8667 36.6666 10.4666 36.6666 9.39704 36.1216C8.45623 35.6423 7.69133 34.8773 7.21196 33.9365C6.66699 32.867 6.66699 31.4668 6.66699 28.6666V11.3333C6.66699 8.53299 6.66699 7.13286 7.21196 6.0633C7.69133 5.12249 8.45623 4.35759 9.39704 3.87822C10.4666 3.33325 11.8667 3.33325 14.667 3.33325H25.3337C28.1339 3.33325 29.5341 3.33325 30.6036 3.87822C31.5444 4.35759 32.3093 5.12249 32.7887 6.0633C33.3337 7.13286 33.3337 8.53299 33.3337 11.3333Z" stroke="white" stroke-width="3" stroke-linecap="round" stroke-linejoin="round"/>
</svg>
