<svg width="40" height="40" viewBox="0 0 40 40" fill="none" xmlns="http://www.w3.org/2000/svg">
<path d="M16.25 34.5836L18.705 35.9474C19.1776 36.21 19.414 36.3413 19.6643 36.3928C19.8858 36.4383 20.1142 36.4383 20.3358 36.3928C20.586 36.3413 20.8224 36.21 21.2951 35.9474L23.75 34.5836M8.75 30.4169L6.37162 29.0956C5.87243 28.8182 5.62281 28.6796 5.44106 28.4823C5.28026 28.3078 5.15858 28.101 5.08414 27.8757C5 27.6211 5 27.3355 5 26.7645V24.1669M5 15.8336V13.236C5 12.6649 5 12.3794 5.08414 12.1247C5.15858 11.8994 5.28026 11.6926 5.44106 11.5181C5.62281 11.3209 5.87242 11.1822 6.37162 10.9049L8.75 9.58356M16.25 5.41689L18.705 4.05303C19.1776 3.79043 19.414 3.65913 19.6643 3.60766C19.8858 3.5621 20.1142 3.5621 20.3358 3.60766C20.586 3.65913 20.8224 3.79043 21.2951 4.05303L23.75 5.41689M31.25 9.58355L33.6284 10.9049C34.1276 11.1822 34.3772 11.3209 34.5589 11.5181C34.7197 11.6926 34.8414 11.8994 34.9159 12.1247C35 12.3794 35 12.6649 35 13.236V15.8336M35 24.1669V26.7645C35 27.3355 35 27.6211 34.9159 27.8757C34.8414 28.101 34.7197 28.3078 34.5589 28.4823C34.3772 28.6796 34.1276 28.8182 33.6284 29.0956L31.25 30.4169M16.25 17.9169L20 20.0002M20 20.0002L23.75 17.9169M20 20.0002V24.1669M5 11.6669L8.75 13.7502M31.25 13.7502L35 11.6669M20 32.5002V36.6669" stroke="white" stroke-width="3.58333" stroke-linecap="round" stroke-linejoin="round"/>
</svg>
