<svg width="29" height="28" viewBox="0 0 29 28" fill="none" xmlns="http://www.w3.org/2000/svg">
<g clip-path="url(#clip0_91_2273)">
<path d="M3.3957 12.7192L24.1089 4.08867C24.438 3.95207 24.8136 4.1073 24.9518 4.43482C25.0045 4.56211 25.0154 4.70491 24.9828 4.83841L19.8231 25.4771C19.7814 25.6426 19.6758 25.7848 19.5295 25.8727C19.3832 25.9605 19.208 25.9868 19.0424 25.9459C18.9492 25.9226 18.8607 25.8776 18.7862 25.8155L14.3064 22.0823C14.1828 21.9796 14.0253 21.9268 13.8648 21.9342C13.7042 21.9417 13.5523 22.0089 13.4387 22.1227L11.1414 24.4185C11.0815 24.4782 11.0103 24.5256 10.932 24.5578C10.8537 24.59 10.7698 24.6064 10.6852 24.6061C10.6005 24.6058 10.5168 24.5888 10.4387 24.5561C10.3606 24.5234 10.2898 24.4755 10.2302 24.4153C10.111 24.2951 10.0435 24.133 10.0424 23.9636V19.1129C10.0424 18.9421 10.1107 18.7776 10.2302 18.6565L19.5748 9.31198L8.5414 17.587C8.42524 17.6739 8.28321 17.7191 8.1382 17.7155C7.99319 17.7118 7.85363 17.6595 7.742 17.5668L3.23117 13.8073C3.10024 13.6979 3.01806 13.541 3.00264 13.371C2.98722 13.2011 3.03981 13.032 3.1489 12.9008C3.21564 12.8216 3.29946 12.7595 3.3957 12.7192Z" fill="white"/>
</g>
<defs>
<clipPath id="clip0_91_2273">
<rect width="22" height="22" fill="white" transform="translate(3 4)"/>
</clipPath>
</defs>
</svg>
