<svg width="21" height="21" viewBox="0 0 21 21" fill="none" xmlns="http://www.w3.org/2000/svg">
<path d="M21 20.7035C20.8586 20.7152 20.7751 20.7268 20.6916 20.7268C18.8529 20.7268 17.0142 20.7198 15.1756 20.7268C14.9715 20.7268 14.8463 20.6593 14.7211 20.4941C12.8917 18.0511 11.053 15.615 9.21663 13.179C9.17011 13.1158 9.06912 13.1114 9.00938 13.1623C8.80286 13.338 8.59252 13.5026 8.41206 13.6955C6.57337 15.6546 4.73932 17.6206 2.90295 19.5821C2.58761 19.9194 2.26532 20.2498 1.94071 20.5779C1.88274 20.636 1.80159 20.7128 1.72971 20.7128C1.5625 20.7163 1.39508 20.7184 1.22578 20.7195C0.761324 20.7226 0.523665 20.1672 0.841671 19.8287C2.62239 17.9347 4.40311 16.0385 6.18152 14.1422C6.80755 13.4745 7.43127 12.8067 8.06426 12.1459C8.2057 11.997 8.24048 11.8923 8.10136 11.7085C5.72011 8.54649 3.34813 5.37984 0.973832 2.2132C0.732251 1.8912 0.490671 1.56921 0.232759 1.22498C0.143695 1.1061 0.217809 0.921875 0.366347 0.921875C2.15634 0.921875 3.94866 0.935835 5.73866 0.921875C6.05863 0.921875 6.2534 1.00796 6.45048 1.27321C8.00398 3.36957 9.57834 5.45197 11.1434 7.5367C11.2688 7.7033 11.3929 7.87238 11.5239 8.05029C11.6047 8.15993 11.7729 8.19349 11.8645 8.09278C14.0649 5.74746 16.2653 3.40214 18.468 1.05682C18.5214 0.998657 18.6095 0.940489 18.6814 0.940489C19.1294 0.932566 19.5791 0.93476 20.062 0.935588C20.1686 0.935771 20.2392 1.06394 20.1676 1.14291C17.6797 3.81397 15.1941 6.48503 12.7016 9.15376C12.5763 9.28638 12.5068 9.37712 12.6459 9.56326C14.4962 12.0272 16.3349 14.5005 18.1805 16.9668C19.057 18.1395 19.945 19.3028 20.8284 20.4685C20.8717 20.528 20.9128 20.5897 20.989 20.6978C20.9915 20.7014 20.9956 20.7035 21 20.7035ZM2.73137 2.25042C2.75919 2.31325 2.77078 2.35745 2.79629 2.39235C4.0159 4.00476 5.24015 5.61019 6.45744 7.22492C7.98079 9.24683 9.4995 11.2711 11.0182 13.2976C12.4882 15.2614 13.9536 17.2298 15.4306 19.1912C15.5071 19.2935 15.6787 19.3773 15.8085 19.3796C16.5482 19.3936 17.2902 19.3796 18.0321 19.3773C18.2037 19.3773 18.3006 19.1805 18.1958 19.0447C17.5818 18.2481 17.0008 17.5023 16.4323 16.7458C14.48 14.1445 12.5369 11.5363 10.5846 8.93505C8.96158 6.77354 7.32925 4.61668 5.68997 2.46448C5.60649 2.35513 5.42332 2.27136 5.28652 2.26671C4.60484 2.24577 3.92084 2.25508 3.23684 2.25508C3.08063 2.25508 2.92442 2.25508 2.73891 2.25508C2.73572 2.25508 2.73279 2.25328 2.73137 2.25042Z" fill="white"/>
</svg>
