<svg width="78" height="78" viewBox="0 0 78 78" fill="none" xmlns="http://www.w3.org/2000/svg">
<path d="M5.08696 6.78418H52.5652C54.4382 6.78418 55.9565 8.30252 55.9565 10.1755V16.9581H5.08696C2.27752 16.9581 0 14.6806 0 11.8711C0 9.06168 2.2775 6.78418 5.08696 6.78418Z" fill="url(#paint0_linear_4358_51800)"/>
<path d="M62.7387 5.08765H8.48145V67.2614H62.7387V5.08765Z" fill="url(#paint1_linear_4358_51800)"/>
<g filter="url(#filter0_bi_4358_51800)">
<path d="M61.0418 0H10.1722C9.23574 0 8.47656 0.759177 8.47656 1.69565V67.2609H62.7374V1.69565C62.7374 0.759177 61.9783 0 61.0418 0Z" fill="#F7771A"/>
<path d="M10.1722 0.4875H61.0418C61.709 0.4875 62.2499 1.02842 62.2499 1.69565V66.7734H8.96406V1.69565C8.96406 1.02842 9.50498 0.4875 10.1722 0.4875Z" stroke="url(#paint2_linear_4358_51800)" stroke-opacity="0.1" stroke-width="0.975"/>
</g>
<g filter="url(#filter1_bi_4358_51800)">
<path d="M0 11.8701V66.1309C0 72.6862 5.3142 78.0004 11.8696 78.0004H67.8261C69.6991 78.0004 71.2174 76.4821 71.2174 74.6092V20.3482C71.2174 18.4753 69.6991 16.957 67.8261 16.957H5.08695C2.27752 16.957 0 14.6796 0 11.8701Z" fill="url(#paint3_linear_4358_51800)" fill-opacity="0.2"/>
<path d="M0.4875 66.1309V15.0205C1.49211 16.4844 3.17742 17.4445 5.08695 17.4445H67.8261C69.4298 17.4445 70.7299 18.7445 70.7299 20.3482V74.6092C70.7299 76.2129 69.4298 77.5129 67.8261 77.5129H11.8696C5.58344 77.5129 0.4875 72.417 0.4875 66.1309Z" stroke="url(#paint4_linear_4358_51800)" stroke-opacity="0.1" stroke-width="0.975"/>
</g>
<g filter="url(#filter2_i_4358_51800)">
<path d="M76.3049 39H59.3484C54.6737 39 50.8701 42.8036 50.8701 47.4783C50.8701 52.1529 54.6737 55.9565 59.3484 55.9565H76.3049C77.2413 55.9565 78.0006 55.1973 78.0006 54.2609V40.6957C78.0006 39.7592 77.2413 39 76.3049 39Z" fill="url(#paint5_linear_4358_51800)"/>
</g>
<g filter="url(#filter3_i_4358_51800)">
<path d="M59.3493 50.8703C61.2223 50.8703 62.7406 49.3519 62.7406 47.479C62.7406 45.606 61.2223 44.0876 59.3493 44.0876C57.4763 44.0876 55.958 45.606 55.958 47.479C55.958 49.3519 57.4763 50.8703 59.3493 50.8703Z" fill="white" fill-opacity="0.16"/>
</g>
<defs>
<filter id="filter0_bi_4358_51800" x="-11.0234" y="-19.5" width="93.2607" height="106.261" filterUnits="userSpaceOnUse" color-interpolation-filters="sRGB">
<feFlood flood-opacity="0" result="BackgroundImageFix"/>
<feGaussianBlur in="BackgroundImageFix" stdDeviation="9.75"/>
<feComposite in2="SourceAlpha" operator="in" result="effect1_backgroundBlur_4358_51800"/>
<feBlend mode="normal" in="SourceGraphic" in2="effect1_backgroundBlur_4358_51800" result="shape"/>
<feColorMatrix in="SourceAlpha" type="matrix" values="0 0 0 0 0 0 0 0 0 0 0 0 0 0 0 0 0 0 127 0" result="hardAlpha"/>
<feOffset dy="6.5"/>
<feGaussianBlur stdDeviation="4.875"/>
<feComposite in2="hardAlpha" operator="arithmetic" k2="-1" k3="1"/>
<feColorMatrix type="matrix" values="0 0 0 0 1 0 0 0 0 1 0 0 0 0 1 0 0 0 0.4 0"/>
<feBlend mode="normal" in2="shape" result="effect2_innerShadow_4358_51800"/>
</filter>
<filter id="filter1_bi_4358_51800" x="-19.5" y="-7.62988" width="110.218" height="105.13" filterUnits="userSpaceOnUse" color-interpolation-filters="sRGB">
<feFlood flood-opacity="0" result="BackgroundImageFix"/>
<feGaussianBlur in="BackgroundImageFix" stdDeviation="9.75"/>
<feComposite in2="SourceAlpha" operator="in" result="effect1_backgroundBlur_4358_51800"/>
<feBlend mode="normal" in="SourceGraphic" in2="effect1_backgroundBlur_4358_51800" result="shape"/>
<feColorMatrix in="SourceAlpha" type="matrix" values="0 0 0 0 0 0 0 0 0 0 0 0 0 0 0 0 0 0 127 0" result="hardAlpha"/>
<feOffset dy="6.5"/>
<feGaussianBlur stdDeviation="4.875"/>
<feComposite in2="hardAlpha" operator="arithmetic" k2="-1" k3="1"/>
<feColorMatrix type="matrix" values="0 0 0 0 1 0 0 0 0 1 0 0 0 0 1 0 0 0 0.4 0"/>
<feBlend mode="normal" in2="shape" result="effect2_innerShadow_4358_51800"/>
</filter>
<filter id="filter2_i_4358_51800" x="50.8701" y="39" width="27.1309" height="23.4565" filterUnits="userSpaceOnUse" color-interpolation-filters="sRGB">
<feFlood flood-opacity="0" result="BackgroundImageFix"/>
<feBlend mode="normal" in="SourceGraphic" in2="BackgroundImageFix" result="shape"/>
<feColorMatrix in="SourceAlpha" type="matrix" values="0 0 0 0 0 0 0 0 0 0 0 0 0 0 0 0 0 0 127 0" result="hardAlpha"/>
<feOffset dy="6.5"/>
<feGaussianBlur stdDeviation="3.25"/>
<feComposite in2="hardAlpha" operator="arithmetic" k2="-1" k3="1"/>
<feColorMatrix type="matrix" values="0 0 0 0 1 0 0 0 0 1 0 0 0 0 1 0 0 0 0.4 0"/>
<feBlend mode="normal" in2="shape" result="effect1_innerShadow_4358_51800"/>
</filter>
<filter id="filter3_i_4358_51800" x="55.958" y="44.0876" width="6.78223" height="13.2827" filterUnits="userSpaceOnUse" color-interpolation-filters="sRGB">
<feFlood flood-opacity="0" result="BackgroundImageFix"/>
<feBlend mode="normal" in="SourceGraphic" in2="BackgroundImageFix" result="shape"/>
<feColorMatrix in="SourceAlpha" type="matrix" values="0 0 0 0 0 0 0 0 0 0 0 0 0 0 0 0 0 0 127 0" result="hardAlpha"/>
<feOffset dy="6.5"/>
<feGaussianBlur stdDeviation="3.25"/>
<feComposite in2="hardAlpha" operator="arithmetic" k2="-1" k3="1"/>
<feColorMatrix type="matrix" values="0 0 0 0 1 0 0 0 0 1 0 0 0 0 1 0 0 0 0.4 0"/>
<feBlend mode="normal" in2="shape" result="effect1_innerShadow_4358_51800"/>
</filter>
<linearGradient id="paint0_linear_4358_51800" x1="0" y1="6.78418" x2="23.7818" y2="39.9968" gradientUnits="userSpaceOnUse">
<stop stop-color="#F7771A"/>
<stop offset="1" stop-color="#F7771A"/>
</linearGradient>
<linearGradient id="paint1_linear_4358_51800" x1="8.48145" y1="5.08765" x2="73.3315" y2="19.4576" gradientUnits="userSpaceOnUse">
<stop stop-color="#F7771A"/>
<stop offset="1" stop-color="#F7771A"/>
</linearGradient>
<linearGradient id="paint2_linear_4358_51800" x1="10.1722" y1="3.05731" x2="62.7374" y2="3.05731" gradientUnits="userSpaceOnUse">
<stop stop-color="#8AE6A8"/>
<stop offset="1" stop-color="#48A3AB"/>
</linearGradient>
<linearGradient id="paint3_linear_4358_51800" x1="0" y1="11.8701" x2="83.0878" y2="34.5906" gradientUnits="userSpaceOnUse">
<stop stop-color="#F7771A"/>
<stop offset="1" stop-color="#F7771A"/>
</linearGradient>
<linearGradient id="paint4_linear_4358_51800" x1="2.22554" y1="14.876" x2="71.2174" y2="14.876" gradientUnits="userSpaceOnUse">
<stop stop-color="#F7771A"/>
<stop offset="1" stop-color="#F7771A"/>
</linearGradient>
<linearGradient id="paint5_linear_4358_51800" x1="50.8701" y1="39" x2="80.0699" y2="50.863" gradientUnits="userSpaceOnUse">
<stop stop-color="#F7771A"/>
<stop offset="1" stop-color="#F7771A"/>
</linearGradient>
</defs>
</svg>
