<svg width="90" height="90" viewBox="0 0 90 90" fill="none" xmlns="http://www.w3.org/2000/svg">
<path d="M13.087 12.7842H60.5652C62.4382 12.7842 63.9565 14.3025 63.9565 16.1755V22.9581H13.087C10.2775 22.9581 8 20.6806 8 17.8711C8 15.0617 10.2775 12.7842 13.087 12.7842Z" fill="url(#paint0_linear_370_7643)"/>
<path d="M70.7387 11.0879H16.4814V73.2616H70.7387V11.0879Z" fill="url(#paint1_linear_370_7643)"/>
<g filter="url(#filter0_bi_370_7643)">
<path d="M69.0418 6H18.1722C17.2357 6 16.4766 6.75918 16.4766 7.69565V73.2609H70.7374V7.69565C70.7374 6.75918 69.9783 6 69.0418 6Z" fill="url(#paint2_linear_370_7643)" fill-opacity="0.2"/>
<path d="M18.1722 6.4875H69.0418C69.709 6.4875 70.2499 7.02842 70.2499 7.69565V72.7734H16.9641V7.69565C16.9641 7.02842 17.505 6.4875 18.1722 6.4875Z" stroke="url(#paint3_linear_370_7643)" stroke-opacity="0.1" stroke-width="0.975"/>
</g>
<g filter="url(#filter1_bi_370_7643)">
<path d="M8 17.8701V72.1309C8 78.6862 13.3142 84.0004 19.8696 84.0004H75.8261C77.6991 84.0004 79.2174 82.4821 79.2174 80.6092V26.3482C79.2174 24.4753 77.6991 22.957 75.8261 22.957H13.087C10.2775 22.957 8 20.6796 8 17.8701Z" fill="url(#paint4_linear_370_7643)" fill-opacity="0.2"/>
<path d="M8.4875 72.1309V21.0205C9.49211 22.4844 11.1774 23.4445 13.087 23.4445H75.8261C77.4298 23.4445 78.7299 24.7445 78.7299 26.3482V80.6092C78.7299 82.2129 77.4298 83.5129 75.8261 83.5129H19.8696C13.5834 83.5129 8.4875 78.417 8.4875 72.1309Z" stroke="url(#paint5_linear_370_7643)" stroke-opacity="0.1" stroke-width="0.975"/>
</g>
<g filter="url(#filter2_i_370_7643)">
<path d="M84.3049 45H67.3484C62.6737 45 58.8701 48.8036 58.8701 53.4783C58.8701 58.1529 62.6737 61.9565 67.3484 61.9565H84.3049C85.2413 61.9565 86.0006 61.1973 86.0006 60.2609V46.6957C86.0006 45.7592 85.2413 45 84.3049 45Z" fill="url(#paint6_linear_370_7643)"/>
</g>
<g filter="url(#filter3_i_370_7643)">
<path d="M67.3493 56.8705C69.2223 56.8705 70.7406 55.3522 70.7406 53.4792C70.7406 51.6062 69.2223 50.0879 67.3493 50.0879C65.4763 50.0879 63.958 51.6062 63.958 53.4792C63.958 55.3522 65.4763 56.8705 67.3493 56.8705Z" fill="white" fill-opacity="0.16"/>
</g>
<defs>
<filter id="filter0_bi_370_7643" x="-3.02344" y="-13.5" width="93.2607" height="106.261" filterUnits="userSpaceOnUse" color-interpolation-filters="sRGB">
<feFlood flood-opacity="0" result="BackgroundImageFix"/>
<feGaussianBlur in="BackgroundImageFix" stdDeviation="9.75"/>
<feComposite in2="SourceAlpha" operator="in" result="effect1_backgroundBlur_370_7643"/>
<feBlend mode="normal" in="SourceGraphic" in2="effect1_backgroundBlur_370_7643" result="shape"/>
<feColorMatrix in="SourceAlpha" type="matrix" values="0 0 0 0 0 0 0 0 0 0 0 0 0 0 0 0 0 0 127 0" result="hardAlpha"/>
<feOffset dy="6.5"/>
<feGaussianBlur stdDeviation="4.875"/>
<feComposite in2="hardAlpha" operator="arithmetic" k2="-1" k3="1"/>
<feColorMatrix type="matrix" values="0 0 0 0 1 0 0 0 0 1 0 0 0 0 1 0 0 0 0.4 0"/>
<feBlend mode="normal" in2="shape" result="effect2_innerShadow_370_7643"/>
</filter>
<filter id="filter1_bi_370_7643" x="-11.5" y="-1.62988" width="110.218" height="105.13" filterUnits="userSpaceOnUse" color-interpolation-filters="sRGB">
<feFlood flood-opacity="0" result="BackgroundImageFix"/>
<feGaussianBlur in="BackgroundImageFix" stdDeviation="9.75"/>
<feComposite in2="SourceAlpha" operator="in" result="effect1_backgroundBlur_370_7643"/>
<feBlend mode="normal" in="SourceGraphic" in2="effect1_backgroundBlur_370_7643" result="shape"/>
<feColorMatrix in="SourceAlpha" type="matrix" values="0 0 0 0 0 0 0 0 0 0 0 0 0 0 0 0 0 0 127 0" result="hardAlpha"/>
<feOffset dy="6.5"/>
<feGaussianBlur stdDeviation="4.875"/>
<feComposite in2="hardAlpha" operator="arithmetic" k2="-1" k3="1"/>
<feColorMatrix type="matrix" values="0 0 0 0 1 0 0 0 0 1 0 0 0 0 1 0 0 0 0.4 0"/>
<feBlend mode="normal" in2="shape" result="effect2_innerShadow_370_7643"/>
</filter>
<filter id="filter2_i_370_7643" x="58.8701" y="45" width="27.1309" height="23.4561" filterUnits="userSpaceOnUse" color-interpolation-filters="sRGB">
<feFlood flood-opacity="0" result="BackgroundImageFix"/>
<feBlend mode="normal" in="SourceGraphic" in2="BackgroundImageFix" result="shape"/>
<feColorMatrix in="SourceAlpha" type="matrix" values="0 0 0 0 0 0 0 0 0 0 0 0 0 0 0 0 0 0 127 0" result="hardAlpha"/>
<feOffset dy="6.5"/>
<feGaussianBlur stdDeviation="3.25"/>
<feComposite in2="hardAlpha" operator="arithmetic" k2="-1" k3="1"/>
<feColorMatrix type="matrix" values="0 0 0 0 1 0 0 0 0 1 0 0 0 0 1 0 0 0 0.4 0"/>
<feBlend mode="normal" in2="shape" result="effect1_innerShadow_370_7643"/>
</filter>
<filter id="filter3_i_370_7643" x="63.958" y="50.0879" width="6.78223" height="13.2822" filterUnits="userSpaceOnUse" color-interpolation-filters="sRGB">
<feFlood flood-opacity="0" result="BackgroundImageFix"/>
<feBlend mode="normal" in="SourceGraphic" in2="BackgroundImageFix" result="shape"/>
<feColorMatrix in="SourceAlpha" type="matrix" values="0 0 0 0 0 0 0 0 0 0 0 0 0 0 0 0 0 0 127 0" result="hardAlpha"/>
<feOffset dy="6.5"/>
<feGaussianBlur stdDeviation="3.25"/>
<feComposite in2="hardAlpha" operator="arithmetic" k2="-1" k3="1"/>
<feColorMatrix type="matrix" values="0 0 0 0 1 0 0 0 0 1 0 0 0 0 1 0 0 0 0.4 0"/>
<feBlend mode="normal" in2="shape" result="effect1_innerShadow_370_7643"/>
</filter>
<linearGradient id="paint0_linear_370_7643" x1="8" y1="12.7842" x2="31.7818" y2="45.9968" gradientUnits="userSpaceOnUse">
<stop stop-color="#B1F0C6"/>
<stop offset="1" stop-color="#008C99"/>
</linearGradient>
<linearGradient id="paint1_linear_370_7643" x1="16.4814" y1="11.0879" x2="81.3315" y2="25.4579" gradientUnits="userSpaceOnUse">
<stop stop-color="#B1F0C6"/>
<stop offset="1" stop-color="#008C99"/>
</linearGradient>
<linearGradient id="paint2_linear_370_7643" x1="16.4766" y1="6" x2="81.7753" y2="19.3759" gradientUnits="userSpaceOnUse">
<stop stop-color="#94ECB2"/>
<stop offset="1" stop-color="#00BBCC"/>
</linearGradient>
<linearGradient id="paint3_linear_370_7643" x1="18.1722" y1="9.05731" x2="70.7374" y2="9.05731" gradientUnits="userSpaceOnUse">
<stop stop-color="#8AE6A8"/>
<stop offset="1" stop-color="#48A3AB"/>
</linearGradient>
<linearGradient id="paint4_linear_370_7643" x1="8" y1="17.8701" x2="91.0878" y2="40.5906" gradientUnits="userSpaceOnUse">
<stop stop-color="#94ECB2"/>
<stop offset="1" stop-color="#00BBCC"/>
</linearGradient>
<linearGradient id="paint5_linear_370_7643" x1="10.2255" y1="20.876" x2="79.2174" y2="20.876" gradientUnits="userSpaceOnUse">
<stop stop-color="#8AE6A8"/>
<stop offset="1" stop-color="#48A3AB"/>
</linearGradient>
<linearGradient id="paint6_linear_370_7643" x1="58.8701" y1="45" x2="88.0699" y2="56.863" gradientUnits="userSpaceOnUse">
<stop stop-color="#B1F0C6"/>
<stop offset="1" stop-color="#008C99"/>
</linearGradient>
</defs>
</svg>
