<svg width="20" height="20" viewBox="0 0 20 20" fill="none" xmlns="http://www.w3.org/2000/svg">
<g id="wallet-04">
<path id="Icon" d="M16.668 7.91927V6.0026C16.668 5.06918 16.668 4.60247 16.4863 4.24595C16.3265 3.93235 16.0716 3.67738 15.758 3.5176C15.4014 3.33594 14.9347 3.33594 14.0013 3.33594H4.33464C3.40121 3.33594 2.9345 3.33594 2.57798 3.51759C2.26438 3.67738 2.00941 3.93235 1.84962 4.24595C1.66797 4.60247 1.66797 5.06918 1.66797 6.0026V14.0026C1.66797 14.936 1.66797 15.4027 1.84962 15.7593C2.00941 16.0729 2.26438 16.3278 2.57798 16.4876C2.9345 16.6693 3.40121 16.6693 4.33464 16.6693L14.0013 16.6693C14.9347 16.6693 15.4014 16.6693 15.758 16.4876C16.0716 16.3278 16.3265 16.0729 16.4863 15.7593C16.668 15.4027 16.668 14.936 16.668 14.0026V12.0859M12.5013 10.0026C12.5013 9.61539 12.5013 9.42179 12.5333 9.26079C12.6648 8.59964 13.1817 8.08281 13.8428 7.9513C14.0038 7.91927 14.1974 7.91927 14.5846 7.91927H16.2513C16.6385 7.91927 16.8321 7.91927 16.9931 7.9513C17.6543 8.08281 18.1711 8.59964 18.3026 9.26079C18.3346 9.42179 18.3346 9.61539 18.3346 10.0026C18.3346 10.3898 18.3346 10.5834 18.3026 10.7444C18.1711 11.4056 17.6543 11.9224 16.9931 12.0539C16.8321 12.0859 16.6385 12.0859 16.2513 12.0859H14.5846C14.1974 12.0859 14.0038 12.0859 13.8428 12.0539C13.1817 11.9224 12.6648 11.4056 12.5333 10.7444C12.5013 10.5834 12.5013 10.3898 12.5013 10.0026Z" stroke="#828282" stroke-width="2" stroke-linecap="round" stroke-linejoin="round"/>
</g>
</svg>
