<svg width="68" height="68" viewBox="0 0 68 68" fill="none" xmlns="http://www.w3.org/2000/svg">
<circle cx="34" cy="34" r="34" fill="#282521"/>
<circle opacity="0.1" cx="34" cy="34" r="25" fill="#F0B622"/>
<path d="M33.9978 30.9963V34.9963M33.9978 38.9963H34.0078M32.6131 25.888L24.3882 40.0947C23.932 40.8827 23.7039 41.2767 23.7376 41.6C23.767 41.8821 23.9148 42.1384 24.1442 42.3051C24.4071 42.4963 24.8624 42.4963 25.7729 42.4963H42.2227C43.1332 42.4963 43.5885 42.4963 43.8514 42.3051C44.0808 42.1384 44.2286 41.8821 44.258 41.6C44.2917 41.2767 44.0636 40.8827 43.6074 40.0947L35.3825 25.888C34.9279 25.1029 34.7006 24.7103 34.4041 24.5784C34.1454 24.4634 33.8502 24.4634 33.5915 24.5784C33.295 24.7103 33.0677 25.1029 32.6131 25.888Z" stroke="#F0B622" stroke-width="2" stroke-linecap="round" stroke-linejoin="round"/>
</svg>
