<svg width="73" height="77" viewBox="0 0 73 77" fill="none" xmlns="http://www.w3.org/2000/svg">
<path d="M67.9462 25.8938L43.0138 39.5489C40.7115 40.7955 39.3077 43.2885 39.3077 46.0649V72.4686C39.3077 75.3017 42.0592 77.1714 44.3615 75.8683L69.2938 62.2131C71.54 60.9666 73 58.4735 73 55.6972V29.3501C73 26.4604 70.2485 24.6473 67.9462 25.8938ZM29.9862 39.4923L5.05385 25.8938C2.75154 24.6473 0 26.4604 0 29.2934V55.8105C0 58.5868 1.40385 61.0799 3.70615 62.3264L28.6385 75.9249C30.9408 77.1714 33.6923 75.3017 33.6923 72.4686V46.0082C33.6923 43.2319 32.2885 40.7388 29.9862 39.4923ZM65.6438 19.7178C66.8231 19.0945 67.3846 18.018 67.2723 16.9981C67.3846 15.9216 66.8231 14.9017 65.6438 14.2784L40.2623 0.906566C39.1392 0.283302 37.7915 0 36.4438 0C35.0962 0 33.7485 0.283302 32.6254 0.906566L7.24385 14.2218C6.06462 14.845 5.55923 15.9216 5.61538 16.9415C5.55923 18.018 6.06462 19.0945 7.24385 19.7178L32.6254 33.033C33.7485 33.6563 35.0962 33.9396 36.4438 33.9396C37.7915 33.9396 39.1392 33.6563 40.2623 33.033L65.6438 19.7178Z" fill="url(#paint0_linear_3304_5956)"/>
<path d="M67.9457 25.8389L43.0134 39.494C40.7111 40.7406 39.3073 43.2336 39.3073 46.01V72.4137C39.3073 75.2468 42.0588 77.1165 44.3611 75.8134L69.2934 62.1582C71.5396 60.9117 72.9996 58.4186 72.9996 55.6423V29.2952C72.9996 26.4055 70.248 24.5924 67.9457 25.8389Z" fill="white"/>
<defs>
<linearGradient id="paint0_linear_3304_5956" x1="6.82101" y1="53.4861" x2="131.282" y2="34.0237" gradientUnits="userSpaceOnUse">
<stop stop-color="#68FFF1"/>
<stop offset="0.493101" stop-color="#00BABA"/>
<stop offset="1" stop-color="#00C2EC"/>
</linearGradient>
</defs>
</svg>
