<svg width="200" height="200" viewBox="0 0 200 200" fill="none" xmlns="http://www.w3.org/2000/svg">
<path d="M26.1174 99.4613C24.7354 94.5145 23.6124 89.499 22.7531 84.4352C20.7323 72.5406 27.8087 59.8626 40.3923 52.83C61.1744 41.2142 83.6248 32.5018 106.801 27.0568C120.834 23.7594 134.611 28.3449 141.141 38.4882C147.603 48.521 152.78 59.2104 156.612 70.393L26.1174 99.4613Z" fill="#10C5C3"/>
<path d="M46.1304 169.792C34.0215 167.739 24.3644 158.559 21.6983 146.57C16.7672 124.381 16.7672 101.381 21.6983 79.1929C24.3621 67.2039 34.0215 58.0237 46.1304 55.9706C79.3194 50.3459 113.218 50.3459 146.407 55.9706C158.516 58.0237 168.173 67.2039 170.839 79.1929C175.77 101.381 175.77 124.38 170.839 146.57C168.176 158.559 158.516 167.739 146.407 169.792C113.218 175.417 79.3194 175.417 46.1304 169.792Z" fill="url(#paint0_linear_3199_50061)"/>
<mask id="mask0_3199_50061" style="mask-type:alpha" maskUnits="userSpaceOnUse" x="18" y="51" width="157" height="124">
<path d="M46.1304 169.792C34.0215 167.739 24.3644 158.559 21.6983 146.57C16.7672 124.381 16.7672 101.381 21.6983 79.1929C24.3621 67.2039 34.0215 58.0237 46.1304 55.9706C79.3194 50.3459 113.218 50.3459 146.407 55.9706C158.516 58.0237 168.173 67.2039 170.839 79.1929C175.77 101.381 175.77 124.38 170.839 146.57C168.176 158.559 158.516 167.739 146.407 169.792C113.218 175.417 79.3194 175.417 46.1304 169.792Z" fill="url(#paint1_linear_3199_50061)"/>
</mask>
<g mask="url(#mask0_3199_50061)">
<path opacity="0.6" d="M46.6885 218.789C34.5796 216.735 24.9225 207.555 22.2564 195.566C17.3253 173.378 17.3253 150.378 22.2564 128.19C24.9202 116.201 34.5796 107.02 46.6885 104.967C79.8775 99.3426 113.776 99.3426 146.965 104.967C159.074 107.02 168.731 116.201 171.397 128.19C176.329 150.377 176.329 173.376 171.397 195.566C168.734 207.555 159.074 216.735 146.965 218.789C113.776 224.413 79.8775 224.413 46.6885 218.789Z" fill="white"/>
</g>
<path d="M116.398 125.67C120.97 129.742 126.725 132.242 132.82 132.807L133.452 132.864C145.502 133.98 157.629 133.98 169.679 132.864C175.479 132.327 180.064 127.719 180.571 121.917C181.143 115.384 181.143 108.815 180.571 102.282C180.064 96.48 175.479 91.8715 169.679 91.3346C157.629 90.2194 145.502 90.2194 133.452 91.3346L132.82 91.3922C126.725 91.9566 120.97 94.4574 116.398 98.5285C115.137 99.6511 114.071 100.975 113.243 102.446C111.585 105.392 110.713 108.716 110.713 112.097C110.713 115.478 111.585 118.802 113.243 121.749C114.071 123.22 115.137 124.543 116.398 125.666V125.67Z" fill="black"/>
<path d="M121.02 112.101C121.02 114.65 122.033 117.094 123.835 118.896C125.637 120.698 128.081 121.71 130.629 121.71C133.177 121.71 135.621 120.698 137.423 118.896C139.225 117.094 140.238 114.65 140.238 112.101C140.238 109.553 139.225 107.109 137.423 105.307C135.621 103.505 133.177 102.493 130.629 102.493C128.081 102.493 125.637 103.505 123.835 105.307C122.033 107.109 121.02 109.553 121.02 112.101Z" fill="white"/>
<defs>
<linearGradient id="paint0_linear_3199_50061" x1="109.514" y1="62.3832" x2="91.5677" y2="177.121" gradientUnits="userSpaceOnUse">
<stop stop-color="#68FFF1"/>
<stop offset="1" stop-color="#00C2EC"/>
</linearGradient>
<linearGradient id="paint1_linear_3199_50061" x1="109.514" y1="62.3832" x2="91.5677" y2="177.121" gradientUnits="userSpaceOnUse">
<stop stop-color="#68FFF1"/>
<stop offset="1" stop-color="#00C2EC"/>
</linearGradient>
</defs>
</svg>
