<svg width="40" height="40" viewBox="0 0 40 40" fill="none" xmlns="http://www.w3.org/2000/svg">
<ellipse cx="6.20906" cy="6.14746" rx="6.20906" ry="6.14746" transform="matrix(0.985835 -0.166854 0.170264 0.985548 5.44531 12.9688)" fill="white"/>
<path d="M26.9904 7.37278C27.604 7.94798 28.2078 8.53044 28.7501 9.17589C32.4187 13.5433 33.2127 19.8073 30.7325 24.923C29.093 28.3049 26.5316 30.7618 23.0499 32.2286C19.9699 33.5271 16.7768 33.7558 13.5159 32.9535C13.4619 32.94 13.4104 32.9212 13.3472 32.8693C17.4207 32.7478 20.9673 31.3657 23.8383 28.5008C26.7116 25.6347 28.1908 22.1474 28.1955 18.0925C28.2 14.7847 27.1798 11.7905 25.1514 9.15201C23.1299 6.51997 20.4802 4.77508 17.2766 3.8392C17.3372 3.72248 17.4212 3.76213 17.4868 3.76395C19.1666 3.79579 20.7928 4.1048 22.3679 4.68399C23.2518 5.00932 24.0938 5.41626 24.9026 5.89525C24.9422 5.91834 24.9891 5.92956 25.0328 5.94705L26.9888 7.37303L26.9904 7.37278Z" fill="white"/>
</svg>
