<svg width="22" height="22" viewBox="0 0 22 22" fill="none" xmlns="http://www.w3.org/2000/svg"><g id="交换 (2) 1"><path id="Vector" d="M19.6484 15.9095L15.8239 19.734C15.6534 19.9045 15.4222 20.0002 15.1812 20.0002C14.9401 20.0002 14.7089 19.9045 14.5384 19.734L10.7139 15.9095L11.9993 14.624L15.1812 17.8058L18.363 14.624L19.6484 15.9095Z" fill="#fff"></path><path id="Vector_2" d="M16.0918 9.94824L16.0918 19.0906L14.2736 19.0906L14.2736 9.94824L16.0918 9.94824Z" fill="#fff"></path><path id="Vector_3" d="M11.4668 5.90908L7.64225 2.08453C7.47177 1.9141 7.24058 1.81836 6.99952 1.81836C6.75847 1.81836 6.52728 1.9141 6.3568 2.08453L2.53225 5.90907L3.81771 7.19453L6.99952 4.01271L10.1813 7.19453L11.4668 5.90908Z" fill="#fff"></path><path id="Vector_4" d="M7.9082 2.72754L7.9082 11.749L6.09002 11.749L6.09002 2.72754L7.9082 2.72754Z" fill="#fff"></path></g></svg>