<svg width="120" height="120" viewBox="0 0 120 120" fill="none" xmlns="http://www.w3.org/2000/svg">
<rect width="120" height="120" rx="60" fill="url(#paint0_linear_15572_15016)"/>
<path d="M88.8455 52.358C90.0747 44.1627 83.823 39.7561 75.2811 36.8158L78.0527 25.7115L71.2882 24.0302L68.587 34.8413C66.8098 34.3956 64.9855 33.9811 63.1652 33.5666L65.8859 22.6852L59.1213 21L56.3497 32.1004C54.8778 31.7641 53.4294 31.4357 52.0279 31.0838L52.0358 31.0486L42.7031 28.7222L40.9024 35.94C40.9024 35.94 45.9249 37.0895 45.8192 37.1599C48.5595 37.8442 49.0528 39.6545 48.9706 41.0933L45.8153 53.7421C46.0032 53.789 46.2459 53.8594 46.52 53.965L45.8036 53.789L41.38 71.509C41.0433 72.3379 40.1938 73.5852 38.2756 73.1121C38.3461 73.2098 33.3588 71.8883 33.3588 71.8883L30 79.6222L38.808 81.8157C40.4444 82.2262 42.0494 82.6563 43.627 83.0591L40.828 94.2885L47.5887 95.9698L50.3603 84.8655C52.208 85.362 54.0009 85.8234 55.7547 86.2613L52.9909 97.3187L59.7555 99L62.5545 87.794C74.095 89.9758 82.7699 89.096 86.4223 78.6721C89.3662 70.2813 86.2775 65.4368 80.2058 62.2815C84.6294 61.2649 87.9569 58.3598 88.8455 52.358V52.358ZM73.3825 74.0114C71.296 82.4061 57.1444 77.8666 52.5564 76.7288L56.2754 61.8514C60.8634 62.997 75.5708 65.2609 73.3825 74.0114ZM75.4769 52.2368C73.5704 59.8729 61.7951 55.9903 57.9782 55.0402L61.3449 41.5508C65.1617 42.5009 77.4655 44.2721 75.4769 52.2368Z" fill="#352401"/>
<defs>
<linearGradient id="paint0_linear_15572_15016" x1="60" y1="0" x2="60" y2="120" gradientUnits="userSpaceOnUse">
<stop stop-color="#0EEEDB"/>
<stop offset="1" stop-color="#F7771A"/>
</linearGradient>
</defs>
</svg>
